%TF.GenerationSoftware,KiCad,Pcbnew,10.0.1*%
%TF.CreationDate,2026-04-20T15:04:41+05:30*%
%TF.ProjectId,dhjkstkkyme,64686a6b-7374-46b6-9b79-6d652e6b6963,rev?*%
%TF.SameCoordinates,Original*%
%TF.FileFunction,Soldermask,Bot*%
%TF.FilePolarity,Negative*%
%FSLAX46Y46*%
G04 Gerber Fmt 4.6, Leading zero omitted, Abs format (unit mm)*
G04 Created by KiCad (PCBNEW 10.0.1) date 2026-04-20 15:04:41*
%MOMM*%
%LPD*%
G01*
G04 APERTURE LIST*
G04 Aperture macros list*
%AMRoundRect*
0 Rectangle with rounded corners*
0 $1 Rounding radius*
0 $2 $3 $4 $5 $6 $7 $8 $9 X,Y pos of 4 corners*
0 Add a 4 corners polygon primitive as box body*
4,1,4,$2,$3,$4,$5,$6,$7,$8,$9,$2,$3,0*
0 Add four circle primitives for the rounded corners*
1,1,$1+$1,$2,$3*
1,1,$1+$1,$4,$5*
1,1,$1+$1,$6,$7*
1,1,$1+$1,$8,$9*
0 Add four rect primitives between the rounded corners*
20,1,$1+$1,$2,$3,$4,$5,0*
20,1,$1+$1,$4,$5,$6,$7,0*
20,1,$1+$1,$6,$7,$8,$9,0*
20,1,$1+$1,$8,$9,$2,$3,0*%
G04 Aperture macros list end*
%ADD10C,1.500000*%
%ADD11C,1.400000*%
%ADD12C,3.200000*%
%ADD13R,3.000000X3.000000*%
%ADD14C,3.000000*%
%ADD15RoundRect,0.250000X-0.550000X0.550000X-0.550000X-0.550000X0.550000X-0.550000X0.550000X0.550000X0*%
%ADD16C,1.600000*%
%ADD17RoundRect,0.250000X0.550000X-0.550000X0.550000X0.550000X-0.550000X0.550000X-0.550000X-0.550000X0*%
%ADD18R,1.000000X1.000000*%
%ADD19O,1.000000X1.000000*%
%ADD20C,1.200000*%
%ADD21RoundRect,0.237500X0.237500X-0.300000X0.237500X0.300000X-0.237500X0.300000X-0.237500X-0.300000X0*%
%ADD22RoundRect,0.237500X0.300000X0.237500X-0.300000X0.237500X-0.300000X-0.237500X0.300000X-0.237500X0*%
%ADD23R,0.660000X0.230000*%
%ADD24R,0.660000X0.350000*%
%ADD25R,5.100000X3.500000*%
%ADD26RoundRect,0.237500X0.287500X0.237500X-0.287500X0.237500X-0.287500X-0.237500X0.287500X-0.237500X0*%
%ADD27C,4.000000*%
%ADD28RoundRect,0.237500X-0.237500X0.300000X-0.237500X-0.300000X0.237500X-0.300000X0.237500X0.300000X0*%
%ADD29RoundRect,0.250000X-0.400000X-0.625000X0.400000X-0.625000X0.400000X0.625000X-0.400000X0.625000X0*%
%ADD30RoundRect,0.150000X0.587500X0.150000X-0.587500X0.150000X-0.587500X-0.150000X0.587500X-0.150000X0*%
%ADD31RoundRect,0.250000X0.412500X0.650000X-0.412500X0.650000X-0.412500X-0.650000X0.412500X-0.650000X0*%
%ADD32RoundRect,0.250000X-0.625000X0.400000X-0.625000X-0.400000X0.625000X-0.400000X0.625000X0.400000X0*%
%ADD33R,0.200000X0.700000*%
%ADD34RoundRect,0.250000X-0.650000X0.412500X-0.650000X-0.412500X0.650000X-0.412500X0.650000X0.412500X0*%
%ADD35RoundRect,0.250000X-1.100000X0.412500X-1.100000X-0.412500X1.100000X-0.412500X1.100000X0.412500X0*%
%ADD36RoundRect,0.237500X-0.237500X0.287500X-0.237500X-0.287500X0.237500X-0.287500X0.237500X0.287500X0*%
%ADD37RoundRect,0.237500X-0.300000X-0.237500X0.300000X-0.237500X0.300000X0.237500X-0.300000X0.237500X0*%
%ADD38R,0.800000X2.000000*%
%ADD39C,1.000000*%
%ADD40RoundRect,0.250000X0.650000X-0.412500X0.650000X0.412500X-0.650000X0.412500X-0.650000X-0.412500X0*%
%ADD41R,0.650000X0.350000*%
%ADD42R,1.100000X1.700000*%
%ADD43RoundRect,0.250000X-0.350000X-0.450000X0.350000X-0.450000X0.350000X0.450000X-0.350000X0.450000X0*%
%ADD44R,4.000000X4.000000*%
%ADD45RoundRect,0.250000X-0.450000X0.350000X-0.450000X-0.350000X0.450000X-0.350000X0.450000X0.350000X0*%
%ADD46R,0.650000X1.850000*%
%ADD47R,2.000000X0.800000*%
%ADD48RoundRect,0.250000X-0.475000X0.337500X-0.475000X-0.337500X0.475000X-0.337500X0.475000X0.337500X0*%
G04 APERTURE END LIST*
D10*
%TO.C,C50*%
X228000000Y-152000000D03*
X228000000Y-179500000D03*
%TD*%
%TO.C,C3*%
X251000000Y-152000000D03*
X251000000Y-179500000D03*
%TD*%
D11*
%TO.C,C64*%
X273000000Y-190310000D03*
X285500000Y-190310000D03*
%TD*%
D12*
%TO.C,REF\u002A\u002A*%
X120000000Y-160000000D03*
%TD*%
%TO.C,REF\u002A\u002A*%
X115000000Y-65000000D03*
%TD*%
D13*
%TO.C,T1*%
X271740000Y-151380000D03*
D14*
X271740000Y-174240000D03*
X286980000Y-174240000D03*
X286980000Y-151380000D03*
%TD*%
D12*
%TO.C,REF\u002A\u002A*%
X80000000Y-65000000D03*
%TD*%
%TO.C,REF\u002A\u002A*%
X309000000Y-164000000D03*
%TD*%
D15*
%TO.C,J2*%
X107600684Y-81081188D03*
D16*
X107600684Y-84681188D03*
%TD*%
D17*
%TO.C,J1*%
X122357267Y-126300000D03*
D16*
X122357267Y-122700000D03*
%TD*%
D18*
%TO.C,J10*%
X124000000Y-205100000D03*
D19*
X124000000Y-203830000D03*
X124000000Y-202560000D03*
X124000000Y-201290000D03*
X124000000Y-200020000D03*
%TD*%
D18*
%TO.C,J8*%
X274000000Y-73200000D03*
D19*
X275270000Y-73200000D03*
X276540000Y-73200000D03*
X277810000Y-73200000D03*
X279080000Y-73200000D03*
X280350000Y-73200000D03*
%TD*%
D18*
%TO.C,J9*%
X274000000Y-69900000D03*
D19*
X275270000Y-69900000D03*
X276540000Y-69900000D03*
X277810000Y-69900000D03*
X279080000Y-69900000D03*
%TD*%
D20*
%TO.C,C66*%
X265625000Y-193660000D03*
X265625000Y-186160000D03*
%TD*%
%TO.C,C65*%
X291625000Y-186960000D03*
X291625000Y-194460000D03*
%TD*%
D12*
%TO.C,REF\u002A\u002A*%
X153000000Y-65000000D03*
%TD*%
%TO.C,REF\u002A\u002A*%
X146000000Y-201000000D03*
%TD*%
D18*
%TO.C,J7*%
X127400000Y-205100000D03*
D19*
X127400000Y-203830000D03*
X127400000Y-202560000D03*
X127400000Y-201290000D03*
X127400000Y-200020000D03*
X127400000Y-198750000D03*
X127400000Y-197480000D03*
X127400000Y-196210000D03*
X127400000Y-194940000D03*
X127400000Y-193670000D03*
%TD*%
D21*
%TO.C,C94*%
X282200000Y-113762500D03*
X282200000Y-112037500D03*
%TD*%
%TO.C,C93*%
X293100000Y-110062500D03*
X293100000Y-108337500D03*
%TD*%
D22*
%TO.C,C21*%
X195950000Y-190300000D03*
X194225000Y-190300000D03*
%TD*%
D21*
%TO.C,R54*%
X104000000Y-186662500D03*
X104000000Y-184937500D03*
%TD*%
D23*
%TO.C,J5*%
X206355000Y-75200000D03*
X203645000Y-75200000D03*
X206355000Y-75600000D03*
X203645000Y-75600000D03*
X206355000Y-76000000D03*
X203645000Y-76000000D03*
X206355000Y-76400000D03*
X203645000Y-76400000D03*
X206355000Y-76800000D03*
X203645000Y-76800000D03*
X206355000Y-77200000D03*
X203645000Y-77200000D03*
X206355000Y-77600000D03*
X203645000Y-77600000D03*
X206355000Y-78000000D03*
X203645000Y-78000000D03*
X206355000Y-78400000D03*
X203645000Y-78400000D03*
X206355000Y-78800000D03*
X203645000Y-78800000D03*
X206355000Y-79200000D03*
X203645000Y-79200000D03*
X206355000Y-79600000D03*
X203645000Y-79600000D03*
X206355000Y-80000000D03*
X203645000Y-80000000D03*
X206355000Y-80400000D03*
X203645000Y-80400000D03*
X206355000Y-80800000D03*
X203645000Y-80800000D03*
X206355000Y-81200000D03*
X203645000Y-81200000D03*
X206355000Y-81600000D03*
X203645000Y-81600000D03*
X206355000Y-82000000D03*
X203645000Y-82000000D03*
X206355000Y-82400000D03*
X203645000Y-82400000D03*
X206355000Y-82800000D03*
X203645000Y-82800000D03*
D24*
X206355000Y-74725000D03*
X203645000Y-74725000D03*
X206355000Y-83275000D03*
X203645000Y-83275000D03*
%TD*%
D21*
%TO.C,R51*%
X102137500Y-211300000D03*
X102137500Y-209575000D03*
%TD*%
D25*
%TO.C,R61*%
X202000000Y-174890000D03*
X202000000Y-179000000D03*
%TD*%
D26*
%TO.C,FB3*%
X174875000Y-98000000D03*
X173125000Y-98000000D03*
%TD*%
D27*
%TO.C,TP2*%
X197000000Y-117000000D03*
%TD*%
D28*
%TO.C,C58*%
X314956750Y-110137500D03*
X314956750Y-111862500D03*
%TD*%
D29*
%TO.C,R37*%
X267350000Y-118400000D03*
X270450000Y-118400000D03*
%TD*%
D30*
%TO.C,D6*%
X218175000Y-150080000D03*
X218175000Y-151980000D03*
X216300000Y-151030000D03*
%TD*%
D28*
%TO.C,C53*%
X198000000Y-106937500D03*
X198000000Y-108662500D03*
%TD*%
D31*
%TO.C,C60*%
X176362500Y-96000000D03*
X173237500Y-96000000D03*
%TD*%
D32*
%TO.C,R67*%
X221100000Y-150130000D03*
X221100000Y-153230000D03*
%TD*%
D29*
%TO.C,R36*%
X262150000Y-118400000D03*
X265250000Y-118400000D03*
%TD*%
%TO.C,R38*%
X272600000Y-118400000D03*
X275700000Y-118400000D03*
%TD*%
D33*
%TO.C,J4*%
X109800000Y-180000000D03*
X109800000Y-176920000D03*
X109400000Y-180000000D03*
X109400000Y-176920000D03*
X109000000Y-180000000D03*
X109000000Y-176920000D03*
X108600000Y-180000000D03*
X108600000Y-176920000D03*
X108200000Y-180000000D03*
X108200000Y-176920000D03*
X107800000Y-180000000D03*
X107800000Y-176920000D03*
X107400000Y-180000000D03*
X107400000Y-176920000D03*
X107000000Y-180000000D03*
X107000000Y-176920000D03*
X106600000Y-180000000D03*
X106600000Y-176920000D03*
X106200000Y-180000000D03*
X106200000Y-176920000D03*
X105800000Y-180000000D03*
X105800000Y-176920000D03*
X105400000Y-180000000D03*
X105400000Y-176920000D03*
X105000000Y-180000000D03*
X105000000Y-176920000D03*
X104600000Y-180000000D03*
X104600000Y-176920000D03*
X104200000Y-180000000D03*
X104200000Y-176920000D03*
X103800000Y-180000000D03*
X103800000Y-176920000D03*
X103400000Y-180000000D03*
X103400000Y-176920000D03*
X103000000Y-180000000D03*
X103000000Y-176920000D03*
X102600000Y-180000000D03*
X102600000Y-176920000D03*
X102200000Y-180000000D03*
X102200000Y-176920000D03*
%TD*%
D22*
%TO.C,C47*%
X195962500Y-191900000D03*
X194237500Y-191900000D03*
%TD*%
D32*
%TO.C,R65*%
X221100000Y-140030000D03*
X221100000Y-143130000D03*
%TD*%
D18*
%TO.C,TP6*%
X212500000Y-152200000D03*
%TD*%
D34*
%TO.C,C61*%
X170600000Y-182437500D03*
X170600000Y-185562500D03*
%TD*%
D28*
%TO.C,R52*%
X104137500Y-209575000D03*
X104137500Y-211300000D03*
%TD*%
D32*
%TO.C,R64*%
X221100000Y-135000000D03*
X221100000Y-138100000D03*
%TD*%
D35*
%TO.C,C74*%
X308800000Y-109375000D03*
X308800000Y-112500000D03*
%TD*%
D36*
%TO.C,FB4*%
X168600000Y-183925000D03*
X168600000Y-185675000D03*
%TD*%
D22*
%TO.C,C73*%
X109462500Y-188600000D03*
X107737500Y-188600000D03*
%TD*%
D37*
%TO.C,C48*%
X274737500Y-98400000D03*
X276462500Y-98400000D03*
%TD*%
D28*
%TO.C,R50*%
X288300000Y-113737500D03*
X288300000Y-115462500D03*
%TD*%
D21*
%TO.C,R49*%
X290000000Y-115462500D03*
X290000000Y-113737500D03*
%TD*%
D38*
%TO.C,L6*%
X168600000Y-188700000D03*
X170600000Y-188700000D03*
%TD*%
D22*
%TO.C,C67*%
X289962500Y-112000000D03*
X288237500Y-112000000D03*
%TD*%
D39*
%TO.C,TP5*%
X212500000Y-150100000D03*
%TD*%
D22*
%TO.C,C72*%
X105762500Y-188300000D03*
X104037500Y-188300000D03*
%TD*%
D28*
%TO.C,R55*%
X109600000Y-185237500D03*
X109600000Y-186962500D03*
%TD*%
D40*
%TO.C,C10*%
X174900000Y-74900000D03*
X174900000Y-71775000D03*
%TD*%
D28*
%TO.C,R53*%
X105800000Y-184900000D03*
X105800000Y-186625000D03*
%TD*%
D41*
%TO.C,IC2*%
X306500000Y-109137500D03*
X306500000Y-109787500D03*
X306500000Y-110437500D03*
X304300000Y-110437500D03*
X304300000Y-109787500D03*
X304300000Y-109137500D03*
D42*
X305400000Y-109787500D03*
%TD*%
D29*
%TO.C,R34*%
X251750000Y-118400000D03*
X254850000Y-118400000D03*
%TD*%
%TO.C,R39*%
X277850000Y-118400000D03*
X280950000Y-118400000D03*
%TD*%
D35*
%TO.C,C75*%
X302000000Y-109437500D03*
X302000000Y-112562500D03*
%TD*%
D33*
%TO.C,J3*%
X109800000Y-220000000D03*
X109800000Y-216920000D03*
X109400000Y-220000000D03*
X109400000Y-216920000D03*
X109000000Y-220000000D03*
X109000000Y-216920000D03*
X108600000Y-220000000D03*
X108600000Y-216920000D03*
X108200000Y-220000000D03*
X108200000Y-216920000D03*
X107800000Y-220000000D03*
X107800000Y-216920000D03*
X107400000Y-220000000D03*
X107400000Y-216920000D03*
X107000000Y-220000000D03*
X107000000Y-216920000D03*
X106600000Y-220000000D03*
X106600000Y-216920000D03*
X106200000Y-220000000D03*
X106200000Y-216920000D03*
X105800000Y-220000000D03*
X105800000Y-216920000D03*
X105400000Y-220000000D03*
X105400000Y-216920000D03*
X105000000Y-220000000D03*
X105000000Y-216920000D03*
X104600000Y-220000000D03*
X104600000Y-216920000D03*
X104200000Y-220000000D03*
X104200000Y-216920000D03*
X103800000Y-220000000D03*
X103800000Y-216920000D03*
X103400000Y-220000000D03*
X103400000Y-216920000D03*
X103000000Y-220000000D03*
X103000000Y-216920000D03*
X102600000Y-220000000D03*
X102600000Y-216920000D03*
X102200000Y-220000000D03*
X102200000Y-216920000D03*
%TD*%
D21*
%TO.C,C92*%
X294700000Y-110062500D03*
X294700000Y-108337500D03*
%TD*%
D28*
%TO.C,C23*%
X198000000Y-97300000D03*
X198000000Y-99025000D03*
%TD*%
D32*
%TO.C,R66*%
X221100000Y-145080000D03*
X221100000Y-148180000D03*
%TD*%
D21*
%TO.C,C95*%
X214400000Y-151830000D03*
X214400000Y-150105000D03*
%TD*%
D29*
%TO.C,R35*%
X256950000Y-118400000D03*
X260050000Y-118400000D03*
%TD*%
D43*
%TO.C,R41*%
X288200000Y-118400000D03*
X290200000Y-118400000D03*
%TD*%
D44*
%TO.C,TP1*%
X197000000Y-129000000D03*
%TD*%
D18*
%TO.C,TP3*%
X279900000Y-114100000D03*
%TD*%
D28*
%TO.C,C46*%
X299600000Y-109337500D03*
X299600000Y-111062500D03*
%TD*%
D45*
%TO.C,R68*%
X221100000Y-155230000D03*
X221100000Y-157230000D03*
%TD*%
D46*
%TO.C,AT3*%
X290905000Y-108325000D03*
X289635000Y-108325000D03*
X288365000Y-108325000D03*
X287095000Y-108325000D03*
X287095000Y-97675000D03*
X288365000Y-97675000D03*
X289635000Y-97675000D03*
X290905000Y-97675000D03*
%TD*%
D37*
%TO.C,C71*%
X102275000Y-207937500D03*
X104000000Y-207937500D03*
%TD*%
%TO.C,C49*%
X274737500Y-96800000D03*
X276462500Y-96800000D03*
%TD*%
D23*
%TO.C,J6*%
X246355000Y-75200000D03*
X243645000Y-75200000D03*
X246355000Y-75600000D03*
X243645000Y-75600000D03*
X246355000Y-76000000D03*
X243645000Y-76000000D03*
X246355000Y-76400000D03*
X243645000Y-76400000D03*
X246355000Y-76800000D03*
X243645000Y-76800000D03*
X246355000Y-77200000D03*
X243645000Y-77200000D03*
X246355000Y-77600000D03*
X243645000Y-77600000D03*
X246355000Y-78000000D03*
X243645000Y-78000000D03*
X246355000Y-78400000D03*
X243645000Y-78400000D03*
X246355000Y-78800000D03*
X243645000Y-78800000D03*
X246355000Y-79200000D03*
X243645000Y-79200000D03*
X246355000Y-79600000D03*
X243645000Y-79600000D03*
X246355000Y-80000000D03*
X243645000Y-80000000D03*
X246355000Y-80400000D03*
X243645000Y-80400000D03*
X246355000Y-80800000D03*
X243645000Y-80800000D03*
X246355000Y-81200000D03*
X243645000Y-81200000D03*
X246355000Y-81600000D03*
X243645000Y-81600000D03*
X246355000Y-82000000D03*
X243645000Y-82000000D03*
X246355000Y-82400000D03*
X243645000Y-82400000D03*
X246355000Y-82800000D03*
X243645000Y-82800000D03*
D24*
X246355000Y-74725000D03*
X243645000Y-74725000D03*
X246355000Y-83275000D03*
X243645000Y-83275000D03*
%TD*%
D47*
%TO.C,L5*%
X170200000Y-98012500D03*
X170200000Y-96012500D03*
%TD*%
D30*
%TO.C,D5*%
X285937500Y-112050000D03*
X285937500Y-113950000D03*
X284062500Y-113000000D03*
%TD*%
D29*
%TO.C,R40*%
X283050000Y-118400000D03*
X286150000Y-118400000D03*
%TD*%
D48*
%TO.C,C56*%
X313056750Y-110162500D03*
X313056750Y-112237500D03*
%TD*%
D39*
%TO.C,TP4*%
X279800000Y-112000000D03*
%TD*%
D34*
%TO.C,C12*%
X171100000Y-205300000D03*
X171100000Y-208425000D03*
%TD*%
D21*
%TO.C,R56*%
X107600000Y-186962500D03*
X107600000Y-185237500D03*
%TD*%
G36*
X179461980Y-97602383D02*
G01*
X179521480Y-97614218D01*
X179566179Y-97632732D01*
X179606268Y-97659518D01*
X179640481Y-97693731D01*
X179667267Y-97733820D01*
X179685781Y-97778517D01*
X179697617Y-97838017D01*
X179700000Y-97862210D01*
X179700000Y-100337789D01*
X179697617Y-100361982D01*
X179685781Y-100421482D01*
X179667267Y-100466179D01*
X179640481Y-100506268D01*
X179606268Y-100540481D01*
X179566179Y-100567267D01*
X179521482Y-100585781D01*
X179461982Y-100597617D01*
X179437789Y-100600000D01*
X176962211Y-100600000D01*
X176938019Y-100597617D01*
X176878518Y-100585781D01*
X176833820Y-100567267D01*
X176793731Y-100540481D01*
X176759518Y-100506268D01*
X176732732Y-100466179D01*
X176714218Y-100421480D01*
X176702383Y-100361980D01*
X176700000Y-100337789D01*
X176700000Y-97862210D01*
X176702383Y-97838019D01*
X176714218Y-97778519D01*
X176732732Y-97733820D01*
X176759518Y-97693731D01*
X176793731Y-97659518D01*
X176833820Y-97632732D01*
X176878520Y-97614217D01*
X176938021Y-97602382D01*
X176962211Y-97600000D01*
X179437789Y-97600000D01*
X179461980Y-97602383D01*
G37*
G36*
X163943039Y-117019685D02*
G01*
X163988794Y-117072489D01*
X164000000Y-117124000D01*
X164000000Y-131876000D01*
X163980315Y-131943039D01*
X163927511Y-131988794D01*
X163876000Y-132000000D01*
X148124000Y-132000000D01*
X148056961Y-131980315D01*
X148011206Y-131927511D01*
X148000000Y-131876000D01*
X148000000Y-117124000D01*
X148019685Y-117056961D01*
X148072489Y-117011206D01*
X148124000Y-117000000D01*
X163876000Y-117000000D01*
X163943039Y-117019685D01*
G37*
G36*
X199061980Y-82202383D02*
G01*
X199121480Y-82214218D01*
X199166179Y-82232732D01*
X199206268Y-82259518D01*
X199240481Y-82293731D01*
X199267267Y-82333820D01*
X199285781Y-82378517D01*
X199297617Y-82438017D01*
X199300000Y-82462210D01*
X199300000Y-85537789D01*
X199297617Y-85561982D01*
X199285781Y-85621482D01*
X199267267Y-85666179D01*
X199240481Y-85706268D01*
X199206268Y-85740481D01*
X199166179Y-85767267D01*
X199121482Y-85785781D01*
X199061982Y-85797617D01*
X199037789Y-85800000D01*
X198762211Y-85800000D01*
X198738019Y-85797617D01*
X198678518Y-85785781D01*
X198633820Y-85767267D01*
X198593731Y-85740481D01*
X198559518Y-85706268D01*
X198532732Y-85666179D01*
X198514218Y-85621480D01*
X198502383Y-85561980D01*
X198500000Y-85537789D01*
X198500000Y-82462210D01*
X198502383Y-82438019D01*
X198514218Y-82378519D01*
X198532732Y-82333820D01*
X198559518Y-82293731D01*
X198593731Y-82259518D01*
X198633820Y-82232732D01*
X198678520Y-82214217D01*
X198738021Y-82202382D01*
X198762211Y-82200000D01*
X199037789Y-82200000D01*
X199061980Y-82202383D01*
G37*
G36*
X176308059Y-203001061D02*
G01*
X176413223Y-203014906D01*
X176444491Y-203023284D01*
X176534918Y-203060740D01*
X176562951Y-203076925D01*
X176640601Y-203136508D01*
X176663491Y-203159398D01*
X176723074Y-203237048D01*
X176739259Y-203265081D01*
X176776715Y-203355508D01*
X176785093Y-203386775D01*
X176798939Y-203491939D01*
X176800000Y-203508125D01*
X176800000Y-205591874D01*
X176798939Y-205608060D01*
X176785093Y-205713224D01*
X176776715Y-205744491D01*
X176739259Y-205834918D01*
X176723074Y-205862951D01*
X176663491Y-205940601D01*
X176640601Y-205963491D01*
X176562951Y-206023074D01*
X176534918Y-206039259D01*
X176444491Y-206076715D01*
X176413224Y-206085093D01*
X176308060Y-206098939D01*
X176291874Y-206100000D01*
X174408126Y-206100000D01*
X174391940Y-206098939D01*
X174286775Y-206085093D01*
X174255508Y-206076715D01*
X174165081Y-206039259D01*
X174137048Y-206023074D01*
X174059398Y-205963491D01*
X174036508Y-205940601D01*
X173976925Y-205862951D01*
X173960740Y-205834918D01*
X173923284Y-205744491D01*
X173914906Y-205713223D01*
X173901061Y-205608059D01*
X173900000Y-205591874D01*
X173900000Y-203508125D01*
X173901061Y-203491940D01*
X173914906Y-203386776D01*
X173923284Y-203355508D01*
X173960740Y-203265081D01*
X173976925Y-203237048D01*
X174036508Y-203159398D01*
X174059398Y-203136508D01*
X174137048Y-203076925D01*
X174165081Y-203060740D01*
X174255508Y-203023284D01*
X174286776Y-203014906D01*
X174391941Y-203001061D01*
X174408126Y-203000000D01*
X176291874Y-203000000D01*
X176308059Y-203001061D01*
G37*
G36*
X167761980Y-179002383D02*
G01*
X167821480Y-179014218D01*
X167866179Y-179032732D01*
X167906268Y-179059518D01*
X167940481Y-179093731D01*
X167967267Y-179133820D01*
X167985781Y-179178517D01*
X167997617Y-179238017D01*
X168000000Y-179262210D01*
X168000000Y-181737789D01*
X167997617Y-181761982D01*
X167985781Y-181821482D01*
X167967267Y-181866179D01*
X167940481Y-181906268D01*
X167906268Y-181940481D01*
X167866179Y-181967267D01*
X167821482Y-181985781D01*
X167761982Y-181997617D01*
X167737789Y-182000000D01*
X165262211Y-182000000D01*
X165238019Y-181997617D01*
X165178518Y-181985781D01*
X165133820Y-181967267D01*
X165093731Y-181940481D01*
X165059518Y-181906268D01*
X165032732Y-181866179D01*
X165014218Y-181821480D01*
X165002383Y-181761980D01*
X165000000Y-181737789D01*
X165000000Y-179262210D01*
X165002383Y-179238019D01*
X165014218Y-179178519D01*
X165032732Y-179133820D01*
X165059518Y-179093731D01*
X165093731Y-179059518D01*
X165133820Y-179032732D01*
X165178520Y-179014217D01*
X165238021Y-179002382D01*
X165262211Y-179000000D01*
X167737789Y-179000000D01*
X167761980Y-179002383D01*
G37*
G36*
X176308059Y-206601061D02*
G01*
X176413223Y-206614906D01*
X176444491Y-206623284D01*
X176534918Y-206660740D01*
X176562951Y-206676925D01*
X176640601Y-206736508D01*
X176663491Y-206759398D01*
X176723074Y-206837048D01*
X176739259Y-206865081D01*
X176776715Y-206955508D01*
X176785093Y-206986775D01*
X176798939Y-207091939D01*
X176800000Y-207108125D01*
X176800000Y-209191874D01*
X176798939Y-209208060D01*
X176785093Y-209313224D01*
X176776715Y-209344491D01*
X176739259Y-209434918D01*
X176723074Y-209462951D01*
X176663491Y-209540601D01*
X176640601Y-209563491D01*
X176562951Y-209623074D01*
X176534918Y-209639259D01*
X176444491Y-209676715D01*
X176413224Y-209685093D01*
X176308060Y-209698939D01*
X176291874Y-209700000D01*
X174408126Y-209700000D01*
X174391940Y-209698939D01*
X174286775Y-209685093D01*
X174255508Y-209676715D01*
X174165081Y-209639259D01*
X174137048Y-209623074D01*
X174059398Y-209563491D01*
X174036508Y-209540601D01*
X173976925Y-209462951D01*
X173960740Y-209434918D01*
X173923284Y-209344491D01*
X173914906Y-209313223D01*
X173901061Y-209208059D01*
X173900000Y-209191874D01*
X173900000Y-207108125D01*
X173901061Y-207091940D01*
X173914906Y-206986776D01*
X173923284Y-206955508D01*
X173960740Y-206865081D01*
X173976925Y-206837048D01*
X174036508Y-206759398D01*
X174059398Y-206736508D01*
X174137048Y-206676925D01*
X174165081Y-206660740D01*
X174255508Y-206623284D01*
X174286776Y-206614906D01*
X174391941Y-206601061D01*
X174408126Y-206600000D01*
X176291874Y-206600000D01*
X176308059Y-206601061D01*
G37*
G36*
X201943039Y-140019685D02*
G01*
X201988794Y-140072489D01*
X202000000Y-140124000D01*
X202000000Y-154876000D01*
X201980315Y-154943039D01*
X201927511Y-154988794D01*
X201876000Y-155000000D01*
X186124000Y-155000000D01*
X186056961Y-154980315D01*
X186011206Y-154927511D01*
X186000000Y-154876000D01*
X186000000Y-140124000D01*
X186019685Y-140056961D01*
X186072489Y-140011206D01*
X186124000Y-140000000D01*
X201876000Y-140000000D01*
X201943039Y-140019685D01*
G37*
G36*
X163961980Y-179002383D02*
G01*
X164021480Y-179014218D01*
X164066179Y-179032732D01*
X164106268Y-179059518D01*
X164140481Y-179093731D01*
X164167267Y-179133820D01*
X164185781Y-179178517D01*
X164197617Y-179238017D01*
X164200000Y-179262210D01*
X164200000Y-181737789D01*
X164197617Y-181761982D01*
X164185781Y-181821482D01*
X164167267Y-181866179D01*
X164140481Y-181906268D01*
X164106268Y-181940481D01*
X164066179Y-181967267D01*
X164021482Y-181985781D01*
X163961982Y-181997617D01*
X163937789Y-182000000D01*
X161462211Y-182000000D01*
X161438019Y-181997617D01*
X161378518Y-181985781D01*
X161333820Y-181967267D01*
X161293731Y-181940481D01*
X161259518Y-181906268D01*
X161232732Y-181866179D01*
X161214218Y-181821480D01*
X161202383Y-181761980D01*
X161200000Y-181737789D01*
X161200000Y-179262210D01*
X161202383Y-179238019D01*
X161214218Y-179178519D01*
X161232732Y-179133820D01*
X161259518Y-179093731D01*
X161293731Y-179059518D01*
X161333820Y-179032732D01*
X161378520Y-179014217D01*
X161438021Y-179002382D01*
X161462211Y-179000000D01*
X163937789Y-179000000D01*
X163961980Y-179002383D01*
G37*
G36*
X183261980Y-97602383D02*
G01*
X183321480Y-97614218D01*
X183366179Y-97632732D01*
X183406268Y-97659518D01*
X183440481Y-97693731D01*
X183467267Y-97733820D01*
X183485781Y-97778517D01*
X183497617Y-97838017D01*
X183500000Y-97862210D01*
X183500000Y-100337789D01*
X183497617Y-100361982D01*
X183485781Y-100421482D01*
X183467267Y-100466179D01*
X183440481Y-100506268D01*
X183406268Y-100540481D01*
X183366179Y-100567267D01*
X183321482Y-100585781D01*
X183261982Y-100597617D01*
X183237789Y-100600000D01*
X180762211Y-100600000D01*
X180738019Y-100597617D01*
X180678518Y-100585781D01*
X180633820Y-100567267D01*
X180593731Y-100540481D01*
X180559518Y-100506268D01*
X180532732Y-100466179D01*
X180514218Y-100421480D01*
X180502383Y-100361980D01*
X180500000Y-100337789D01*
X180500000Y-97862210D01*
X180502383Y-97838019D01*
X180514218Y-97778519D01*
X180532732Y-97733820D01*
X180559518Y-97693731D01*
X180593731Y-97659518D01*
X180633820Y-97632732D01*
X180678520Y-97614217D01*
X180738021Y-97602382D01*
X180762211Y-97600000D01*
X183237789Y-97600000D01*
X183261980Y-97602383D01*
G37*
G36*
X197361980Y-82202383D02*
G01*
X197421480Y-82214218D01*
X197466179Y-82232732D01*
X197506268Y-82259518D01*
X197540481Y-82293731D01*
X197567267Y-82333820D01*
X197585781Y-82378517D01*
X197597617Y-82438017D01*
X197600000Y-82462210D01*
X197600000Y-85537789D01*
X197597617Y-85561982D01*
X197585781Y-85621482D01*
X197567267Y-85666179D01*
X197540481Y-85706268D01*
X197506268Y-85740481D01*
X197466179Y-85767267D01*
X197421482Y-85785781D01*
X197361982Y-85797617D01*
X197337789Y-85800000D01*
X197062211Y-85800000D01*
X197038019Y-85797617D01*
X196978518Y-85785781D01*
X196933820Y-85767267D01*
X196893731Y-85740481D01*
X196859518Y-85706268D01*
X196832732Y-85666179D01*
X196814218Y-85621480D01*
X196802383Y-85561980D01*
X196800000Y-85537789D01*
X196800000Y-82462210D01*
X196802383Y-82438019D01*
X196814218Y-82378519D01*
X196832732Y-82333820D01*
X196859518Y-82293731D01*
X196893731Y-82259518D01*
X196933820Y-82232732D01*
X196978520Y-82214217D01*
X197038021Y-82202382D01*
X197062211Y-82200000D01*
X197337789Y-82200000D01*
X197361980Y-82202383D01*
G37*
M02*
