%TF.GenerationSoftware,KiCad,Pcbnew,10.0.1*%
%TF.CreationDate,2026-04-20T15:04:41+05:30*%
%TF.ProjectId,dhjkstkkyme,64686a6b-7374-46b6-9b79-6d652e6b6963,rev?*%
%TF.SameCoordinates,Original*%
%TF.FileFunction,Soldermask,Top*%
%TF.FilePolarity,Negative*%
%FSLAX46Y46*%
G04 Gerber Fmt 4.6, Leading zero omitted, Abs format (unit mm)*
G04 Created by KiCad (PCBNEW 10.0.1) date 2026-04-20 15:04:41*
%MOMM*%
%LPD*%
G01*
G04 APERTURE LIST*
G04 Aperture macros list*
%AMRoundRect*
0 Rectangle with rounded corners*
0 $1 Rounding radius*
0 $2 $3 $4 $5 $6 $7 $8 $9 X,Y pos of 4 corners*
0 Add a 4 corners polygon primitive as box body*
4,1,4,$2,$3,$4,$5,$6,$7,$8,$9,$2,$3,0*
0 Add four circle primitives for the rounded corners*
1,1,$1+$1,$2,$3*
1,1,$1+$1,$4,$5*
1,1,$1+$1,$6,$7*
1,1,$1+$1,$8,$9*
0 Add four rect primitives between the rounded corners*
20,1,$1+$1,$2,$3,$4,$5,0*
20,1,$1+$1,$4,$5,$6,$7,0*
20,1,$1+$1,$6,$7,$8,$9,0*
20,1,$1+$1,$8,$9,$2,$3,0*%
G04 Aperture macros list end*
%ADD10R,3.500000X5.100000*%
%ADD11RoundRect,0.237500X0.300000X0.237500X-0.300000X0.237500X-0.300000X-0.237500X0.300000X-0.237500X0*%
%ADD12RoundRect,0.237500X0.237500X-0.300000X0.237500X0.300000X-0.237500X0.300000X-0.237500X-0.300000X0*%
%ADD13R,2.150000X2.700000*%
%ADD14R,0.650000X1.850000*%
%ADD15RoundRect,0.150000X0.587500X0.150000X-0.587500X0.150000X-0.587500X-0.150000X0.587500X-0.150000X0*%
%ADD16R,1.100000X2.000000*%
%ADD17R,0.800000X0.800000*%
%ADD18RoundRect,0.250000X-0.625000X0.400000X-0.625000X-0.400000X0.625000X-0.400000X0.625000X0.400000X0*%
%ADD19C,1.500000*%
%ADD20RoundRect,0.250000X-0.412500X-1.100000X0.412500X-1.100000X0.412500X1.100000X-0.412500X1.100000X0*%
%ADD21RoundRect,0.250000X-0.450000X0.350000X-0.450000X-0.350000X0.450000X-0.350000X0.450000X0.350000X0*%
%ADD22RoundRect,0.237500X-0.300000X-0.237500X0.300000X-0.237500X0.300000X0.237500X-0.300000X0.237500X0*%
%ADD23RoundRect,0.250000X-0.350000X-0.450000X0.350000X-0.450000X0.350000X0.450000X-0.350000X0.450000X0*%
%ADD24RoundRect,0.250000X1.100000X-0.412500X1.100000X0.412500X-1.100000X0.412500X-1.100000X-0.412500X0*%
%ADD25C,1.400000*%
%ADD26RoundRect,0.250000X-1.100000X0.412500X-1.100000X-0.412500X1.100000X-0.412500X1.100000X0.412500X0*%
%ADD27R,3.140000X1.540000*%
%ADD28R,0.800000X2.500000*%
%ADD29R,0.800000X2.000000*%
%ADD30R,9.700000X3.700000*%
%ADD31R,8.700000X2.800000*%
%ADD32R,10.100000X1.500000*%
%ADD33R,6.800000X0.500000*%
%ADD34RoundRect,0.237500X-0.237500X0.300000X-0.237500X-0.300000X0.237500X-0.300000X0.237500X0.300000X0*%
%ADD35RoundRect,0.250000X0.362500X0.700000X-0.362500X0.700000X-0.362500X-0.700000X0.362500X-0.700000X0*%
%ADD36RoundRect,0.250000X0.650000X-0.412500X0.650000X0.412500X-0.650000X0.412500X-0.650000X-0.412500X0*%
%ADD37RoundRect,0.237500X0.250000X0.237500X-0.250000X0.237500X-0.250000X-0.237500X0.250000X-0.237500X0*%
%ADD38RoundRect,0.237500X-0.250000X-0.237500X0.250000X-0.237500X0.250000X0.237500X-0.250000X0.237500X0*%
%ADD39C,3.200000*%
%ADD40RoundRect,0.250000X0.412500X1.100000X-0.412500X1.100000X-0.412500X-1.100000X0.412500X-1.100000X0*%
%ADD41RoundRect,0.250000X0.337500X0.475000X-0.337500X0.475000X-0.337500X-0.475000X0.337500X-0.475000X0*%
%ADD42R,1.400000X1.600000*%
%ADD43R,3.000000X3.000000*%
%ADD44C,3.000000*%
%ADD45RoundRect,0.250000X0.412500X0.650000X-0.412500X0.650000X-0.412500X-0.650000X0.412500X-0.650000X0*%
%ADD46RoundRect,0.250000X0.350000X0.450000X-0.350000X0.450000X-0.350000X-0.450000X0.350000X-0.450000X0*%
%ADD47R,1.000000X2.300000*%
%ADD48RoundRect,0.237500X-0.237500X0.250000X-0.237500X-0.250000X0.237500X-0.250000X0.237500X0.250000X0*%
%ADD49RoundRect,0.250000X-2.226500X1.337500X-2.226500X-1.337500X2.226500X-1.337500X2.226500X1.337500X0*%
%ADD50RoundRect,0.062500X-0.062500X0.187500X-0.062500X-0.187500X0.062500X-0.187500X0.062500X0.187500X0*%
%ADD51R,1.600000X0.900000*%
%ADD52RoundRect,0.250000X-0.412500X-0.650000X0.412500X-0.650000X0.412500X0.650000X-0.412500X0.650000X0*%
%ADD53RoundRect,0.249999X1.425001X-0.450001X1.425001X0.450001X-1.425001X0.450001X-1.425001X-0.450001X0*%
%ADD54R,0.350000X0.650000*%
%ADD55R,1.700000X1.100000*%
%ADD56RoundRect,0.249999X-1.425001X0.450001X-1.425001X-0.450001X1.425001X-0.450001X1.425001X0.450001X0*%
%ADD57RoundRect,0.250000X-0.550000X0.550000X-0.550000X-0.550000X0.550000X-0.550000X0.550000X0.550000X0*%
%ADD58C,1.600000*%
%ADD59RoundRect,0.250000X0.450000X-0.350000X0.450000X0.350000X-0.450000X0.350000X-0.450000X-0.350000X0*%
%ADD60RoundRect,0.250000X-0.650000X0.412500X-0.650000X-0.412500X0.650000X-0.412500X0.650000X0.412500X0*%
%ADD61RoundRect,0.250000X0.625000X-0.400000X0.625000X0.400000X-0.625000X0.400000X-0.625000X-0.400000X0*%
%ADD62RoundRect,0.250000X0.650000X-0.325000X0.650000X0.325000X-0.650000X0.325000X-0.650000X-0.325000X0*%
%ADD63RoundRect,0.250000X0.550000X-0.550000X0.550000X0.550000X-0.550000X0.550000X-0.550000X-0.550000X0*%
%ADD64RoundRect,0.237500X0.237500X-0.250000X0.237500X0.250000X-0.237500X0.250000X-0.237500X-0.250000X0*%
%ADD65R,1.000000X1.000000*%
%ADD66O,1.000000X1.000000*%
%ADD67RoundRect,0.250000X-0.325000X-0.650000X0.325000X-0.650000X0.325000X0.650000X-0.325000X0.650000X0*%
%ADD68RoundRect,0.150000X-0.150000X0.875000X-0.150000X-0.875000X0.150000X-0.875000X0.150000X0.875000X0*%
%ADD69RoundRect,0.237500X-0.237500X0.287500X-0.237500X-0.287500X0.237500X-0.287500X0.237500X0.287500X0*%
%ADD70RoundRect,0.150000X0.150000X-0.875000X0.150000X0.875000X-0.150000X0.875000X-0.150000X-0.875000X0*%
%ADD71C,1.200000*%
%ADD72R,1.600000X1.400000*%
%ADD73RoundRect,0.250000X0.325000X0.650000X-0.325000X0.650000X-0.325000X-0.650000X0.325000X-0.650000X0*%
%ADD74R,5.400000X2.900000*%
%ADD75RoundRect,0.250000X0.400000X0.625000X-0.400000X0.625000X-0.400000X-0.625000X0.400000X-0.625000X0*%
%ADD76R,1.800000X2.000000*%
%ADD77RoundRect,0.250000X-0.650000X0.325000X-0.650000X-0.325000X0.650000X-0.325000X0.650000X0.325000X0*%
%ADD78RoundRect,0.150000X0.650000X0.150000X-0.650000X0.150000X-0.650000X-0.150000X0.650000X-0.150000X0*%
%ADD79R,2.410000X3.100000*%
%ADD80RoundRect,0.062500X-0.675000X-0.062500X0.675000X-0.062500X0.675000X0.062500X-0.675000X0.062500X0*%
%ADD81RoundRect,0.062500X-0.062500X-0.675000X0.062500X-0.675000X0.062500X0.675000X-0.062500X0.675000X0*%
G04 APERTURE END LIST*
D10*
%TO.C,R33*%
X277555000Y-133500000D03*
X273445000Y-133500000D03*
%TD*%
D11*
%TO.C,C63*%
X176000000Y-74900000D03*
X174275000Y-74900000D03*
%TD*%
D12*
%TO.C,C20*%
X269800000Y-108700000D03*
X269800000Y-106975000D03*
%TD*%
D13*
%TO.C,L9*%
X310900000Y-92800000D03*
X306100000Y-92800000D03*
%TD*%
D14*
%TO.C,AT4*%
X196940000Y-191500000D03*
X195670000Y-191500000D03*
X194400000Y-191500000D03*
X193130000Y-191500000D03*
X193130000Y-202150000D03*
X194400000Y-202150000D03*
X195670000Y-202150000D03*
X196940000Y-202150000D03*
%TD*%
D15*
%TO.C,U5*%
X107937500Y-211450000D03*
X107937500Y-209550000D03*
X106062500Y-210500000D03*
%TD*%
D16*
%TO.C,D9*%
X176000000Y-183850000D03*
D17*
X176000000Y-181950000D03*
%TD*%
D18*
%TO.C,R15*%
X176500000Y-90400000D03*
X176500000Y-93500000D03*
%TD*%
D19*
%TO.C,C50*%
X228000000Y-152000000D03*
X228000000Y-179500000D03*
%TD*%
D20*
%TO.C,C87*%
X172637500Y-172200000D03*
X175762500Y-172200000D03*
%TD*%
D21*
%TO.C,R48*%
X175800000Y-71100000D03*
X175800000Y-73100000D03*
%TD*%
D20*
%TO.C,C42*%
X121100684Y-89081188D03*
X124225684Y-89081188D03*
%TD*%
D22*
%TO.C,C45*%
X274637500Y-112350000D03*
X276362500Y-112350000D03*
%TD*%
D19*
%TO.C,C3*%
X251000000Y-152000000D03*
X251000000Y-179500000D03*
%TD*%
D23*
%TO.C,R20*%
X113357267Y-122500000D03*
X115357267Y-122500000D03*
%TD*%
D20*
%TO.C,C33*%
X310637500Y-65100000D03*
X313762500Y-65100000D03*
%TD*%
D22*
%TO.C,C25*%
X122000000Y-195600000D03*
X123725000Y-195600000D03*
%TD*%
D20*
%TO.C,C85*%
X172637500Y-165600000D03*
X175762500Y-165600000D03*
%TD*%
D24*
%TO.C,C34*%
X306200000Y-69262500D03*
X306200000Y-66137500D03*
%TD*%
D23*
%TO.C,R11*%
X109357267Y-122500000D03*
X111357267Y-122500000D03*
%TD*%
D25*
%TO.C,C64*%
X273000000Y-190310000D03*
X285500000Y-190310000D03*
%TD*%
D23*
%TO.C,R4*%
X105357267Y-122500000D03*
X107357267Y-122500000D03*
%TD*%
D12*
%TO.C,C79*%
X308700000Y-88900000D03*
X308700000Y-87175000D03*
%TD*%
D26*
%TO.C,C35*%
X117357267Y-147437500D03*
X117357267Y-150562500D03*
%TD*%
D27*
%TO.C,D1*%
X149000000Y-120927500D03*
X149000000Y-127577500D03*
%TD*%
D28*
%TO.C,Q1*%
X188400000Y-117700000D03*
X187200000Y-117700000D03*
D29*
X186000000Y-117450000D03*
X184800000Y-117450000D03*
X183600000Y-117450000D03*
X182400000Y-117450000D03*
X181200000Y-117450000D03*
X180000000Y-117450000D03*
D30*
X184200000Y-123600000D03*
D31*
X184200000Y-126850000D03*
D32*
X184200000Y-129000000D03*
D33*
X183000000Y-118701000D03*
%TD*%
D34*
%TO.C,R3*%
X203000000Y-113737500D03*
X203000000Y-115462500D03*
%TD*%
D35*
%TO.C,FB1*%
X305662500Y-115000000D03*
X302337500Y-115000000D03*
%TD*%
D22*
%TO.C,C40*%
X107357267Y-128000000D03*
X109082267Y-128000000D03*
%TD*%
%TO.C,C8*%
X176337500Y-207000000D03*
X178062500Y-207000000D03*
%TD*%
D36*
%TO.C,C2*%
X173400000Y-189400000D03*
X173400000Y-186275000D03*
%TD*%
D18*
%TO.C,R25*%
X167800000Y-95450000D03*
X167800000Y-98550000D03*
%TD*%
D29*
%TO.C,L7*%
X292500000Y-75300000D03*
X294500000Y-75300000D03*
%TD*%
D37*
%TO.C,R5*%
X179325000Y-100500000D03*
X177500000Y-100500000D03*
%TD*%
D20*
%TO.C,C43*%
X121100684Y-85581188D03*
X124225684Y-85581188D03*
%TD*%
D37*
%TO.C,R12*%
X172112500Y-71000000D03*
X170287500Y-71000000D03*
%TD*%
D38*
%TO.C,R6*%
X167287500Y-179100000D03*
X169112500Y-179100000D03*
%TD*%
D39*
%TO.C,REF\u002A\u002A*%
X120000000Y-160000000D03*
%TD*%
D34*
%TO.C,C80*%
X111400000Y-206137500D03*
X111400000Y-207862500D03*
%TD*%
%TO.C,C39*%
X107357267Y-133775000D03*
X107357267Y-135500000D03*
%TD*%
D39*
%TO.C,REF\u002A\u002A*%
X115000000Y-65000000D03*
%TD*%
D11*
%TO.C,C82*%
X102600000Y-194000000D03*
X100875000Y-194000000D03*
%TD*%
D40*
%TO.C,C83*%
X173062500Y-113400000D03*
X169937500Y-113400000D03*
%TD*%
D11*
%TO.C,C69*%
X289862500Y-97000000D03*
X288137500Y-97000000D03*
%TD*%
D41*
%TO.C,C76*%
X303737500Y-71400000D03*
X301662500Y-71400000D03*
%TD*%
D42*
%TO.C,S2*%
X92500000Y-207533000D03*
X92500000Y-200333000D03*
X89500000Y-207533000D03*
X89500000Y-200333000D03*
%TD*%
D43*
%TO.C,T1*%
X271740000Y-151380000D03*
D44*
X271740000Y-174240000D03*
X286980000Y-174240000D03*
X286980000Y-151380000D03*
%TD*%
D45*
%TO.C,C14*%
X166500000Y-192200000D03*
X163375000Y-192200000D03*
%TD*%
D46*
%TO.C,R30*%
X108600684Y-88081188D03*
X106600684Y-88081188D03*
%TD*%
D34*
%TO.C,R32*%
X276500000Y-113987500D03*
X276500000Y-115712500D03*
%TD*%
D20*
%TO.C,C44*%
X121100684Y-82081188D03*
X124225684Y-82081188D03*
%TD*%
D27*
%TO.C,D4*%
X197300000Y-159462500D03*
X197300000Y-152812500D03*
%TD*%
D39*
%TO.C,REF\u002A\u002A*%
X80000000Y-65000000D03*
%TD*%
D47*
%TO.C,PS4*%
X96713761Y-113135799D03*
X94173761Y-113135799D03*
X89093761Y-113135799D03*
X89093761Y-122535799D03*
X96713761Y-122535799D03*
%TD*%
D34*
%TO.C,C52*%
X198000000Y-106975000D03*
X198000000Y-108700000D03*
%TD*%
D48*
%TO.C,R29*%
X180100000Y-179075000D03*
X180100000Y-180900000D03*
%TD*%
D26*
%TO.C,C36*%
X113857267Y-147437500D03*
X113857267Y-150562500D03*
%TD*%
D18*
%TO.C,R16*%
X179000000Y-95450000D03*
X179000000Y-98550000D03*
%TD*%
D11*
%TO.C,C89*%
X195862500Y-188000000D03*
X194137500Y-188000000D03*
%TD*%
D47*
%TO.C,PS10*%
X96977267Y-73800000D03*
X94437267Y-73800000D03*
X89357267Y-73800000D03*
X89357267Y-83200000D03*
X96977267Y-83200000D03*
%TD*%
D12*
%TO.C,C28*%
X114200000Y-183700000D03*
X114200000Y-181975000D03*
%TD*%
D16*
%TO.C,D8*%
X170200000Y-95800000D03*
D17*
X170200000Y-97700000D03*
%TD*%
D39*
%TO.C,REF\u002A\u002A*%
X309000000Y-164000000D03*
%TD*%
D49*
%TO.C,L1*%
X113857267Y-134991500D03*
X113857267Y-144008500D03*
%TD*%
D50*
%TO.C,U4*%
X112850684Y-87568688D03*
X112350684Y-87568688D03*
X111850684Y-87568688D03*
X111350684Y-87568688D03*
X111350684Y-89468688D03*
X111850684Y-89468688D03*
X112350684Y-89468688D03*
X112850684Y-89468688D03*
D51*
X112100684Y-88518688D03*
%TD*%
D21*
%TO.C,R8*%
X177987500Y-71100000D03*
X177987500Y-73100000D03*
%TD*%
D52*
%TO.C,C62*%
X292037500Y-72000000D03*
X295162500Y-72000000D03*
%TD*%
D53*
%TO.C,R43*%
X170600000Y-126200000D03*
X170600000Y-120100000D03*
%TD*%
D54*
%TO.C,IC1*%
X310313500Y-69600000D03*
X310963500Y-69600000D03*
X311613500Y-69600000D03*
X311613500Y-67400000D03*
X310963500Y-67400000D03*
X310313500Y-67400000D03*
D55*
X310963500Y-68500000D03*
%TD*%
D56*
%TO.C,R42*%
X175250000Y-116600000D03*
X175250000Y-122700000D03*
%TD*%
D57*
%TO.C,J2*%
X107600684Y-81081188D03*
D58*
X107600684Y-84681188D03*
%TD*%
D54*
%TO.C,IC3*%
X310313500Y-89174000D03*
X310963500Y-89174000D03*
X311613500Y-89174000D03*
X311613500Y-86974000D03*
X310963500Y-86974000D03*
X310313500Y-86974000D03*
D55*
X310963500Y-88074000D03*
%TD*%
D59*
%TO.C,R10*%
X170200000Y-209000000D03*
X170200000Y-207000000D03*
%TD*%
D41*
%TO.C,C78*%
X303637500Y-91000000D03*
X301562500Y-91000000D03*
%TD*%
D37*
%TO.C,R26*%
X165825000Y-100000000D03*
X164000000Y-100000000D03*
%TD*%
D60*
%TO.C,C13*%
X172700000Y-90437500D03*
X172700000Y-93562500D03*
%TD*%
D12*
%TO.C,C26*%
X104450000Y-186350000D03*
X104450000Y-184625000D03*
%TD*%
D20*
%TO.C,C59*%
X310637500Y-84700000D03*
X313762500Y-84700000D03*
%TD*%
D11*
%TO.C,C5*%
X168300000Y-205200000D03*
X166575000Y-205200000D03*
%TD*%
D38*
%TO.C,R14*%
X175187500Y-209000000D03*
X177012500Y-209000000D03*
%TD*%
D40*
%TO.C,C84*%
X173062500Y-106500000D03*
X169937500Y-106500000D03*
%TD*%
D61*
%TO.C,R27*%
X176000000Y-189400000D03*
X176000000Y-186300000D03*
%TD*%
D11*
%TO.C,C31*%
X99862500Y-202000000D03*
X98137500Y-202000000D03*
%TD*%
D26*
%TO.C,C41*%
X122357267Y-128937500D03*
X122357267Y-132062500D03*
%TD*%
D12*
%TO.C,R2*%
X201000000Y-115462500D03*
X201000000Y-113737500D03*
%TD*%
D34*
%TO.C,C91*%
X199100000Y-202137500D03*
X199100000Y-203862500D03*
%TD*%
D20*
%TO.C,C88*%
X172637500Y-168900000D03*
X175762500Y-168900000D03*
%TD*%
D34*
%TO.C,C38*%
X111357267Y-129637500D03*
X111357267Y-131362500D03*
%TD*%
D62*
%TO.C,C17*%
X170200000Y-154375000D03*
X170200000Y-151425000D03*
%TD*%
D12*
%TO.C,R7*%
X274500000Y-115712500D03*
X274500000Y-113987500D03*
%TD*%
D62*
%TO.C,C19*%
X143500000Y-123475000D03*
X143500000Y-120525000D03*
%TD*%
D18*
%TO.C,R24*%
X170200000Y-90400000D03*
X170200000Y-93500000D03*
%TD*%
D34*
%TO.C,C90*%
X200700000Y-202137500D03*
X200700000Y-203862500D03*
%TD*%
D63*
%TO.C,J1*%
X122357267Y-126300000D03*
D58*
X122357267Y-122700000D03*
%TD*%
D22*
%TO.C,C6*%
X170037500Y-205200000D03*
X171762500Y-205200000D03*
%TD*%
D53*
%TO.C,R44*%
X171000000Y-162600000D03*
X171000000Y-156500000D03*
%TD*%
D61*
%TO.C,R18*%
X167300000Y-184100000D03*
X167300000Y-181000000D03*
%TD*%
D64*
%TO.C,R59*%
X96000000Y-201912500D03*
X96000000Y-200087500D03*
%TD*%
D65*
%TO.C,J10*%
X124000000Y-205100000D03*
D66*
X124000000Y-203830000D03*
X124000000Y-202560000D03*
X124000000Y-201290000D03*
X124000000Y-200020000D03*
%TD*%
D47*
%TO.C,PS3*%
X96667267Y-131300000D03*
X94127267Y-131300000D03*
X89047267Y-131300000D03*
X89047267Y-140700000D03*
X96667267Y-140700000D03*
%TD*%
D67*
%TO.C,C18*%
X174625000Y-161400000D03*
X177575000Y-161400000D03*
%TD*%
D34*
%TO.C,C55*%
X94380000Y-200137500D03*
X94380000Y-201862500D03*
%TD*%
D38*
%TO.C,R19*%
X176287500Y-205100000D03*
X178112500Y-205100000D03*
%TD*%
D34*
%TO.C,C81*%
X109800000Y-206137500D03*
X109800000Y-207862500D03*
%TD*%
D40*
%TO.C,C86*%
X173062500Y-109900000D03*
X169937500Y-109900000D03*
%TD*%
D45*
%TO.C,C11*%
X166500000Y-78200000D03*
X163375000Y-78200000D03*
%TD*%
D59*
%TO.C,R9*%
X168137500Y-209000000D03*
X168137500Y-207000000D03*
%TD*%
D26*
%TO.C,C37*%
X110357267Y-147437500D03*
X110357267Y-150562500D03*
%TD*%
D65*
%TO.C,J8*%
X274000000Y-73200000D03*
D66*
X275270000Y-73200000D03*
X276540000Y-73200000D03*
X277810000Y-73200000D03*
X279080000Y-73200000D03*
X280350000Y-73200000D03*
%TD*%
D65*
%TO.C,J9*%
X274000000Y-69900000D03*
D66*
X275270000Y-69900000D03*
X276540000Y-69900000D03*
X277810000Y-69900000D03*
X279080000Y-69900000D03*
%TD*%
D34*
%TO.C,C22*%
X198000000Y-97300000D03*
X198000000Y-99025000D03*
%TD*%
D11*
%TO.C,C70*%
X289862500Y-98600000D03*
X288137500Y-98600000D03*
%TD*%
D38*
%TO.C,R57*%
X100487500Y-189700000D03*
X102312500Y-189700000D03*
%TD*%
D34*
%TO.C,C32*%
X120150000Y-203687500D03*
X120150000Y-205412500D03*
%TD*%
D47*
%TO.C,PS11*%
X96977267Y-92300000D03*
X94437267Y-92300000D03*
X89357267Y-92300000D03*
X89357267Y-101700000D03*
X96977267Y-101700000D03*
%TD*%
D68*
%TO.C,U2*%
X177445000Y-78350000D03*
X176175000Y-78350000D03*
X174905000Y-78350000D03*
X173635000Y-78350000D03*
X172365000Y-78350000D03*
X171095000Y-78350000D03*
X169825000Y-78350000D03*
X168555000Y-78350000D03*
X168555000Y-87650000D03*
X169825000Y-87650000D03*
X171095000Y-87650000D03*
X172365000Y-87650000D03*
X173635000Y-87650000D03*
X174905000Y-87650000D03*
X176175000Y-87650000D03*
X177445000Y-87650000D03*
%TD*%
D69*
%TO.C,FB5*%
X289900000Y-73025000D03*
X289900000Y-74775000D03*
%TD*%
D28*
%TO.C,Q3*%
X157800000Y-162050000D03*
X159000000Y-162050000D03*
D29*
X160200000Y-162300000D03*
X161400000Y-162300000D03*
X162600000Y-162300000D03*
X163800000Y-162300000D03*
X165000000Y-162300000D03*
X166200000Y-162300000D03*
D30*
X162000000Y-156150000D03*
D31*
X162000000Y-152900000D03*
D32*
X162000000Y-150750000D03*
D33*
X163200000Y-161049000D03*
%TD*%
D52*
%TO.C,C1*%
X179537500Y-87800000D03*
X182662500Y-87800000D03*
%TD*%
D13*
%TO.C,L3*%
X299400000Y-115000000D03*
X294600000Y-115000000D03*
%TD*%
D11*
%TO.C,C7*%
X170362500Y-73500000D03*
X168637500Y-73500000D03*
%TD*%
D37*
%TO.C,R13*%
X170412500Y-75500000D03*
X168587500Y-75500000D03*
%TD*%
D34*
%TO.C,C30*%
X113000000Y-206137500D03*
X113000000Y-207862500D03*
%TD*%
D13*
%TO.C,L8*%
X310800000Y-73400000D03*
X306000000Y-73400000D03*
%TD*%
D70*
%TO.C,U1*%
X168555000Y-201650000D03*
X169825000Y-201650000D03*
X171095000Y-201650000D03*
X172365000Y-201650000D03*
X173635000Y-201650000D03*
X174905000Y-201650000D03*
X176175000Y-201650000D03*
X177445000Y-201650000D03*
X177445000Y-192350000D03*
X176175000Y-192350000D03*
X174905000Y-192350000D03*
X173635000Y-192350000D03*
X172365000Y-192350000D03*
X171095000Y-192350000D03*
X169825000Y-192350000D03*
X168555000Y-192350000D03*
%TD*%
D71*
%TO.C,C66*%
X265625000Y-193660000D03*
X265625000Y-186160000D03*
%TD*%
D64*
%TO.C,R60*%
X100250000Y-183612500D03*
X100250000Y-181787500D03*
%TD*%
D71*
%TO.C,C65*%
X291625000Y-186960000D03*
X291625000Y-194460000D03*
%TD*%
D24*
%TO.C,C57*%
X306100000Y-88800000D03*
X306100000Y-85675000D03*
%TD*%
D14*
%TO.C,AT1*%
X200130000Y-108300000D03*
X201400000Y-108300000D03*
X202670000Y-108300000D03*
X203940000Y-108300000D03*
X203940000Y-97650000D03*
X202670000Y-97650000D03*
X201400000Y-97650000D03*
X200130000Y-97650000D03*
%TD*%
D39*
%TO.C,REF\u002A\u002A*%
X153000000Y-65000000D03*
%TD*%
%TO.C,REF\u002A\u002A*%
X146000000Y-201000000D03*
%TD*%
D23*
%TO.C,R22*%
X117357267Y-122500000D03*
X119357267Y-122500000D03*
%TD*%
D72*
%TO.C,S1*%
X91150000Y-183500000D03*
X98350000Y-183500000D03*
X91150000Y-180500000D03*
X98350000Y-180500000D03*
%TD*%
D61*
%TO.C,R28*%
X178100000Y-184150000D03*
X178100000Y-181050000D03*
%TD*%
D52*
%TO.C,C15*%
X179500000Y-201800000D03*
X182625000Y-201800000D03*
%TD*%
D22*
%TO.C,C27*%
X123037500Y-189300000D03*
X124762500Y-189300000D03*
%TD*%
D65*
%TO.C,J7*%
X127400000Y-205100000D03*
D66*
X127400000Y-203830000D03*
X127400000Y-202560000D03*
X127400000Y-201290000D03*
X127400000Y-200020000D03*
X127400000Y-198750000D03*
X127400000Y-197480000D03*
X127400000Y-196210000D03*
X127400000Y-194940000D03*
X127400000Y-193670000D03*
%TD*%
D12*
%TO.C,R62*%
X194000000Y-185862500D03*
X194000000Y-184137500D03*
%TD*%
D46*
%TO.C,R21*%
X109357267Y-131500000D03*
X107357267Y-131500000D03*
%TD*%
D12*
%TO.C,C77*%
X308800000Y-69462500D03*
X308800000Y-67737500D03*
%TD*%
D46*
%TO.C,R31*%
X108600684Y-90081188D03*
X106600684Y-90081188D03*
%TD*%
D22*
%TO.C,C4*%
X177800000Y-74900000D03*
X179525000Y-74900000D03*
%TD*%
D18*
%TO.C,R47*%
X202700000Y-151987500D03*
X202700000Y-155087500D03*
%TD*%
D16*
%TO.C,D3*%
X169400000Y-183850000D03*
D17*
X169400000Y-181950000D03*
%TD*%
D22*
%TO.C,C24*%
X201137500Y-112100000D03*
X202862500Y-112100000D03*
%TD*%
D61*
%TO.C,R46*%
X143540000Y-128472500D03*
X143540000Y-125372500D03*
%TD*%
D64*
%TO.C,R58*%
X108200000Y-207912500D03*
X108200000Y-206087500D03*
%TD*%
D28*
%TO.C,Q5*%
X188400000Y-151950000D03*
X187200000Y-151950000D03*
D29*
X186000000Y-151700000D03*
X184800000Y-151700000D03*
X183600000Y-151700000D03*
X182400000Y-151700000D03*
X181200000Y-151700000D03*
X180000000Y-151700000D03*
D30*
X184200000Y-157850000D03*
D31*
X184200000Y-161100000D03*
D32*
X184200000Y-163250000D03*
D33*
X183000000Y-152951000D03*
%TD*%
D73*
%TO.C,C16*%
X171075000Y-117900000D03*
X168125000Y-117900000D03*
%TD*%
D47*
%TO.C,PS2*%
X96713761Y-149347813D03*
X94173761Y-149347813D03*
X89093761Y-149347813D03*
X89093761Y-158747813D03*
X96713761Y-158747813D03*
%TD*%
D11*
%TO.C,C29*%
X102600000Y-192400000D03*
X100875000Y-192400000D03*
%TD*%
D16*
%TO.C,D2*%
X176500000Y-95800000D03*
D17*
X176500000Y-97700000D03*
%TD*%
D14*
%TO.C,AT2*%
X273730000Y-108350000D03*
X275000000Y-108350000D03*
X276270000Y-108350000D03*
X277540000Y-108350000D03*
X277540000Y-97700000D03*
X276270000Y-97700000D03*
X275000000Y-97700000D03*
X273730000Y-97700000D03*
%TD*%
D74*
%TO.C,L2*%
X113850684Y-92906188D03*
X113850684Y-102606188D03*
%TD*%
D75*
%TO.C,R23*%
X118650684Y-89081188D03*
X115550684Y-89081188D03*
%TD*%
D28*
%TO.C,Q4*%
X157600000Y-128050000D03*
X158800000Y-128050000D03*
D29*
X160000000Y-128300000D03*
X161200000Y-128300000D03*
X162400000Y-128300000D03*
X163600000Y-128300000D03*
X164800000Y-128300000D03*
X166000000Y-128300000D03*
D30*
X161800000Y-122150000D03*
D31*
X161800000Y-118900000D03*
D32*
X161800000Y-116750000D03*
D33*
X163000000Y-127049000D03*
%TD*%
D76*
%TO.C,Y1*%
X92420000Y-193500000D03*
X97500000Y-193500000D03*
X97500000Y-189500000D03*
X92420000Y-189500000D03*
%TD*%
D56*
%TO.C,R45*%
X175200000Y-153000000D03*
X175200000Y-159100000D03*
%TD*%
D61*
%TO.C,R17*%
X169400000Y-189400000D03*
X169400000Y-186300000D03*
%TD*%
D77*
%TO.C,C51*%
X202700000Y-156950000D03*
X202700000Y-159900000D03*
%TD*%
D10*
%TO.C,R1*%
X199945000Y-125000000D03*
X204055000Y-125000000D03*
%TD*%
D52*
%TO.C,C54*%
X93237500Y-196200000D03*
X96362500Y-196200000D03*
%TD*%
D35*
%TO.C,FB6*%
X316662500Y-75100000D03*
X313337500Y-75100000D03*
%TD*%
D78*
%TO.C,U3*%
X119052267Y-130905000D03*
X119052267Y-129635000D03*
X119052267Y-128365000D03*
X119052267Y-127095000D03*
X113752267Y-127095000D03*
X113752267Y-128365000D03*
X113752267Y-129635000D03*
X113752267Y-130905000D03*
D79*
X116402267Y-129000000D03*
%TD*%
D80*
%TO.C,U6*%
X104637500Y-188800000D03*
X104637500Y-189200000D03*
X104637500Y-189600000D03*
X104637500Y-190000000D03*
X104637500Y-190400000D03*
X104637500Y-190800000D03*
X104637500Y-191200000D03*
X104637500Y-191600000D03*
X104637500Y-192000000D03*
X104637500Y-192400000D03*
X104637500Y-192800000D03*
X104637500Y-193200000D03*
X104637500Y-193600000D03*
X104637500Y-194000000D03*
X104637500Y-194400000D03*
X104637500Y-194800000D03*
X104637500Y-195200000D03*
X104637500Y-195600000D03*
X104637500Y-196000000D03*
X104637500Y-196400000D03*
X104637500Y-196800000D03*
X104637500Y-197200000D03*
X104637500Y-197600000D03*
X104637500Y-198000000D03*
X104637500Y-198400000D03*
X104637500Y-198800000D03*
X104637500Y-199200000D03*
X104637500Y-199600000D03*
X104637500Y-200000000D03*
X104637500Y-200400000D03*
X104637500Y-200800000D03*
X104637500Y-201200000D03*
D81*
X106100000Y-202662500D03*
X106500000Y-202662500D03*
X106900000Y-202662500D03*
X107300000Y-202662500D03*
X107700000Y-202662500D03*
X108100000Y-202662500D03*
X108500000Y-202662500D03*
X108900000Y-202662500D03*
X109300000Y-202662500D03*
X109700000Y-202662500D03*
X110100000Y-202662500D03*
X110500000Y-202662500D03*
X110900000Y-202662500D03*
X111300000Y-202662500D03*
X111700000Y-202662500D03*
X112100000Y-202662500D03*
X112500000Y-202662500D03*
X112900000Y-202662500D03*
X113300000Y-202662500D03*
X113700000Y-202662500D03*
X114100000Y-202662500D03*
X114500000Y-202662500D03*
X114900000Y-202662500D03*
X115300000Y-202662500D03*
X115700000Y-202662500D03*
X116100000Y-202662500D03*
X116500000Y-202662500D03*
X116900000Y-202662500D03*
X117300000Y-202662500D03*
X117700000Y-202662500D03*
X118100000Y-202662500D03*
X118500000Y-202662500D03*
D80*
X119962500Y-201200000D03*
X119962500Y-200800000D03*
X119962500Y-200400000D03*
X119962500Y-200000000D03*
X119962500Y-199600000D03*
X119962500Y-199200000D03*
X119962500Y-198800000D03*
X119962500Y-198400000D03*
X119962500Y-198000000D03*
X119962500Y-197600000D03*
X119962500Y-197200000D03*
X119962500Y-196800000D03*
X119962500Y-196400000D03*
X119962500Y-196000000D03*
X119962500Y-195600000D03*
X119962500Y-195200000D03*
X119962500Y-194800000D03*
X119962500Y-194400000D03*
X119962500Y-194000000D03*
X119962500Y-193600000D03*
X119962500Y-193200000D03*
X119962500Y-192800000D03*
X119962500Y-192400000D03*
X119962500Y-192000000D03*
X119962500Y-191600000D03*
X119962500Y-191200000D03*
X119962500Y-190800000D03*
X119962500Y-190400000D03*
X119962500Y-190000000D03*
X119962500Y-189600000D03*
X119962500Y-189200000D03*
X119962500Y-188800000D03*
D81*
X118500000Y-187337500D03*
X118100000Y-187337500D03*
X117700000Y-187337500D03*
X117300000Y-187337500D03*
X116900000Y-187337500D03*
X116500000Y-187337500D03*
X116100000Y-187337500D03*
X115700000Y-187337500D03*
X115300000Y-187337500D03*
X114900000Y-187337500D03*
X114500000Y-187337500D03*
X114100000Y-187337500D03*
X113700000Y-187337500D03*
X113300000Y-187337500D03*
X112900000Y-187337500D03*
X112500000Y-187337500D03*
X112100000Y-187337500D03*
X111700000Y-187337500D03*
X111300000Y-187337500D03*
X110900000Y-187337500D03*
X110500000Y-187337500D03*
X110100000Y-187337500D03*
X109700000Y-187337500D03*
X109300000Y-187337500D03*
X108900000Y-187337500D03*
X108500000Y-187337500D03*
X108100000Y-187337500D03*
X107700000Y-187337500D03*
X107300000Y-187337500D03*
X106900000Y-187337500D03*
X106500000Y-187337500D03*
X106100000Y-187337500D03*
%TD*%
D34*
%TO.C,R63*%
X196000000Y-184137500D03*
X196000000Y-185862500D03*
%TD*%
D35*
%TO.C,FB7*%
X316662500Y-94700000D03*
X313337500Y-94700000D03*
%TD*%
D24*
%TO.C,C68*%
X112100684Y-85581188D03*
X112100684Y-82456188D03*
%TD*%
D77*
%TO.C,C9*%
X176000000Y-124625000D03*
X176000000Y-127575000D03*
%TD*%
G36*
X230003471Y-203000195D02*
G01*
X230328940Y-203018472D01*
X230342759Y-203020029D01*
X230660695Y-203074049D01*
X230674252Y-203077143D01*
X230984148Y-203166423D01*
X230997272Y-203171016D01*
X231295215Y-203294427D01*
X231307744Y-203300460D01*
X231590006Y-203456461D01*
X231601780Y-203463860D01*
X231864783Y-203650471D01*
X231875655Y-203659140D01*
X232116127Y-203874039D01*
X232125960Y-203883872D01*
X232340859Y-204124344D01*
X232349528Y-204135216D01*
X232536139Y-204398219D01*
X232543538Y-204409993D01*
X232699539Y-204692255D01*
X232705572Y-204704784D01*
X232828983Y-205002727D01*
X232833576Y-205015851D01*
X232922856Y-205325747D01*
X232925950Y-205339304D01*
X232979970Y-205657240D01*
X232981527Y-205671058D01*
X232999805Y-205996527D01*
X233000000Y-206003480D01*
X233000000Y-213996519D01*
X232999805Y-214003472D01*
X232981527Y-214328941D01*
X232979970Y-214342759D01*
X232925950Y-214660695D01*
X232922856Y-214674252D01*
X232833576Y-214984148D01*
X232828983Y-214997272D01*
X232705572Y-215295215D01*
X232699539Y-215307744D01*
X232543538Y-215590006D01*
X232536139Y-215601780D01*
X232349528Y-215864783D01*
X232340859Y-215875655D01*
X232125960Y-216116127D01*
X232116127Y-216125960D01*
X231875655Y-216340859D01*
X231864783Y-216349528D01*
X231601780Y-216536139D01*
X231590006Y-216543538D01*
X231307744Y-216699539D01*
X231295215Y-216705572D01*
X230997272Y-216828983D01*
X230984148Y-216833576D01*
X230674252Y-216922856D01*
X230660695Y-216925950D01*
X230342759Y-216979970D01*
X230328941Y-216981527D01*
X230003472Y-216999805D01*
X229996519Y-217000000D01*
X220003481Y-217000000D01*
X219996528Y-216999805D01*
X219671058Y-216981527D01*
X219657240Y-216979970D01*
X219339304Y-216925950D01*
X219325747Y-216922856D01*
X219015851Y-216833576D01*
X219002727Y-216828983D01*
X218704784Y-216705572D01*
X218692255Y-216699539D01*
X218409993Y-216543538D01*
X218398219Y-216536139D01*
X218135216Y-216349528D01*
X218124344Y-216340859D01*
X217883872Y-216125960D01*
X217874039Y-216116127D01*
X217659140Y-215875655D01*
X217650471Y-215864783D01*
X217463860Y-215601780D01*
X217456461Y-215590006D01*
X217300460Y-215307744D01*
X217294427Y-215295215D01*
X217171016Y-214997272D01*
X217166423Y-214984148D01*
X217077143Y-214674252D01*
X217074049Y-214660695D01*
X217020029Y-214342759D01*
X217018472Y-214328940D01*
X217000195Y-214003471D01*
X217000000Y-213996519D01*
X217000000Y-206003480D01*
X217000195Y-205996528D01*
X217018472Y-205671059D01*
X217020029Y-205657240D01*
X217074049Y-205339304D01*
X217077143Y-205325747D01*
X217166423Y-205015851D01*
X217171016Y-205002727D01*
X217294427Y-204704784D01*
X217300460Y-204692255D01*
X217456461Y-204409993D01*
X217463860Y-204398219D01*
X217650471Y-204135216D01*
X217659140Y-204124344D01*
X217874039Y-203883872D01*
X217883872Y-203874039D01*
X218124344Y-203659140D01*
X218135216Y-203650471D01*
X218398219Y-203463860D01*
X218409993Y-203456461D01*
X218692255Y-203300460D01*
X218704784Y-203294427D01*
X219002727Y-203171016D01*
X219015851Y-203166423D01*
X219325747Y-203077143D01*
X219339304Y-203074049D01*
X219657240Y-203020029D01*
X219671059Y-203018472D01*
X219996529Y-203000195D01*
X220003481Y-203000000D01*
X229996519Y-203000000D01*
X230003471Y-203000195D01*
G37*
G36*
X82400306Y-91019685D02*
G01*
X82446061Y-91072489D01*
X82457267Y-91124000D01*
X82457267Y-93376000D01*
X82437582Y-93443039D01*
X82384778Y-93488794D01*
X82333267Y-93500000D01*
X80081267Y-93500000D01*
X80014228Y-93480315D01*
X79968473Y-93427511D01*
X79957267Y-93376000D01*
X79957267Y-91124000D01*
X79976952Y-91056961D01*
X80029756Y-91011206D01*
X80081267Y-91000000D01*
X82333267Y-91000000D01*
X82400306Y-91019685D01*
G37*
G36*
X200361980Y-107302383D02*
G01*
X200421480Y-107314218D01*
X200466179Y-107332732D01*
X200506268Y-107359518D01*
X200540481Y-107393731D01*
X200567267Y-107433820D01*
X200585781Y-107478517D01*
X200597617Y-107538017D01*
X200600000Y-107562210D01*
X200600000Y-109337789D01*
X200597617Y-109361982D01*
X200585781Y-109421482D01*
X200567267Y-109466179D01*
X200540481Y-109506268D01*
X200506268Y-109540481D01*
X200466179Y-109567267D01*
X200421482Y-109585781D01*
X200361982Y-109597617D01*
X200337789Y-109600000D01*
X199162211Y-109600000D01*
X199138019Y-109597617D01*
X199078518Y-109585781D01*
X199033820Y-109567267D01*
X198993731Y-109540481D01*
X198959518Y-109506268D01*
X198932732Y-109466179D01*
X198914218Y-109421480D01*
X198902383Y-109361980D01*
X198900000Y-109337789D01*
X198900000Y-107562210D01*
X198902383Y-107538019D01*
X198914218Y-107478519D01*
X198932732Y-107433820D01*
X198959518Y-107393731D01*
X198993731Y-107359518D01*
X199033820Y-107332732D01*
X199078520Y-107314217D01*
X199138021Y-107302382D01*
X199162211Y-107300000D01*
X200337789Y-107300000D01*
X200361980Y-107302383D01*
G37*
G36*
X82400306Y-111938281D02*
G01*
X82446061Y-111991085D01*
X82457267Y-112042596D01*
X82457267Y-114294596D01*
X82437582Y-114361635D01*
X82384778Y-114407390D01*
X82333267Y-114418596D01*
X80081267Y-114418596D01*
X80014228Y-114398911D01*
X79968473Y-114346107D01*
X79957267Y-114294596D01*
X79957267Y-112042596D01*
X79976952Y-111975557D01*
X80029756Y-111929802D01*
X80081267Y-111918596D01*
X82333267Y-111918596D01*
X82400306Y-111938281D01*
G37*
G36*
X273961980Y-107302383D02*
G01*
X274021480Y-107314218D01*
X274066179Y-107332732D01*
X274106268Y-107359518D01*
X274140481Y-107393731D01*
X274167267Y-107433820D01*
X274185781Y-107478517D01*
X274197617Y-107538017D01*
X274200000Y-107562210D01*
X274200000Y-110637789D01*
X274197617Y-110661982D01*
X274185781Y-110721482D01*
X274167267Y-110766179D01*
X274140481Y-110806268D01*
X274106268Y-110840481D01*
X274066179Y-110867267D01*
X274021482Y-110885781D01*
X273961982Y-110897617D01*
X273937789Y-110900000D01*
X272762211Y-110900000D01*
X272738019Y-110897617D01*
X272678518Y-110885781D01*
X272633820Y-110867267D01*
X272593731Y-110840481D01*
X272559518Y-110806268D01*
X272532732Y-110766179D01*
X272514218Y-110721480D01*
X272502383Y-110661980D01*
X272500000Y-110637789D01*
X272500000Y-107562210D01*
X272502383Y-107538019D01*
X272514218Y-107478519D01*
X272532732Y-107433820D01*
X272559518Y-107393731D01*
X272593731Y-107359518D01*
X272633820Y-107332732D01*
X272678520Y-107314217D01*
X272738021Y-107302382D01*
X272762211Y-107300000D01*
X273937789Y-107300000D01*
X273961980Y-107302383D01*
G37*
G36*
X289908059Y-67501061D02*
G01*
X290013223Y-67514906D01*
X290044491Y-67523284D01*
X290134918Y-67560740D01*
X290162951Y-67576925D01*
X290240601Y-67636508D01*
X290263491Y-67659398D01*
X290323074Y-67737048D01*
X290339259Y-67765081D01*
X290376715Y-67855508D01*
X290385093Y-67886775D01*
X290398939Y-67991939D01*
X290400000Y-68008125D01*
X290400000Y-70591874D01*
X290398939Y-70608060D01*
X290385093Y-70713224D01*
X290376715Y-70744491D01*
X290339259Y-70834918D01*
X290323074Y-70862951D01*
X290263491Y-70940601D01*
X290240601Y-70963491D01*
X290162951Y-71023074D01*
X290134918Y-71039259D01*
X290044491Y-71076715D01*
X290013224Y-71085093D01*
X289908060Y-71098939D01*
X289891874Y-71100000D01*
X287608126Y-71100000D01*
X287591940Y-71098939D01*
X287486775Y-71085093D01*
X287455508Y-71076715D01*
X287365081Y-71039259D01*
X287337048Y-71023074D01*
X287259398Y-70963491D01*
X287236508Y-70940601D01*
X287176925Y-70862951D01*
X287160740Y-70834918D01*
X287123284Y-70744491D01*
X287114906Y-70713223D01*
X287101061Y-70608059D01*
X287100000Y-70591874D01*
X287100000Y-68008125D01*
X287101061Y-67991940D01*
X287114906Y-67886776D01*
X287123284Y-67855508D01*
X287160740Y-67765081D01*
X287176925Y-67737048D01*
X287236508Y-67659398D01*
X287259398Y-67636508D01*
X287337048Y-67576925D01*
X287365081Y-67560740D01*
X287455508Y-67523284D01*
X287486776Y-67514906D01*
X287591941Y-67501061D01*
X287608126Y-67500000D01*
X289891874Y-67500000D01*
X289908059Y-67501061D01*
G37*
G36*
X194561980Y-201102383D02*
G01*
X194621480Y-201114218D01*
X194666179Y-201132732D01*
X194706268Y-201159518D01*
X194740481Y-201193731D01*
X194767267Y-201233820D01*
X194785781Y-201278517D01*
X194797617Y-201338017D01*
X194800000Y-201362210D01*
X194800000Y-204437789D01*
X194797617Y-204461982D01*
X194785781Y-204521482D01*
X194767267Y-204566179D01*
X194740481Y-204606268D01*
X194706268Y-204640481D01*
X194666179Y-204667267D01*
X194621482Y-204685781D01*
X194561982Y-204697617D01*
X194537789Y-204700000D01*
X194262211Y-204700000D01*
X194238019Y-204697617D01*
X194178518Y-204685781D01*
X194133820Y-204667267D01*
X194093731Y-204640481D01*
X194059518Y-204606268D01*
X194032732Y-204566179D01*
X194014218Y-204521480D01*
X194002383Y-204461980D01*
X194000000Y-204437789D01*
X194000000Y-201362210D01*
X194002383Y-201338019D01*
X194014218Y-201278519D01*
X194032732Y-201233820D01*
X194059518Y-201193731D01*
X194093731Y-201159518D01*
X194133820Y-201132732D01*
X194178520Y-201114217D01*
X194238021Y-201102382D01*
X194262211Y-201100000D01*
X194537789Y-201100000D01*
X194561980Y-201102383D01*
G37*
G36*
X197961980Y-188902383D02*
G01*
X198021480Y-188914218D01*
X198066179Y-188932732D01*
X198106268Y-188959518D01*
X198140481Y-188993731D01*
X198167267Y-189033820D01*
X198185781Y-189078517D01*
X198197617Y-189138017D01*
X198200000Y-189162210D01*
X198200000Y-192237789D01*
X198197617Y-192261982D01*
X198185781Y-192321482D01*
X198167267Y-192366179D01*
X198140481Y-192406268D01*
X198106268Y-192440481D01*
X198066179Y-192467267D01*
X198021482Y-192485781D01*
X197961982Y-192497617D01*
X197937789Y-192500000D01*
X196762211Y-192500000D01*
X196738019Y-192497617D01*
X196678518Y-192485781D01*
X196633820Y-192467267D01*
X196593731Y-192440481D01*
X196559518Y-192406268D01*
X196532732Y-192366179D01*
X196514218Y-192321480D01*
X196502383Y-192261980D01*
X196500000Y-192237789D01*
X196500000Y-189162210D01*
X196502383Y-189138019D01*
X196514218Y-189078519D01*
X196532732Y-189033820D01*
X196559518Y-188993731D01*
X196593731Y-188959518D01*
X196633820Y-188932732D01*
X196678520Y-188914217D01*
X196738021Y-188902382D01*
X196762211Y-188900000D01*
X197937789Y-188900000D01*
X197961980Y-188902383D01*
G37*
G36*
X127600306Y-139219685D02*
G01*
X127646061Y-139272489D01*
X127657267Y-139324000D01*
X127657267Y-142676000D01*
X127637582Y-142743039D01*
X127584778Y-142788794D01*
X127533267Y-142800000D01*
X124181267Y-142800000D01*
X124114228Y-142780315D01*
X124068473Y-142727511D01*
X124057267Y-142676000D01*
X124057267Y-139324000D01*
X124076952Y-139256961D01*
X124129756Y-139211206D01*
X124181267Y-139200000D01*
X127533267Y-139200000D01*
X127600306Y-139219685D01*
G37*
G36*
X319751110Y-68500221D02*
G01*
X319843426Y-68518583D01*
X319847572Y-68520300D01*
X319924874Y-68571952D01*
X319928047Y-68575125D01*
X319979699Y-68652427D01*
X319981416Y-68656572D01*
X319999779Y-68748888D01*
X320000000Y-68751132D01*
X320000000Y-72248867D01*
X319999779Y-72251111D01*
X319981416Y-72343427D01*
X319979699Y-72347572D01*
X319928047Y-72424874D01*
X319924874Y-72428047D01*
X319847572Y-72479699D01*
X319843427Y-72481416D01*
X319751111Y-72499779D01*
X319748867Y-72500000D01*
X316251133Y-72500000D01*
X316248889Y-72499779D01*
X316156572Y-72481416D01*
X316152427Y-72479699D01*
X316075125Y-72428047D01*
X316071952Y-72424874D01*
X316020300Y-72347572D01*
X316018583Y-72343426D01*
X316000221Y-72251110D01*
X316000000Y-72248867D01*
X316000000Y-68751132D01*
X316000221Y-68748889D01*
X316018583Y-68656573D01*
X316020300Y-68652427D01*
X316071952Y-68575125D01*
X316075125Y-68571952D01*
X316152427Y-68520300D01*
X316156573Y-68518583D01*
X316248890Y-68500221D01*
X316251133Y-68500000D01*
X319748867Y-68500000D01*
X319751110Y-68500221D01*
G37*
G36*
X171261980Y-211002383D02*
G01*
X171321480Y-211014218D01*
X171366179Y-211032732D01*
X171406268Y-211059518D01*
X171440481Y-211093731D01*
X171467267Y-211133820D01*
X171485781Y-211178517D01*
X171497617Y-211238017D01*
X171500000Y-211262210D01*
X171500000Y-212737789D01*
X171497617Y-212761982D01*
X171485781Y-212821482D01*
X171467267Y-212866179D01*
X171440481Y-212906268D01*
X171406268Y-212940481D01*
X171366179Y-212967267D01*
X171321482Y-212985781D01*
X171261982Y-212997617D01*
X171237789Y-213000000D01*
X169762211Y-213000000D01*
X169738019Y-212997617D01*
X169678518Y-212985781D01*
X169633820Y-212967267D01*
X169593731Y-212940481D01*
X169559518Y-212906268D01*
X169532732Y-212866179D01*
X169514218Y-212821480D01*
X169502383Y-212761980D01*
X169500000Y-212737789D01*
X169500000Y-211262210D01*
X169502383Y-211238019D01*
X169514218Y-211178519D01*
X169532732Y-211133820D01*
X169559518Y-211093731D01*
X169593731Y-211059518D01*
X169633820Y-211032732D01*
X169678520Y-211014217D01*
X169738021Y-211002382D01*
X169762211Y-211000000D01*
X171237789Y-211000000D01*
X171261980Y-211002383D01*
G37*
G36*
X128761980Y-191102383D02*
G01*
X128821480Y-191114218D01*
X128866179Y-191132732D01*
X128906268Y-191159518D01*
X128940481Y-191193731D01*
X128967267Y-191233820D01*
X128985781Y-191278517D01*
X128997617Y-191338017D01*
X129000000Y-191362210D01*
X129000000Y-191837789D01*
X128997617Y-191861982D01*
X128985781Y-191921482D01*
X128967267Y-191966179D01*
X128940481Y-192006268D01*
X128906268Y-192040481D01*
X128866179Y-192067267D01*
X128821482Y-192085781D01*
X128761982Y-192097617D01*
X128737789Y-192100000D01*
X126262211Y-192100000D01*
X126238019Y-192097617D01*
X126178518Y-192085781D01*
X126133820Y-192067267D01*
X126093731Y-192040481D01*
X126059518Y-192006268D01*
X126032732Y-191966179D01*
X126014218Y-191921480D01*
X126002383Y-191861980D01*
X126000000Y-191837789D01*
X126000000Y-191362210D01*
X126002383Y-191338019D01*
X126014218Y-191278519D01*
X126032732Y-191233820D01*
X126059518Y-191193731D01*
X126093731Y-191159518D01*
X126133820Y-191132732D01*
X126178520Y-191114217D01*
X126238021Y-191102382D01*
X126262211Y-191100000D01*
X128737789Y-191100000D01*
X128761980Y-191102383D01*
G37*
G36*
X293003471Y-203000195D02*
G01*
X293328940Y-203018472D01*
X293342759Y-203020029D01*
X293660695Y-203074049D01*
X293674252Y-203077143D01*
X293984148Y-203166423D01*
X293997272Y-203171016D01*
X294295215Y-203294427D01*
X294307744Y-203300460D01*
X294590006Y-203456461D01*
X294601780Y-203463860D01*
X294864783Y-203650471D01*
X294875655Y-203659140D01*
X295116127Y-203874039D01*
X295125960Y-203883872D01*
X295340859Y-204124344D01*
X295349528Y-204135216D01*
X295536139Y-204398219D01*
X295543538Y-204409993D01*
X295699539Y-204692255D01*
X295705572Y-204704784D01*
X295828983Y-205002727D01*
X295833576Y-205015851D01*
X295922856Y-205325747D01*
X295925950Y-205339304D01*
X295979970Y-205657240D01*
X295981527Y-205671058D01*
X295999805Y-205996527D01*
X296000000Y-206003480D01*
X296000000Y-213996519D01*
X295999805Y-214003472D01*
X295981527Y-214328941D01*
X295979970Y-214342759D01*
X295925950Y-214660695D01*
X295922856Y-214674252D01*
X295833576Y-214984148D01*
X295828983Y-214997272D01*
X295705572Y-215295215D01*
X295699539Y-215307744D01*
X295543538Y-215590006D01*
X295536139Y-215601780D01*
X295349528Y-215864783D01*
X295340859Y-215875655D01*
X295125960Y-216116127D01*
X295116127Y-216125960D01*
X294875655Y-216340859D01*
X294864783Y-216349528D01*
X294601780Y-216536139D01*
X294590006Y-216543538D01*
X294307744Y-216699539D01*
X294295215Y-216705572D01*
X293997272Y-216828983D01*
X293984148Y-216833576D01*
X293674252Y-216922856D01*
X293660695Y-216925950D01*
X293342759Y-216979970D01*
X293328941Y-216981527D01*
X293003472Y-216999805D01*
X292996519Y-217000000D01*
X286003481Y-217000000D01*
X285996528Y-216999805D01*
X285671058Y-216981527D01*
X285657240Y-216979970D01*
X285339304Y-216925950D01*
X285325747Y-216922856D01*
X285015851Y-216833576D01*
X285002727Y-216828983D01*
X284704784Y-216705572D01*
X284692255Y-216699539D01*
X284409993Y-216543538D01*
X284398219Y-216536139D01*
X284135216Y-216349528D01*
X284124344Y-216340859D01*
X283883872Y-216125960D01*
X283874039Y-216116127D01*
X283659140Y-215875655D01*
X283650471Y-215864783D01*
X283463860Y-215601780D01*
X283456461Y-215590006D01*
X283300460Y-215307744D01*
X283294427Y-215295215D01*
X283171016Y-214997272D01*
X283166423Y-214984148D01*
X283077143Y-214674252D01*
X283074049Y-214660695D01*
X283020029Y-214342759D01*
X283018472Y-214328940D01*
X283000195Y-214003471D01*
X283000000Y-213996519D01*
X283000000Y-206003480D01*
X283000195Y-205996528D01*
X283018472Y-205671059D01*
X283020029Y-205657240D01*
X283074049Y-205339304D01*
X283077143Y-205325747D01*
X283166423Y-205015851D01*
X283171016Y-205002727D01*
X283294427Y-204704784D01*
X283300460Y-204692255D01*
X283456461Y-204409993D01*
X283463860Y-204398219D01*
X283650471Y-204135216D01*
X283659140Y-204124344D01*
X283874039Y-203883872D01*
X283883872Y-203874039D01*
X284124344Y-203659140D01*
X284135216Y-203650471D01*
X284398219Y-203463860D01*
X284409993Y-203456461D01*
X284692255Y-203300460D01*
X284704784Y-203294427D01*
X285002727Y-203171016D01*
X285015851Y-203166423D01*
X285325747Y-203077143D01*
X285339304Y-203074049D01*
X285657240Y-203020029D01*
X285671059Y-203018472D01*
X285996529Y-203000195D01*
X286003481Y-203000000D01*
X292996519Y-203000000D01*
X293003471Y-203000195D01*
G37*
G36*
X82400306Y-130019685D02*
G01*
X82446061Y-130072489D01*
X82457267Y-130124000D01*
X82457267Y-132376000D01*
X82437582Y-132443039D01*
X82384778Y-132488794D01*
X82333267Y-132500000D01*
X80081267Y-132500000D01*
X80014228Y-132480315D01*
X79968473Y-132427511D01*
X79957267Y-132376000D01*
X79957267Y-130124000D01*
X79976952Y-130056961D01*
X80029756Y-130011206D01*
X80081267Y-130000000D01*
X82333267Y-130000000D01*
X82400306Y-130019685D01*
G37*
G36*
X82400306Y-72519685D02*
G01*
X82446061Y-72572489D01*
X82457267Y-72624000D01*
X82457267Y-74876000D01*
X82437582Y-74943039D01*
X82384778Y-74988794D01*
X82333267Y-75000000D01*
X80081267Y-75000000D01*
X80014228Y-74980315D01*
X79968473Y-74927511D01*
X79957267Y-74876000D01*
X79957267Y-72624000D01*
X79976952Y-72556961D01*
X80029756Y-72511206D01*
X80081267Y-72500000D01*
X82333267Y-72500000D01*
X82400306Y-72519685D01*
G37*
G36*
X303503471Y-195000195D02*
G01*
X303828940Y-195018472D01*
X303842759Y-195020029D01*
X304160695Y-195074049D01*
X304174252Y-195077143D01*
X304484148Y-195166423D01*
X304497272Y-195171016D01*
X304795215Y-195294427D01*
X304807744Y-195300460D01*
X305090006Y-195456461D01*
X305101780Y-195463860D01*
X305364783Y-195650471D01*
X305375655Y-195659140D01*
X305616127Y-195874039D01*
X305625960Y-195883872D01*
X305840859Y-196124344D01*
X305849528Y-196135216D01*
X306036139Y-196398219D01*
X306043538Y-196409993D01*
X306199539Y-196692255D01*
X306205572Y-196704784D01*
X306328983Y-197002727D01*
X306333576Y-197015851D01*
X306422856Y-197325747D01*
X306425950Y-197339304D01*
X306479970Y-197657240D01*
X306481527Y-197671058D01*
X306499805Y-197996527D01*
X306500000Y-198003480D01*
X306500000Y-213553878D01*
X306499805Y-213560831D01*
X306481527Y-213886301D01*
X306479970Y-213900119D01*
X306425950Y-214218054D01*
X306422856Y-214231611D01*
X306333575Y-214541510D01*
X306328982Y-214554634D01*
X306205573Y-214852572D01*
X306199540Y-214865101D01*
X306043538Y-215147366D01*
X306036139Y-215159140D01*
X305849528Y-215422143D01*
X305840859Y-215433015D01*
X305623630Y-215676094D01*
X305618851Y-215681148D01*
X305181148Y-216118851D01*
X305176094Y-216123630D01*
X304933015Y-216340859D01*
X304922143Y-216349528D01*
X304659140Y-216536139D01*
X304647366Y-216543538D01*
X304365101Y-216699540D01*
X304352572Y-216705573D01*
X304054634Y-216828982D01*
X304041510Y-216833575D01*
X303731611Y-216922856D01*
X303718054Y-216925950D01*
X303400119Y-216979970D01*
X303386301Y-216981527D01*
X303060831Y-216999805D01*
X303053878Y-217000000D01*
X302046122Y-217000000D01*
X302039169Y-216999805D01*
X301713698Y-216981527D01*
X301699880Y-216979970D01*
X301381945Y-216925950D01*
X301368388Y-216922856D01*
X301058489Y-216833575D01*
X301045365Y-216828982D01*
X300747427Y-216705573D01*
X300734898Y-216699540D01*
X300452633Y-216543538D01*
X300440859Y-216536139D01*
X300177856Y-216349528D01*
X300166984Y-216340859D01*
X299923905Y-216123630D01*
X299918851Y-216118851D01*
X299381148Y-215581148D01*
X299376369Y-215576094D01*
X299159140Y-215333015D01*
X299150471Y-215322143D01*
X298963860Y-215059140D01*
X298956461Y-215047366D01*
X298800459Y-214765101D01*
X298794426Y-214752572D01*
X298671017Y-214454634D01*
X298666424Y-214441510D01*
X298577143Y-214131611D01*
X298574049Y-214118054D01*
X298520029Y-213800119D01*
X298518472Y-213786300D01*
X298500195Y-213460830D01*
X298500000Y-213453878D01*
X298500000Y-198003480D01*
X298500195Y-197996528D01*
X298518472Y-197671059D01*
X298520029Y-197657240D01*
X298574049Y-197339304D01*
X298577143Y-197325747D01*
X298666423Y-197015851D01*
X298671016Y-197002727D01*
X298794427Y-196704784D01*
X298800460Y-196692255D01*
X298956461Y-196409993D01*
X298963860Y-196398219D01*
X299150471Y-196135216D01*
X299159140Y-196124344D01*
X299374039Y-195883872D01*
X299383872Y-195874039D01*
X299624344Y-195659140D01*
X299635216Y-195650471D01*
X299898219Y-195463860D01*
X299909993Y-195456461D01*
X300192255Y-195300460D01*
X300204784Y-195294427D01*
X300502727Y-195171016D01*
X300515851Y-195166423D01*
X300825747Y-195077143D01*
X300839304Y-195074049D01*
X301157240Y-195020029D01*
X301171059Y-195018472D01*
X301496529Y-195000195D01*
X301503481Y-195000000D01*
X303496519Y-195000000D01*
X303503471Y-195000195D01*
G37*
G36*
X128761980Y-189802383D02*
G01*
X128821480Y-189814218D01*
X128866179Y-189832732D01*
X128906268Y-189859518D01*
X128940481Y-189893731D01*
X128967267Y-189933820D01*
X128985781Y-189978517D01*
X128997617Y-190038017D01*
X129000000Y-190062210D01*
X129000000Y-190537789D01*
X128997617Y-190561982D01*
X128985781Y-190621482D01*
X128967267Y-190666179D01*
X128940481Y-190706268D01*
X128906268Y-190740481D01*
X128866179Y-190767267D01*
X128821482Y-190785781D01*
X128761982Y-190797617D01*
X128737789Y-190800000D01*
X126262211Y-190800000D01*
X126238019Y-190797617D01*
X126178518Y-190785781D01*
X126133820Y-190767267D01*
X126093731Y-190740481D01*
X126059518Y-190706268D01*
X126032732Y-190666179D01*
X126014218Y-190621480D01*
X126002383Y-190561980D01*
X126000000Y-190537789D01*
X126000000Y-190062210D01*
X126002383Y-190038019D01*
X126014218Y-189978519D01*
X126032732Y-189933820D01*
X126059518Y-189893731D01*
X126093731Y-189859518D01*
X126133820Y-189832732D01*
X126178520Y-189814217D01*
X126238021Y-189802382D01*
X126262211Y-189800000D01*
X128737789Y-189800000D01*
X128761980Y-189802383D01*
G37*
G36*
X197961980Y-201102383D02*
G01*
X198021480Y-201114218D01*
X198066179Y-201132732D01*
X198106268Y-201159518D01*
X198140481Y-201193731D01*
X198167267Y-201233820D01*
X198185781Y-201278517D01*
X198197617Y-201338017D01*
X198200000Y-201362210D01*
X198200000Y-204437789D01*
X198197617Y-204461982D01*
X198185781Y-204521482D01*
X198167267Y-204566179D01*
X198140481Y-204606268D01*
X198106268Y-204640481D01*
X198066179Y-204667267D01*
X198021482Y-204685781D01*
X197961982Y-204697617D01*
X197937789Y-204700000D01*
X196762211Y-204700000D01*
X196738019Y-204697617D01*
X196678518Y-204685781D01*
X196633820Y-204667267D01*
X196593731Y-204640481D01*
X196559518Y-204606268D01*
X196532732Y-204566179D01*
X196514218Y-204521480D01*
X196502383Y-204461980D01*
X196500000Y-204437789D01*
X196500000Y-201362210D01*
X196502383Y-201338019D01*
X196514218Y-201278519D01*
X196532732Y-201233820D01*
X196559518Y-201193731D01*
X196593731Y-201159518D01*
X196633820Y-201132732D01*
X196678520Y-201114217D01*
X196738021Y-201102382D01*
X196762211Y-201100000D01*
X197937789Y-201100000D01*
X197961980Y-201102383D01*
G37*
G36*
X297508059Y-67501061D02*
G01*
X297613223Y-67514906D01*
X297644491Y-67523284D01*
X297734918Y-67560740D01*
X297762951Y-67576925D01*
X297840601Y-67636508D01*
X297863491Y-67659398D01*
X297923074Y-67737048D01*
X297939259Y-67765081D01*
X297976715Y-67855508D01*
X297985093Y-67886775D01*
X297998939Y-67991939D01*
X298000000Y-68008125D01*
X298000000Y-70191874D01*
X297998939Y-70208060D01*
X297985093Y-70313224D01*
X297976715Y-70344491D01*
X297939259Y-70434918D01*
X297923074Y-70462951D01*
X297863491Y-70540601D01*
X297840601Y-70563491D01*
X297762951Y-70623074D01*
X297734918Y-70639259D01*
X297644491Y-70676715D01*
X297613224Y-70685093D01*
X297508060Y-70698939D01*
X297491874Y-70700000D01*
X295208126Y-70700000D01*
X295191940Y-70698939D01*
X295086775Y-70685093D01*
X295055508Y-70676715D01*
X294965081Y-70639259D01*
X294937048Y-70623074D01*
X294859398Y-70563491D01*
X294836508Y-70540601D01*
X294776925Y-70462951D01*
X294760740Y-70434918D01*
X294723284Y-70344491D01*
X294714906Y-70313223D01*
X294701061Y-70208059D01*
X294700000Y-70191874D01*
X294700000Y-68008125D01*
X294701061Y-67991940D01*
X294714906Y-67886776D01*
X294723284Y-67855508D01*
X294760740Y-67765081D01*
X294776925Y-67737048D01*
X294836508Y-67659398D01*
X294859398Y-67636508D01*
X294937048Y-67576925D01*
X294965081Y-67560740D01*
X295055508Y-67523284D01*
X295086776Y-67514906D01*
X295191941Y-67501061D01*
X295208126Y-67500000D01*
X297491874Y-67500000D01*
X297508059Y-67501061D01*
G37*
G36*
X204961980Y-107202383D02*
G01*
X205021480Y-107214218D01*
X205066179Y-107232732D01*
X205106268Y-107259518D01*
X205140481Y-107293731D01*
X205167267Y-107333820D01*
X205185781Y-107378517D01*
X205197617Y-107438017D01*
X205200000Y-107462210D01*
X205200000Y-109237789D01*
X205197617Y-109261982D01*
X205185781Y-109321482D01*
X205167267Y-109366179D01*
X205140481Y-109406268D01*
X205106268Y-109440481D01*
X205066179Y-109467267D01*
X205021482Y-109485781D01*
X204961982Y-109497617D01*
X204937789Y-109500000D01*
X203762211Y-109500000D01*
X203738019Y-109497617D01*
X203678518Y-109485781D01*
X203633820Y-109467267D01*
X203593731Y-109440481D01*
X203559518Y-109406268D01*
X203532732Y-109366179D01*
X203514218Y-109321480D01*
X203502383Y-109261980D01*
X203500000Y-109237789D01*
X203500000Y-107462210D01*
X203502383Y-107438019D01*
X203514218Y-107378519D01*
X203532732Y-107333820D01*
X203559518Y-107293731D01*
X203593731Y-107259518D01*
X203633820Y-107232732D01*
X203678520Y-107214217D01*
X203738021Y-107202382D01*
X203762211Y-107200000D01*
X204937789Y-107200000D01*
X204961980Y-107202383D01*
G37*
G36*
X229006061Y-118000597D02*
G01*
X229182934Y-118018017D01*
X229206775Y-118022759D01*
X229370998Y-118072575D01*
X229393456Y-118081878D01*
X229544798Y-118162772D01*
X229565010Y-118176277D01*
X229697666Y-118285145D01*
X229714854Y-118302333D01*
X229823722Y-118434989D01*
X229837227Y-118455201D01*
X229918121Y-118606543D01*
X229927424Y-118629001D01*
X229977240Y-118793224D01*
X229981982Y-118817065D01*
X229999403Y-118993938D01*
X230000000Y-119006092D01*
X230000000Y-133493907D01*
X229999403Y-133506061D01*
X229981982Y-133682934D01*
X229977240Y-133706775D01*
X229927424Y-133870998D01*
X229918121Y-133893456D01*
X229837227Y-134044798D01*
X229823722Y-134065010D01*
X229714854Y-134197666D01*
X229697666Y-134214854D01*
X229565010Y-134323722D01*
X229544798Y-134337227D01*
X229393456Y-134418121D01*
X229370998Y-134427424D01*
X229206775Y-134477240D01*
X229182934Y-134481982D01*
X229006061Y-134499403D01*
X228993907Y-134500000D01*
X216006093Y-134500000D01*
X215993939Y-134499403D01*
X215817065Y-134481982D01*
X215793224Y-134477240D01*
X215629001Y-134427424D01*
X215606543Y-134418121D01*
X215455201Y-134337227D01*
X215434989Y-134323722D01*
X215302333Y-134214854D01*
X215285145Y-134197666D01*
X215176277Y-134065010D01*
X215162772Y-134044798D01*
X215081878Y-133893456D01*
X215072575Y-133870998D01*
X215022759Y-133706775D01*
X215018017Y-133682934D01*
X215000597Y-133506061D01*
X215000000Y-133493907D01*
X215000000Y-119006092D01*
X215000597Y-118993938D01*
X215018017Y-118817065D01*
X215022759Y-118793224D01*
X215072575Y-118629001D01*
X215081878Y-118606543D01*
X215162772Y-118455201D01*
X215176277Y-118434989D01*
X215285145Y-118302333D01*
X215302333Y-118285145D01*
X215434989Y-118176277D01*
X215455201Y-118162772D01*
X215606543Y-118081878D01*
X215629001Y-118072575D01*
X215793224Y-118022759D01*
X215817065Y-118018017D01*
X215993939Y-118000597D01*
X216006093Y-118000000D01*
X228993907Y-118000000D01*
X229006061Y-118000597D01*
G37*
G36*
X319751110Y-88000221D02*
G01*
X319843426Y-88018583D01*
X319847572Y-88020300D01*
X319924874Y-88071952D01*
X319928047Y-88075125D01*
X319979699Y-88152427D01*
X319981416Y-88156572D01*
X319999779Y-88248888D01*
X320000000Y-88251132D01*
X320000000Y-91748867D01*
X319999779Y-91751111D01*
X319981416Y-91843427D01*
X319979699Y-91847572D01*
X319928047Y-91924874D01*
X319924874Y-91928047D01*
X319847572Y-91979699D01*
X319843427Y-91981416D01*
X319751111Y-91999779D01*
X319748867Y-92000000D01*
X316251133Y-92000000D01*
X316248889Y-91999779D01*
X316156572Y-91981416D01*
X316152427Y-91979699D01*
X316075125Y-91928047D01*
X316071952Y-91924874D01*
X316020300Y-91847572D01*
X316018583Y-91843426D01*
X316000221Y-91751110D01*
X316000000Y-91748867D01*
X316000000Y-88251132D01*
X316000221Y-88248889D01*
X316018583Y-88156573D01*
X316020300Y-88152427D01*
X316071952Y-88075125D01*
X316075125Y-88071952D01*
X316152427Y-88020300D01*
X316156573Y-88018583D01*
X316248890Y-88000221D01*
X316251133Y-88000000D01*
X319748867Y-88000000D01*
X319751110Y-88000221D01*
G37*
G36*
X193361980Y-201102383D02*
G01*
X193421480Y-201114218D01*
X193466179Y-201132732D01*
X193506268Y-201159518D01*
X193540481Y-201193731D01*
X193567267Y-201233820D01*
X193585781Y-201278517D01*
X193597617Y-201338017D01*
X193600000Y-201362210D01*
X193600000Y-204437789D01*
X193597617Y-204461982D01*
X193585781Y-204521482D01*
X193567267Y-204566179D01*
X193540481Y-204606268D01*
X193506268Y-204640481D01*
X193466179Y-204667267D01*
X193421482Y-204685781D01*
X193361982Y-204697617D01*
X193337789Y-204700000D01*
X192162211Y-204700000D01*
X192138019Y-204697617D01*
X192078518Y-204685781D01*
X192033820Y-204667267D01*
X191993731Y-204640481D01*
X191959518Y-204606268D01*
X191932732Y-204566179D01*
X191914218Y-204521480D01*
X191902383Y-204461980D01*
X191900000Y-204437789D01*
X191900000Y-201362210D01*
X191902383Y-201338019D01*
X191914218Y-201278519D01*
X191932732Y-201233820D01*
X191959518Y-201193731D01*
X191993731Y-201159518D01*
X192033820Y-201132732D01*
X192078520Y-201114217D01*
X192138021Y-201102382D01*
X192162211Y-201100000D01*
X193337789Y-201100000D01*
X193361980Y-201102383D01*
G37*
G36*
X82400306Y-139419685D02*
G01*
X82446061Y-139472489D01*
X82457267Y-139524000D01*
X82457267Y-141776000D01*
X82437582Y-141843039D01*
X82384778Y-141888794D01*
X82333267Y-141900000D01*
X80081267Y-141900000D01*
X80014228Y-141880315D01*
X79968473Y-141827511D01*
X79957267Y-141776000D01*
X79957267Y-139524000D01*
X79976952Y-139456961D01*
X80029756Y-139411206D01*
X80081267Y-139400000D01*
X82333267Y-139400000D01*
X82400306Y-139419685D01*
G37*
G36*
X127600306Y-143919685D02*
G01*
X127646061Y-143972489D01*
X127657267Y-144024000D01*
X127657267Y-147376000D01*
X127637582Y-147443039D01*
X127584778Y-147488794D01*
X127533267Y-147500000D01*
X124181267Y-147500000D01*
X124114228Y-147480315D01*
X124068473Y-147427511D01*
X124057267Y-147376000D01*
X124057267Y-144024000D01*
X124076952Y-143956961D01*
X124129756Y-143911206D01*
X124181267Y-143900000D01*
X127533267Y-143900000D01*
X127600306Y-143919685D01*
G37*
G36*
X316761980Y-114002383D02*
G01*
X316821480Y-114014218D01*
X316866179Y-114032732D01*
X316906268Y-114059518D01*
X316940481Y-114093731D01*
X316967267Y-114133820D01*
X316985781Y-114178517D01*
X316997617Y-114238017D01*
X317000000Y-114262210D01*
X317000000Y-116737789D01*
X316997617Y-116761982D01*
X316985781Y-116821482D01*
X316967267Y-116866179D01*
X316940481Y-116906268D01*
X316906268Y-116940481D01*
X316866179Y-116967267D01*
X316821482Y-116985781D01*
X316761982Y-116997617D01*
X316737789Y-117000000D01*
X314262211Y-117000000D01*
X314238019Y-116997617D01*
X314178518Y-116985781D01*
X314133820Y-116967267D01*
X314093731Y-116940481D01*
X314059518Y-116906268D01*
X314032732Y-116866179D01*
X314014218Y-116821480D01*
X314002383Y-116761980D01*
X314000000Y-116737789D01*
X314000000Y-114262210D01*
X314002383Y-114238019D01*
X314014218Y-114178519D01*
X314032732Y-114133820D01*
X314059518Y-114093731D01*
X314093731Y-114059518D01*
X314133820Y-114032732D01*
X314178520Y-114014217D01*
X314238021Y-114002382D01*
X314262211Y-114000000D01*
X316737789Y-114000000D01*
X316761980Y-114002383D01*
G37*
G36*
X319751110Y-62500221D02*
G01*
X319843426Y-62518583D01*
X319847572Y-62520300D01*
X319924874Y-62571952D01*
X319928047Y-62575125D01*
X319979699Y-62652427D01*
X319981416Y-62656572D01*
X319999779Y-62748888D01*
X320000000Y-62751132D01*
X320000000Y-66248867D01*
X319999779Y-66251111D01*
X319981416Y-66343427D01*
X319979699Y-66347572D01*
X319928047Y-66424874D01*
X319924874Y-66428047D01*
X319847572Y-66479699D01*
X319843427Y-66481416D01*
X319751111Y-66499779D01*
X319748867Y-66500000D01*
X316251133Y-66500000D01*
X316248889Y-66499779D01*
X316156572Y-66481416D01*
X316152427Y-66479699D01*
X316075125Y-66428047D01*
X316071952Y-66424874D01*
X316020300Y-66347572D01*
X316018583Y-66343426D01*
X316000221Y-66251110D01*
X316000000Y-66248867D01*
X316000000Y-62751132D01*
X316000221Y-62748889D01*
X316018583Y-62656573D01*
X316020300Y-62652427D01*
X316071952Y-62575125D01*
X316075125Y-62571952D01*
X316152427Y-62520300D01*
X316156573Y-62518583D01*
X316248890Y-62500221D01*
X316251133Y-62500000D01*
X319748867Y-62500000D01*
X319751110Y-62500221D01*
G37*
G36*
X127300306Y-100419685D02*
G01*
X127346061Y-100472489D01*
X127357267Y-100524000D01*
X127357267Y-103876000D01*
X127337582Y-103943039D01*
X127284778Y-103988794D01*
X127233267Y-104000000D01*
X123881267Y-104000000D01*
X123814228Y-103980315D01*
X123768473Y-103927511D01*
X123757267Y-103876000D01*
X123757267Y-100524000D01*
X123776952Y-100456961D01*
X123829756Y-100411206D01*
X123881267Y-100400000D01*
X127233267Y-100400000D01*
X127300306Y-100419685D01*
G37*
G36*
X128761980Y-188502383D02*
G01*
X128821480Y-188514218D01*
X128866179Y-188532732D01*
X128906268Y-188559518D01*
X128940481Y-188593731D01*
X128967267Y-188633820D01*
X128985781Y-188678517D01*
X128997617Y-188738017D01*
X129000000Y-188762210D01*
X129000000Y-189237789D01*
X128997617Y-189261982D01*
X128985781Y-189321482D01*
X128967267Y-189366179D01*
X128940481Y-189406268D01*
X128906268Y-189440481D01*
X128866179Y-189467267D01*
X128821482Y-189485781D01*
X128761982Y-189497617D01*
X128737789Y-189500000D01*
X126262211Y-189500000D01*
X126238019Y-189497617D01*
X126178518Y-189485781D01*
X126133820Y-189467267D01*
X126093731Y-189440481D01*
X126059518Y-189406268D01*
X126032732Y-189366179D01*
X126014218Y-189321480D01*
X126002383Y-189261980D01*
X126000000Y-189237789D01*
X126000000Y-188762210D01*
X126002383Y-188738019D01*
X126014218Y-188678519D01*
X126032732Y-188633820D01*
X126059518Y-188593731D01*
X126093731Y-188559518D01*
X126133820Y-188532732D01*
X126178520Y-188514217D01*
X126238021Y-188502382D01*
X126262211Y-188500000D01*
X128737789Y-188500000D01*
X128761980Y-188502383D01*
G37*
G36*
X278561980Y-107302383D02*
G01*
X278621480Y-107314218D01*
X278666179Y-107332732D01*
X278706268Y-107359518D01*
X278740481Y-107393731D01*
X278767267Y-107433820D01*
X278785781Y-107478517D01*
X278797617Y-107538017D01*
X278800000Y-107562210D01*
X278800000Y-110637789D01*
X278797617Y-110661982D01*
X278785781Y-110721482D01*
X278767267Y-110766179D01*
X278740481Y-110806268D01*
X278706268Y-110840481D01*
X278666179Y-110867267D01*
X278621482Y-110885781D01*
X278561982Y-110897617D01*
X278537789Y-110900000D01*
X277362211Y-110900000D01*
X277338019Y-110897617D01*
X277278518Y-110885781D01*
X277233820Y-110867267D01*
X277193731Y-110840481D01*
X277159518Y-110806268D01*
X277132732Y-110766179D01*
X277114218Y-110721480D01*
X277102383Y-110661980D01*
X277100000Y-110637789D01*
X277100000Y-107562210D01*
X277102383Y-107538019D01*
X277114218Y-107478519D01*
X277132732Y-107433820D01*
X277159518Y-107393731D01*
X277193731Y-107359518D01*
X277233820Y-107332732D01*
X277278520Y-107314217D01*
X277338021Y-107302382D01*
X277362211Y-107300000D01*
X278537789Y-107300000D01*
X278561980Y-107302383D01*
G37*
G36*
X82400306Y-148119685D02*
G01*
X82446061Y-148172489D01*
X82457267Y-148224000D01*
X82457267Y-150476000D01*
X82437582Y-150543039D01*
X82384778Y-150588794D01*
X82333267Y-150600000D01*
X80081267Y-150600000D01*
X80014228Y-150580315D01*
X79968473Y-150527511D01*
X79957267Y-150476000D01*
X79957267Y-148224000D01*
X79976952Y-148156961D01*
X80029756Y-148111206D01*
X80081267Y-148100000D01*
X82333267Y-148100000D01*
X82400306Y-148119685D01*
G37*
G36*
X251003471Y-203000195D02*
G01*
X251328940Y-203018472D01*
X251342759Y-203020029D01*
X251660695Y-203074049D01*
X251674252Y-203077143D01*
X251984148Y-203166423D01*
X251997272Y-203171016D01*
X252295215Y-203294427D01*
X252307744Y-203300460D01*
X252590006Y-203456461D01*
X252601780Y-203463860D01*
X252864783Y-203650471D01*
X252875655Y-203659140D01*
X253116127Y-203874039D01*
X253125960Y-203883872D01*
X253340859Y-204124344D01*
X253349528Y-204135216D01*
X253536139Y-204398219D01*
X253543538Y-204409993D01*
X253699539Y-204692255D01*
X253705572Y-204704784D01*
X253828983Y-205002727D01*
X253833576Y-205015851D01*
X253922856Y-205325747D01*
X253925950Y-205339304D01*
X253979970Y-205657240D01*
X253981527Y-205671058D01*
X253999805Y-205996527D01*
X254000000Y-206003480D01*
X254000000Y-213996519D01*
X253999805Y-214003472D01*
X253981527Y-214328941D01*
X253979970Y-214342759D01*
X253925950Y-214660695D01*
X253922856Y-214674252D01*
X253833576Y-214984148D01*
X253828983Y-214997272D01*
X253705572Y-215295215D01*
X253699539Y-215307744D01*
X253543538Y-215590006D01*
X253536139Y-215601780D01*
X253349528Y-215864783D01*
X253340859Y-215875655D01*
X253125960Y-216116127D01*
X253116127Y-216125960D01*
X252875655Y-216340859D01*
X252864783Y-216349528D01*
X252601780Y-216536139D01*
X252590006Y-216543538D01*
X252307744Y-216699539D01*
X252295215Y-216705572D01*
X251997272Y-216828983D01*
X251984148Y-216833576D01*
X251674252Y-216922856D01*
X251660695Y-216925950D01*
X251342759Y-216979970D01*
X251328941Y-216981527D01*
X251003472Y-216999805D01*
X250996519Y-217000000D01*
X244003481Y-217000000D01*
X243996528Y-216999805D01*
X243671058Y-216981527D01*
X243657240Y-216979970D01*
X243339304Y-216925950D01*
X243325747Y-216922856D01*
X243015851Y-216833576D01*
X243002727Y-216828983D01*
X242704784Y-216705572D01*
X242692255Y-216699539D01*
X242409993Y-216543538D01*
X242398219Y-216536139D01*
X242135216Y-216349528D01*
X242124344Y-216340859D01*
X241883872Y-216125960D01*
X241874039Y-216116127D01*
X241659140Y-215875655D01*
X241650471Y-215864783D01*
X241463860Y-215601780D01*
X241456461Y-215590006D01*
X241300460Y-215307744D01*
X241294427Y-215295215D01*
X241171016Y-214997272D01*
X241166423Y-214984148D01*
X241077143Y-214674252D01*
X241074049Y-214660695D01*
X241020029Y-214342759D01*
X241018472Y-214328940D01*
X241000195Y-214003471D01*
X241000000Y-213996519D01*
X241000000Y-206003480D01*
X241000195Y-205996528D01*
X241018472Y-205671059D01*
X241020029Y-205657240D01*
X241074049Y-205339304D01*
X241077143Y-205325747D01*
X241166423Y-205015851D01*
X241171016Y-205002727D01*
X241294427Y-204704784D01*
X241300460Y-204692255D01*
X241456461Y-204409993D01*
X241463860Y-204398219D01*
X241650471Y-204135216D01*
X241659140Y-204124344D01*
X241874039Y-203883872D01*
X241883872Y-203874039D01*
X242124344Y-203659140D01*
X242135216Y-203650471D01*
X242398219Y-203463860D01*
X242409993Y-203456461D01*
X242692255Y-203300460D01*
X242704784Y-203294427D01*
X243002727Y-203171016D01*
X243015851Y-203166423D01*
X243325747Y-203077143D01*
X243339304Y-203074049D01*
X243657240Y-203020029D01*
X243671059Y-203018472D01*
X243996529Y-203000195D01*
X244003481Y-203000000D01*
X250996519Y-203000000D01*
X251003471Y-203000195D01*
G37*
G36*
X82400306Y-100419685D02*
G01*
X82446061Y-100472489D01*
X82457267Y-100524000D01*
X82457267Y-102776000D01*
X82437582Y-102843039D01*
X82384778Y-102888794D01*
X82333267Y-102900000D01*
X80081267Y-102900000D01*
X80014228Y-102880315D01*
X79968473Y-102827511D01*
X79957267Y-102776000D01*
X79957267Y-100524000D01*
X79976952Y-100456961D01*
X80029756Y-100411206D01*
X80081267Y-100400000D01*
X82333267Y-100400000D01*
X82400306Y-100419685D01*
G37*
G36*
X82400306Y-81919685D02*
G01*
X82446061Y-81972489D01*
X82457267Y-82024000D01*
X82457267Y-84276000D01*
X82437582Y-84343039D01*
X82384778Y-84388794D01*
X82333267Y-84400000D01*
X80081267Y-84400000D01*
X80014228Y-84380315D01*
X79968473Y-84327511D01*
X79957267Y-84276000D01*
X79957267Y-82024000D01*
X79976952Y-81956961D01*
X80029756Y-81911206D01*
X80081267Y-81900000D01*
X82333267Y-81900000D01*
X82400306Y-81919685D01*
G37*
G36*
X121461980Y-176002383D02*
G01*
X121521480Y-176014218D01*
X121566179Y-176032732D01*
X121606268Y-176059518D01*
X121640481Y-176093731D01*
X121667267Y-176133820D01*
X121685781Y-176178517D01*
X121697617Y-176238017D01*
X121700000Y-176262210D01*
X121700000Y-178737789D01*
X121697617Y-178761982D01*
X121685781Y-178821482D01*
X121667267Y-178866179D01*
X121640481Y-178906268D01*
X121606268Y-178940481D01*
X121566179Y-178967267D01*
X121521482Y-178985781D01*
X121461982Y-178997617D01*
X121437789Y-179000000D01*
X120962211Y-179000000D01*
X120938019Y-178997617D01*
X120878518Y-178985781D01*
X120833820Y-178967267D01*
X120793731Y-178940481D01*
X120759518Y-178906268D01*
X120732732Y-178866179D01*
X120714218Y-178821480D01*
X120702383Y-178761980D01*
X120700000Y-178737789D01*
X120700000Y-176262210D01*
X120702383Y-176238019D01*
X120714218Y-176178519D01*
X120732732Y-176133820D01*
X120759518Y-176093731D01*
X120793731Y-176059518D01*
X120833820Y-176032732D01*
X120878520Y-176014217D01*
X120938021Y-176002382D01*
X120962211Y-176000000D01*
X121437789Y-176000000D01*
X121461980Y-176002383D01*
G37*
G36*
X311761980Y-114002383D02*
G01*
X311821480Y-114014218D01*
X311866179Y-114032732D01*
X311906268Y-114059518D01*
X311940481Y-114093731D01*
X311967267Y-114133820D01*
X311985781Y-114178517D01*
X311997617Y-114238017D01*
X312000000Y-114262210D01*
X312000000Y-116737789D01*
X311997617Y-116761982D01*
X311985781Y-116821482D01*
X311967267Y-116866179D01*
X311940481Y-116906268D01*
X311906268Y-116940481D01*
X311866179Y-116967267D01*
X311821482Y-116985781D01*
X311761982Y-116997617D01*
X311737789Y-117000000D01*
X309262211Y-117000000D01*
X309238019Y-116997617D01*
X309178518Y-116985781D01*
X309133820Y-116967267D01*
X309093731Y-116940481D01*
X309059518Y-116906268D01*
X309032732Y-116866179D01*
X309014218Y-116821480D01*
X309002383Y-116761980D01*
X309000000Y-116737789D01*
X309000000Y-114262210D01*
X309002383Y-114238019D01*
X309014218Y-114178519D01*
X309032732Y-114133820D01*
X309059518Y-114093731D01*
X309093731Y-114059518D01*
X309133820Y-114032732D01*
X309178520Y-114014217D01*
X309238021Y-114002382D01*
X309262211Y-114000000D01*
X311737789Y-114000000D01*
X311761980Y-114002383D01*
G37*
G36*
X111600306Y-155219685D02*
G01*
X111646061Y-155272489D01*
X111657267Y-155324000D01*
X111657267Y-158676000D01*
X111637582Y-158743039D01*
X111584778Y-158788794D01*
X111533267Y-158800000D01*
X108181267Y-158800000D01*
X108114228Y-158780315D01*
X108068473Y-158727511D01*
X108057267Y-158676000D01*
X108057267Y-155324000D01*
X108076952Y-155256961D01*
X108129756Y-155211206D01*
X108181267Y-155200000D01*
X111533267Y-155200000D01*
X111600306Y-155219685D01*
G37*
G36*
X266006061Y-118000597D02*
G01*
X266182934Y-118018017D01*
X266206775Y-118022759D01*
X266370998Y-118072575D01*
X266393456Y-118081878D01*
X266544798Y-118162772D01*
X266565010Y-118176277D01*
X266697666Y-118285145D01*
X266714854Y-118302333D01*
X266823722Y-118434989D01*
X266837227Y-118455201D01*
X266918121Y-118606543D01*
X266927424Y-118629001D01*
X266977240Y-118793224D01*
X266981982Y-118817065D01*
X266999403Y-118993938D01*
X267000000Y-119006092D01*
X267000000Y-131993907D01*
X266999403Y-132006061D01*
X266981982Y-132182934D01*
X266977240Y-132206775D01*
X266927424Y-132370998D01*
X266918121Y-132393456D01*
X266837227Y-132544798D01*
X266823722Y-132565010D01*
X266714854Y-132697666D01*
X266697666Y-132714854D01*
X266565010Y-132823722D01*
X266544798Y-132837227D01*
X266393456Y-132918121D01*
X266370998Y-132927424D01*
X266206775Y-132977240D01*
X266182934Y-132981982D01*
X266006061Y-132999403D01*
X265993907Y-133000000D01*
X253006093Y-133000000D01*
X252993939Y-132999403D01*
X252817065Y-132981982D01*
X252793224Y-132977240D01*
X252629001Y-132927424D01*
X252606543Y-132918121D01*
X252455201Y-132837227D01*
X252434989Y-132823722D01*
X252302333Y-132714854D01*
X252285145Y-132697666D01*
X252176277Y-132565010D01*
X252162772Y-132544798D01*
X252081878Y-132393456D01*
X252072575Y-132370998D01*
X252022759Y-132206775D01*
X252018017Y-132182934D01*
X252000597Y-132006061D01*
X252000000Y-131993907D01*
X252000000Y-119006092D01*
X252000597Y-118993938D01*
X252018017Y-118817065D01*
X252022759Y-118793224D01*
X252072575Y-118629001D01*
X252081878Y-118606543D01*
X252162772Y-118455201D01*
X252176277Y-118434989D01*
X252285145Y-118302333D01*
X252302333Y-118285145D01*
X252434989Y-118176277D01*
X252455201Y-118162772D01*
X252606543Y-118081878D01*
X252629001Y-118072575D01*
X252793224Y-118022759D01*
X252817065Y-118018017D01*
X252993939Y-118000597D01*
X253006093Y-118000000D01*
X265993907Y-118000000D01*
X266006061Y-118000597D01*
G37*
G36*
X293708059Y-67501061D02*
G01*
X293813223Y-67514906D01*
X293844491Y-67523284D01*
X293934918Y-67560740D01*
X293962951Y-67576925D01*
X294040601Y-67636508D01*
X294063491Y-67659398D01*
X294123074Y-67737048D01*
X294139259Y-67765081D01*
X294176715Y-67855508D01*
X294185093Y-67886775D01*
X294198939Y-67991939D01*
X294200000Y-68008125D01*
X294200000Y-69591874D01*
X294198939Y-69608060D01*
X294185093Y-69713224D01*
X294176715Y-69744491D01*
X294139259Y-69834918D01*
X294123074Y-69862951D01*
X294063491Y-69940601D01*
X294040601Y-69963491D01*
X293962951Y-70023074D01*
X293934918Y-70039259D01*
X293844491Y-70076715D01*
X293813224Y-70085093D01*
X293708060Y-70098939D01*
X293691874Y-70100000D01*
X291408126Y-70100000D01*
X291391940Y-70098939D01*
X291286775Y-70085093D01*
X291255508Y-70076715D01*
X291165081Y-70039259D01*
X291137048Y-70023074D01*
X291059398Y-69963491D01*
X291036508Y-69940601D01*
X290976925Y-69862951D01*
X290960740Y-69834918D01*
X290923284Y-69744491D01*
X290914906Y-69713223D01*
X290901061Y-69608059D01*
X290900000Y-69591874D01*
X290900000Y-68008125D01*
X290901061Y-67991940D01*
X290914906Y-67886776D01*
X290923284Y-67855508D01*
X290960740Y-67765081D01*
X290976925Y-67737048D01*
X291036508Y-67659398D01*
X291059398Y-67636508D01*
X291137048Y-67576925D01*
X291165081Y-67560740D01*
X291255508Y-67523284D01*
X291286776Y-67514906D01*
X291391941Y-67501061D01*
X291408126Y-67500000D01*
X293691874Y-67500000D01*
X293708059Y-67501061D01*
G37*
G36*
X290761980Y-112402383D02*
G01*
X290821480Y-112414218D01*
X290866179Y-112432732D01*
X290906268Y-112459518D01*
X290940481Y-112493731D01*
X290967267Y-112533820D01*
X290985781Y-112578517D01*
X290997617Y-112638017D01*
X291000000Y-112662210D01*
X291000000Y-118137789D01*
X290997617Y-118161982D01*
X290985781Y-118221482D01*
X290967267Y-118266179D01*
X290940481Y-118306268D01*
X290906268Y-118340481D01*
X290866179Y-118367267D01*
X290821482Y-118385781D01*
X290761982Y-118397617D01*
X290737789Y-118400000D01*
X282262211Y-118400000D01*
X282238019Y-118397617D01*
X282178518Y-118385781D01*
X282133820Y-118367267D01*
X282093731Y-118340481D01*
X282059518Y-118306268D01*
X282032732Y-118266179D01*
X282014218Y-118221480D01*
X282002383Y-118161980D01*
X282000000Y-118137789D01*
X282000000Y-112662210D01*
X282002383Y-112638019D01*
X282014218Y-112578519D01*
X282032732Y-112533820D01*
X282059518Y-112493731D01*
X282093731Y-112459518D01*
X282133820Y-112432732D01*
X282178520Y-112414217D01*
X282238021Y-112402382D01*
X282262211Y-112400000D01*
X290737789Y-112400000D01*
X290761980Y-112402383D01*
G37*
G36*
X82400306Y-157519685D02*
G01*
X82446061Y-157572489D01*
X82457267Y-157624000D01*
X82457267Y-159876000D01*
X82437582Y-159943039D01*
X82384778Y-159988794D01*
X82333267Y-160000000D01*
X80081267Y-160000000D01*
X80014228Y-159980315D01*
X79968473Y-159927511D01*
X79957267Y-159876000D01*
X79957267Y-157624000D01*
X79976952Y-157556961D01*
X80029756Y-157511206D01*
X80081267Y-157500000D01*
X82333267Y-157500000D01*
X82400306Y-157519685D01*
G37*
G36*
X107000306Y-155219685D02*
G01*
X107046061Y-155272489D01*
X107057267Y-155324000D01*
X107057267Y-158676000D01*
X107037582Y-158743039D01*
X106984778Y-158788794D01*
X106933267Y-158800000D01*
X103581267Y-158800000D01*
X103514228Y-158780315D01*
X103468473Y-158727511D01*
X103457267Y-158676000D01*
X103457267Y-155324000D01*
X103476952Y-155256961D01*
X103529756Y-155211206D01*
X103581267Y-155200000D01*
X106933267Y-155200000D01*
X107000306Y-155219685D01*
G37*
G36*
X168599480Y-211002383D02*
G01*
X168658980Y-211014218D01*
X168703679Y-211032732D01*
X168743768Y-211059518D01*
X168777981Y-211093731D01*
X168804767Y-211133820D01*
X168823281Y-211178517D01*
X168835117Y-211238017D01*
X168837500Y-211262210D01*
X168837500Y-212737789D01*
X168835117Y-212761982D01*
X168823281Y-212821482D01*
X168804767Y-212866179D01*
X168777981Y-212906268D01*
X168743768Y-212940481D01*
X168703679Y-212967267D01*
X168658982Y-212985781D01*
X168599482Y-212997617D01*
X168575289Y-213000000D01*
X167099711Y-213000000D01*
X167075519Y-212997617D01*
X167016018Y-212985781D01*
X166971320Y-212967267D01*
X166931231Y-212940481D01*
X166897018Y-212906268D01*
X166870232Y-212866179D01*
X166851718Y-212821480D01*
X166839883Y-212761980D01*
X166837500Y-212737789D01*
X166837500Y-211262210D01*
X166839883Y-211238019D01*
X166851718Y-211178519D01*
X166870232Y-211133820D01*
X166897018Y-211093731D01*
X166931231Y-211059518D01*
X166971320Y-211032732D01*
X167016020Y-211014217D01*
X167075521Y-211002382D01*
X167099711Y-211000000D01*
X168575289Y-211000000D01*
X168599480Y-211002383D01*
G37*
G36*
X195861980Y-201102383D02*
G01*
X195921480Y-201114218D01*
X195966179Y-201132732D01*
X196006268Y-201159518D01*
X196040481Y-201193731D01*
X196067267Y-201233820D01*
X196085781Y-201278517D01*
X196097617Y-201338017D01*
X196100000Y-201362210D01*
X196100000Y-204437789D01*
X196097617Y-204461982D01*
X196085781Y-204521482D01*
X196067267Y-204566179D01*
X196040481Y-204606268D01*
X196006268Y-204640481D01*
X195966179Y-204667267D01*
X195921482Y-204685781D01*
X195861982Y-204697617D01*
X195837789Y-204700000D01*
X195562211Y-204700000D01*
X195538019Y-204697617D01*
X195478518Y-204685781D01*
X195433820Y-204667267D01*
X195393731Y-204640481D01*
X195359518Y-204606268D01*
X195332732Y-204566179D01*
X195314218Y-204521480D01*
X195302383Y-204461980D01*
X195300000Y-204437789D01*
X195300000Y-201362210D01*
X195302383Y-201338019D01*
X195314218Y-201278519D01*
X195332732Y-201233820D01*
X195359518Y-201193731D01*
X195393731Y-201159518D01*
X195433820Y-201132732D01*
X195478520Y-201114217D01*
X195538021Y-201102382D01*
X195562211Y-201100000D01*
X195837789Y-201100000D01*
X195861980Y-201102383D01*
G37*
G36*
X319751110Y-82000221D02*
G01*
X319843426Y-82018583D01*
X319847572Y-82020300D01*
X319924874Y-82071952D01*
X319928047Y-82075125D01*
X319979699Y-82152427D01*
X319981416Y-82156572D01*
X319999779Y-82248888D01*
X320000000Y-82251132D01*
X320000000Y-85748867D01*
X319999779Y-85751111D01*
X319981416Y-85843427D01*
X319979699Y-85847572D01*
X319928047Y-85924874D01*
X319924874Y-85928047D01*
X319847572Y-85979699D01*
X319843427Y-85981416D01*
X319751111Y-85999779D01*
X319748867Y-86000000D01*
X316251133Y-86000000D01*
X316248889Y-85999779D01*
X316156572Y-85981416D01*
X316152427Y-85979699D01*
X316075125Y-85928047D01*
X316071952Y-85924874D01*
X316020300Y-85847572D01*
X316018583Y-85843426D01*
X316000221Y-85751110D01*
X316000000Y-85748867D01*
X316000000Y-82251132D01*
X316000221Y-82248889D01*
X316018583Y-82156573D01*
X316020300Y-82152427D01*
X316071952Y-82075125D01*
X316075125Y-82071952D01*
X316152427Y-82020300D01*
X316156573Y-82018583D01*
X316248890Y-82000221D01*
X316251133Y-82000000D01*
X319748867Y-82000000D01*
X319751110Y-82000221D01*
G37*
G36*
X290761980Y-105602383D02*
G01*
X290821480Y-105614218D01*
X290866179Y-105632732D01*
X290906268Y-105659518D01*
X290940481Y-105693731D01*
X290967267Y-105733820D01*
X290985781Y-105778517D01*
X290997617Y-105838017D01*
X291000000Y-105862210D01*
X291000000Y-111737789D01*
X290997617Y-111761982D01*
X290985781Y-111821482D01*
X290967267Y-111866179D01*
X290940481Y-111906268D01*
X290906268Y-111940481D01*
X290866179Y-111967267D01*
X290821482Y-111985781D01*
X290761982Y-111997617D01*
X290737789Y-112000000D01*
X282262211Y-112000000D01*
X282238019Y-111997617D01*
X282178518Y-111985781D01*
X282133820Y-111967267D01*
X282093731Y-111940481D01*
X282059518Y-111906268D01*
X282032732Y-111866179D01*
X282014218Y-111821480D01*
X282002383Y-111761980D01*
X282000000Y-111737789D01*
X282000000Y-105862210D01*
X282002383Y-105838019D01*
X282014218Y-105778519D01*
X282032732Y-105733820D01*
X282059518Y-105693731D01*
X282093731Y-105659518D01*
X282133820Y-105632732D01*
X282178520Y-105614217D01*
X282238021Y-105602382D01*
X282262211Y-105600000D01*
X290737789Y-105600000D01*
X290761980Y-105602383D01*
G37*
G36*
X82400306Y-121319685D02*
G01*
X82446061Y-121372489D01*
X82457267Y-121424000D01*
X82457267Y-123676000D01*
X82437582Y-123743039D01*
X82384778Y-123788794D01*
X82333267Y-123800000D01*
X80081267Y-123800000D01*
X80014228Y-123780315D01*
X79968473Y-123727511D01*
X79957267Y-123676000D01*
X79957267Y-121424000D01*
X79976952Y-121356961D01*
X80029756Y-121311206D01*
X80081267Y-121300000D01*
X82333267Y-121300000D01*
X82400306Y-121319685D01*
G37*
G36*
X272003471Y-203000195D02*
G01*
X272328940Y-203018472D01*
X272342759Y-203020029D01*
X272660695Y-203074049D01*
X272674252Y-203077143D01*
X272984148Y-203166423D01*
X272997272Y-203171016D01*
X273295215Y-203294427D01*
X273307744Y-203300460D01*
X273590006Y-203456461D01*
X273601780Y-203463860D01*
X273864783Y-203650471D01*
X273875655Y-203659140D01*
X274116127Y-203874039D01*
X274125960Y-203883872D01*
X274340859Y-204124344D01*
X274349528Y-204135216D01*
X274536139Y-204398219D01*
X274543538Y-204409993D01*
X274699539Y-204692255D01*
X274705572Y-204704784D01*
X274828983Y-205002727D01*
X274833576Y-205015851D01*
X274922856Y-205325747D01*
X274925950Y-205339304D01*
X274979970Y-205657240D01*
X274981527Y-205671058D01*
X274999805Y-205996527D01*
X275000000Y-206003480D01*
X275000000Y-213996519D01*
X274999805Y-214003472D01*
X274981527Y-214328941D01*
X274979970Y-214342759D01*
X274925950Y-214660695D01*
X274922856Y-214674252D01*
X274833576Y-214984148D01*
X274828983Y-214997272D01*
X274705572Y-215295215D01*
X274699539Y-215307744D01*
X274543538Y-215590006D01*
X274536139Y-215601780D01*
X274349528Y-215864783D01*
X274340859Y-215875655D01*
X274125960Y-216116127D01*
X274116127Y-216125960D01*
X273875655Y-216340859D01*
X273864783Y-216349528D01*
X273601780Y-216536139D01*
X273590006Y-216543538D01*
X273307744Y-216699539D01*
X273295215Y-216705572D01*
X272997272Y-216828983D01*
X272984148Y-216833576D01*
X272674252Y-216922856D01*
X272660695Y-216925950D01*
X272342759Y-216979970D01*
X272328941Y-216981527D01*
X272003472Y-216999805D01*
X271996519Y-217000000D01*
X265003481Y-217000000D01*
X264996528Y-216999805D01*
X264671058Y-216981527D01*
X264657240Y-216979970D01*
X264339304Y-216925950D01*
X264325747Y-216922856D01*
X264015851Y-216833576D01*
X264002727Y-216828983D01*
X263704784Y-216705572D01*
X263692255Y-216699539D01*
X263409993Y-216543538D01*
X263398219Y-216536139D01*
X263135216Y-216349528D01*
X263124344Y-216340859D01*
X262883872Y-216125960D01*
X262874039Y-216116127D01*
X262659140Y-215875655D01*
X262650471Y-215864783D01*
X262463860Y-215601780D01*
X262456461Y-215590006D01*
X262300460Y-215307744D01*
X262294427Y-215295215D01*
X262171016Y-214997272D01*
X262166423Y-214984148D01*
X262077143Y-214674252D01*
X262074049Y-214660695D01*
X262020029Y-214342759D01*
X262018472Y-214328940D01*
X262000195Y-214003471D01*
X262000000Y-213996519D01*
X262000000Y-206003480D01*
X262000195Y-205996528D01*
X262018472Y-205671059D01*
X262020029Y-205657240D01*
X262074049Y-205339304D01*
X262077143Y-205325747D01*
X262166423Y-205015851D01*
X262171016Y-205002727D01*
X262294427Y-204704784D01*
X262300460Y-204692255D01*
X262456461Y-204409993D01*
X262463860Y-204398219D01*
X262650471Y-204135216D01*
X262659140Y-204124344D01*
X262874039Y-203883872D01*
X262883872Y-203874039D01*
X263124344Y-203659140D01*
X263135216Y-203650471D01*
X263398219Y-203463860D01*
X263409993Y-203456461D01*
X263692255Y-203300460D01*
X263704784Y-203294427D01*
X264002727Y-203171016D01*
X264015851Y-203166423D01*
X264325747Y-203077143D01*
X264339304Y-203074049D01*
X264657240Y-203020029D01*
X264671059Y-203018472D01*
X264996529Y-203000195D01*
X265003481Y-203000000D01*
X271996519Y-203000000D01*
X272003471Y-203000195D01*
G37*
G36*
X119961980Y-176002383D02*
G01*
X120021480Y-176014218D01*
X120066179Y-176032732D01*
X120106268Y-176059518D01*
X120140481Y-176093731D01*
X120167267Y-176133820D01*
X120185781Y-176178517D01*
X120197617Y-176238017D01*
X120200000Y-176262210D01*
X120200000Y-178737789D01*
X120197617Y-178761982D01*
X120185781Y-178821482D01*
X120167267Y-178866179D01*
X120140481Y-178906268D01*
X120106268Y-178940481D01*
X120066179Y-178967267D01*
X120021482Y-178985781D01*
X119961982Y-178997617D01*
X119937789Y-179000000D01*
X119462211Y-179000000D01*
X119438019Y-178997617D01*
X119378518Y-178985781D01*
X119333820Y-178967267D01*
X119293731Y-178940481D01*
X119259518Y-178906268D01*
X119232732Y-178866179D01*
X119214218Y-178821480D01*
X119202383Y-178761980D01*
X119200000Y-178737789D01*
X119200000Y-176262210D01*
X119202383Y-176238019D01*
X119214218Y-176178519D01*
X119232732Y-176133820D01*
X119259518Y-176093731D01*
X119293731Y-176059518D01*
X119333820Y-176032732D01*
X119378520Y-176014217D01*
X119438021Y-176002382D01*
X119462211Y-176000000D01*
X119937789Y-176000000D01*
X119961980Y-176002383D01*
G37*
G36*
X175961980Y-211002383D02*
G01*
X176021480Y-211014218D01*
X176066179Y-211032732D01*
X176106268Y-211059518D01*
X176140481Y-211093731D01*
X176167267Y-211133820D01*
X176185781Y-211178517D01*
X176197617Y-211238017D01*
X176200000Y-211262210D01*
X176200000Y-212737789D01*
X176197617Y-212761982D01*
X176185781Y-212821482D01*
X176167267Y-212866179D01*
X176140481Y-212906268D01*
X176106268Y-212940481D01*
X176066179Y-212967267D01*
X176021482Y-212985781D01*
X175961982Y-212997617D01*
X175937789Y-213000000D01*
X174462211Y-213000000D01*
X174438019Y-212997617D01*
X174378518Y-212985781D01*
X174333820Y-212967267D01*
X174293731Y-212940481D01*
X174259518Y-212906268D01*
X174232732Y-212866179D01*
X174214218Y-212821480D01*
X174202383Y-212761980D01*
X174200000Y-212737789D01*
X174200000Y-211262210D01*
X174202383Y-211238019D01*
X174214218Y-211178519D01*
X174232732Y-211133820D01*
X174259518Y-211093731D01*
X174293731Y-211059518D01*
X174333820Y-211032732D01*
X174378520Y-211014217D01*
X174438021Y-211002382D01*
X174462211Y-211000000D01*
X175937789Y-211000000D01*
X175961980Y-211002383D01*
G37*
G36*
X127300306Y-105119685D02*
G01*
X127346061Y-105172489D01*
X127357267Y-105224000D01*
X127357267Y-108576000D01*
X127337582Y-108643039D01*
X127284778Y-108688794D01*
X127233267Y-108700000D01*
X123881267Y-108700000D01*
X123814228Y-108680315D01*
X123768473Y-108627511D01*
X123757267Y-108576000D01*
X123757267Y-105224000D01*
X123776952Y-105156961D01*
X123829756Y-105111206D01*
X123881267Y-105100000D01*
X127233267Y-105100000D01*
X127300306Y-105119685D01*
G37*
M02*
