M48
; DRILL file KiCad 10.0.1 date 2026-04-20T15:04:34
; FORMAT={-:-/ absolute / metric / decimal}
; #@! TF.CreationDate,2026-04-20T15:04:34+05:30
; #@! TF.GenerationSoftware,Kicad,Pcbnew,10.0.1
; #@! TF.FileFunction,Plated,1,2,PTH
FMAT,2
METRIC
; #@! TA.AperFunction,Plated,PTH,ComponentDrill
T1C0.200
; #@! TA.AperFunction,Plated,PTH,ComponentDrill
T2C0.250
; #@! TA.AperFunction,Plated,PTH,ViaDrill
T3C0.300
; #@! TA.AperFunction,Plated,PTH,ComponentDrill
T4C0.600
; #@! TA.AperFunction,Plated,PTH,ComponentDrill
T5C0.650
; #@! TA.AperFunction,Plated,PTH,ComponentDrill
T6C0.700
; #@! TA.AperFunction,Plated,PTH,ComponentDrill
T7C0.900
; #@! TA.AperFunction,Plated,PTH,ComponentDrill
T8C1.000
; #@! TA.AperFunction,Plated,PTH,ComponentDrill
T9C2.000
%
G90
G05
T1
X115.447Y-127.7
X115.447Y-129.0
X115.447Y-130.3
X117.357Y-127.7
X117.357Y-129.0
X117.357Y-130.3
T2
X111.601Y-88.519
X112.601Y-88.519
T3
X88.7Y-174.7
X88.7Y-175.5
X88.7Y-176.3
X88.7Y-177.1
X89.5Y-174.7
X89.5Y-175.5
X89.5Y-176.3
X89.5Y-177.1
X89.8Y-186.0
X89.8Y-186.8
X89.8Y-187.6
X89.8Y-188.4
X89.8Y-189.2
X89.8Y-190.0
X89.8Y-190.8
X89.8Y-191.6
X89.8Y-192.4
X89.8Y-193.2
X89.8Y-194.0
X89.8Y-194.8
X89.8Y-195.6
X89.8Y-196.4
X89.8Y-197.2
X89.8Y-198.1
X90.1Y-217.4
X90.1Y-218.2
X90.1Y-219.0
X90.1Y-219.8
X90.1Y-220.6
X90.1Y-221.4
X90.1Y-222.2
X90.1Y-223.0
X90.4Y-174.7
X90.4Y-175.5
X90.4Y-176.3
X90.4Y-177.1
X90.6Y-186.0
X90.6Y-198.1
X90.8Y-210.3
X90.8Y-211.1
X90.8Y-211.9
X90.9Y-217.4
X90.9Y-218.2
X90.9Y-219.0
X90.9Y-219.8
X90.9Y-220.6
X90.9Y-221.4
X90.9Y-222.2
X90.9Y-223.0
X91.2Y-174.7
X91.2Y-175.5
X91.2Y-176.3
X91.2Y-177.1
X91.4Y-186.0
X91.4Y-198.1
X91.6Y-210.3
X91.6Y-211.1
X91.6Y-211.9
X91.8Y-217.4
X91.8Y-218.2
X91.8Y-219.0
X91.8Y-219.8
X91.8Y-220.6
X91.8Y-221.4
X91.8Y-222.2
X91.8Y-223.0
X92.2Y-186.0
X92.2Y-198.1
X92.5Y-210.3
X92.5Y-211.1
X92.5Y-211.9
X92.6Y-217.4
X92.6Y-218.2
X92.6Y-219.0
X92.6Y-219.8
X92.6Y-220.6
X92.6Y-221.4
X92.6Y-222.2
X92.6Y-223.0
X92.857Y-162.0
X92.857Y-163.0
X92.857Y-164.0
X93.0Y-186.0
X93.0Y-198.1
X93.3Y-210.3
X93.3Y-211.1
X93.3Y-211.9
X93.8Y-186.0
X93.8Y-198.1
X93.857Y-162.0
X93.857Y-163.0
X93.857Y-164.0
X94.6Y-186.0
X94.6Y-198.1
X94.857Y-162.0
X94.857Y-163.0
X94.857Y-164.0
X95.4Y-186.0
X95.4Y-198.1
X96.2Y-186.0
X96.2Y-198.1
X97.0Y-186.0
X97.0Y-198.1
X97.3Y-216.5
X97.3Y-217.3
X97.8Y-186.0
X97.8Y-198.1
X98.1Y-216.5
X98.1Y-217.3
X98.6Y-186.0
X98.6Y-198.1
X99.3Y-206.2
X99.3Y-207.0
X99.4Y-186.0
X99.4Y-190.9
X99.4Y-191.7
X99.4Y-192.5
X99.4Y-193.3
X99.4Y-194.1
X99.4Y-194.9
X99.4Y-195.7
X99.4Y-196.5
X99.4Y-197.3
X99.4Y-198.1
X100.1Y-206.2
X100.1Y-207.0
X100.2Y-186.0
X100.2Y-186.8
X100.2Y-187.5
X100.2Y-190.9
X100.4Y-220.7
X101.0Y-187.5
X101.0Y-190.9
X101.3Y-212.5
X101.3Y-216.3
X101.3Y-217.5
X101.3Y-218.3
X101.3Y-220.7
X101.8Y-187.5
X101.8Y-190.9
X101.857Y-76.0
X101.857Y-77.0
X101.857Y-78.0
X102.1Y-218.3
X102.6Y-187.5
X102.6Y-190.9
X102.8Y-212.5
X102.857Y-76.0
X102.857Y-77.0
X102.857Y-78.0
X102.857Y-115.0
X102.857Y-116.0
X102.857Y-117.0
X102.9Y-198.5
X103.5Y-202.2
X103.857Y-76.0
X103.857Y-77.0
X103.857Y-78.0
X103.857Y-115.0
X103.857Y-116.0
X103.857Y-117.0
X104.1Y-175.2
X104.1Y-175.9
X104.1Y-215.9
X104.2Y-218.0
X104.8Y-175.2
X104.8Y-175.9
X104.857Y-115.0
X104.857Y-116.0
X104.857Y-117.0
X104.9Y-212.6
X104.9Y-215.9
X105.0Y-218.0
X105.5Y-175.2
X105.5Y-175.9
X105.5Y-207.3
X105.5Y-208.2
X105.6Y-209.3
X105.6Y-211.7
X105.7Y-215.9
X105.857Y-92.0
X106.0Y-200.5
X106.2Y-175.2
X106.2Y-175.9
X106.4Y-198.6
X106.8Y-200.5
X106.9Y-204.0
X107.0Y-125.0
X107.0Y-205.0
X107.7Y-200.5
X107.7Y-218.3
X107.7Y-219.0
X108.0Y-125.0
X108.144Y-201.166
X108.4Y-218.3
X108.4Y-219.0
X109.0Y-125.0
X109.1Y-218.3
X109.1Y-219.0
X109.357Y-152.0
X110.0Y-125.0
X110.357Y-88.0
X110.357Y-89.0
X110.357Y-152.0
X110.6Y-185.3
X110.857Y-90.7
X110.907Y-182.493
X111.0Y-125.0
X111.007Y-183.393
X111.2Y-184.3
X111.257Y-81.0
X111.357Y-152.0
X111.857Y-110.0
X111.857Y-111.0
X111.857Y-112.0
X112.0Y-125.0
X112.1Y-188.8
X112.1Y-189.6
X112.157Y-81.0
X112.3Y-200.4
X112.3Y-201.2
X112.325Y-182.912
X112.701Y-184.033
X112.857Y-110.0
X112.857Y-111.0
X112.857Y-112.0
X112.857Y-152.0
X112.9Y-188.8
X112.9Y-189.6
X113.057Y-81.0
X113.1Y-200.4
X113.1Y-201.2
X113.3Y-204.6
X113.857Y-88.0
X113.857Y-110.0
X113.857Y-111.0
X113.857Y-112.0
X113.857Y-152.0
X114.1Y-205.2
X114.357Y-87.0
X114.8Y-205.9
X114.857Y-124.5
X114.857Y-125.5
X114.857Y-152.0
X115.093Y-184.793
X115.5Y-206.6
X115.675Y-182.8
X115.857Y-124.5
X115.857Y-125.5
X116.2Y-176.8
X116.2Y-177.6
X116.25Y-183.6
X116.3Y-207.3
X116.357Y-152.0
X116.857Y-124.5
X116.857Y-125.5
X117.0Y-176.8
X117.0Y-177.6
X117.0Y-182.8
X117.1Y-208.2
X117.357Y-132.5
X117.357Y-133.5
X117.357Y-152.0
X117.7Y-188.8
X117.7Y-189.6
X117.7Y-204.9
X117.8Y-183.6
X117.857Y-124.5
X117.857Y-125.5
X118.3Y-205.6
X118.357Y-132.5
X118.357Y-133.5
X118.357Y-152.0
X118.5Y-188.8
X118.5Y-189.6
X118.8Y-221.3
X118.8Y-222.1
X118.9Y-204.9
X119.157Y-90.7
X119.357Y-133.5
X119.5Y-186.4
X119.5Y-187.2
X119.6Y-221.3
X119.6Y-222.1
X120.0Y-207.3
X120.0Y-208.1
X120.0Y-213.2
X120.0Y-214.0
X120.05Y-211.85
X120.193Y-210.893
X120.3Y-186.4
X120.3Y-187.2
X120.357Y-132.5
X120.357Y-133.5
X120.8Y-207.3
X120.8Y-208.1
X120.8Y-213.2
X120.8Y-214.0
X120.9Y-217.7
X120.9Y-218.5
X121.357Y-133.5
X121.7Y-217.7
X121.7Y-218.5
X122.075Y-191.1
X122.1Y-187.2
X122.357Y-133.5
X122.7Y-190.6
X123.357Y-133.5
X125.5Y-207.5
X125.5Y-208.3
X125.857Y-69.0
X125.857Y-70.0
X125.857Y-71.0
X125.857Y-81.0
X125.857Y-82.0
X125.857Y-83.0
X125.857Y-83.0
X125.857Y-84.5
X125.857Y-85.5
X125.857Y-86.5
X125.857Y-88.0
X125.857Y-89.0
X125.857Y-90.0
X125.857Y-110.5
X125.857Y-111.5
X125.857Y-112.5
X125.857Y-118.0
X125.857Y-119.0
X125.857Y-120.0
X125.857Y-161.0
X125.857Y-162.0
X125.857Y-163.0
X126.3Y-173.2
X126.3Y-174.0
X126.3Y-174.8
X126.3Y-175.6
X126.3Y-182.9
X126.3Y-183.7
X126.3Y-207.5
X126.3Y-208.3
X126.857Y-69.0
X126.857Y-70.0
X126.857Y-71.0
X126.857Y-110.5
X126.857Y-111.5
X126.857Y-112.5
X126.857Y-118.0
X126.857Y-119.0
X126.857Y-120.0
X126.857Y-161.0
X126.857Y-162.0
X126.857Y-163.0
X127.1Y-173.2
X127.1Y-174.0
X127.1Y-174.8
X127.1Y-175.6
X127.1Y-182.9
X127.1Y-183.7
X127.7Y-210.6
X127.7Y-211.4
X127.857Y-69.0
X127.857Y-70.0
X127.857Y-71.0
X127.857Y-110.5
X127.857Y-111.5
X127.857Y-118.0
X127.857Y-119.0
X127.857Y-120.0
X127.857Y-161.0
X127.857Y-162.0
X127.857Y-163.0
X127.9Y-218.7
X127.9Y-219.5
X127.9Y-223.0
X127.9Y-223.8
X128.0Y-173.2
X128.0Y-174.0
X128.0Y-174.8
X128.0Y-175.6
X128.5Y-210.6
X128.5Y-211.4
X128.7Y-218.7
X128.7Y-219.5
X128.7Y-223.0
X128.7Y-223.8
X128.8Y-173.2
X128.8Y-174.0
X128.8Y-174.8
X128.8Y-175.6
X137.5Y-108.0
X137.5Y-110.5
X137.5Y-113.0
X137.5Y-115.5
X137.5Y-118.0
X137.5Y-120.5
X137.5Y-123.0
X137.5Y-125.5
X137.5Y-128.0
X137.5Y-130.5
X137.5Y-133.0
X137.5Y-135.5
X137.5Y-138.0
X137.5Y-140.5
X137.5Y-143.0
X137.5Y-145.5
X137.5Y-148.0
X137.5Y-150.5
X137.5Y-153.0
X137.5Y-155.5
X137.5Y-158.0
X137.5Y-160.5
X137.5Y-163.0
X137.5Y-165.5
X137.5Y-168.0
X137.5Y-170.5
X137.5Y-173.0
X140.0Y-105.5
X140.0Y-108.0
X140.0Y-110.5
X140.0Y-113.0
X140.0Y-115.5
X140.0Y-118.0
X140.0Y-120.5
X140.0Y-123.0
X140.0Y-125.5
X140.0Y-128.0
X140.0Y-130.5
X140.0Y-133.0
X140.0Y-135.5
X140.0Y-138.0
X140.0Y-140.5
X140.0Y-143.0
X140.0Y-145.5
X140.0Y-148.0
X140.0Y-150.5
X140.0Y-153.0
X140.0Y-155.5
X140.0Y-158.0
X140.0Y-160.5
X140.0Y-163.0
X140.0Y-165.5
X140.0Y-168.0
X140.0Y-170.5
X140.0Y-173.0
X142.0Y-107.0
X142.0Y-108.0
X142.0Y-109.0
X142.0Y-110.0
X142.0Y-111.0
X142.0Y-112.0
X142.0Y-113.0
X142.0Y-114.0
X142.0Y-115.0
X142.0Y-138.0
X142.0Y-139.0
X142.0Y-140.0
X142.0Y-141.0
X142.0Y-142.0
X142.0Y-143.0
X142.0Y-144.0
X142.0Y-145.0
X142.0Y-146.0
X142.0Y-147.0
X142.0Y-148.0
X142.0Y-149.0
X142.0Y-150.0
X142.0Y-151.0
X142.0Y-152.0
X142.0Y-153.0
X142.0Y-154.0
X142.0Y-155.0
X142.0Y-156.0
X142.0Y-157.0
X142.0Y-158.0
X142.0Y-159.0
X142.0Y-160.0
X142.0Y-161.0
X142.0Y-162.0
X142.0Y-163.0
X142.0Y-164.0
X142.0Y-165.0
X142.0Y-166.0
X142.0Y-167.0
X142.0Y-168.0
X142.0Y-169.0
X142.0Y-170.0
X142.0Y-171.0
X142.0Y-172.0
X142.0Y-173.0
X142.5Y-105.5
X142.5Y-135.5
X142.5Y-175.5
X142.7Y-118.5
X142.7Y-119.2
X143.0Y-107.0
X143.0Y-108.0
X143.0Y-109.0
X143.0Y-110.0
X143.0Y-111.0
X143.0Y-112.0
X143.0Y-113.0
X143.0Y-114.0
X143.0Y-115.0
X143.0Y-138.0
X143.0Y-139.0
X143.0Y-140.0
X143.0Y-141.0
X143.0Y-142.0
X143.0Y-143.0
X143.0Y-144.0
X143.0Y-145.0
X143.0Y-146.0
X143.0Y-147.0
X143.0Y-148.0
X143.0Y-149.0
X143.0Y-150.0
X143.0Y-151.0
X143.0Y-152.0
X143.0Y-153.0
X143.0Y-154.0
X143.0Y-155.0
X143.0Y-156.0
X143.0Y-157.0
X143.0Y-158.0
X143.0Y-159.0
X143.0Y-160.0
X143.0Y-161.0
X143.0Y-162.0
X143.0Y-163.0
X143.0Y-164.0
X143.0Y-165.0
X143.0Y-166.0
X143.0Y-167.0
X143.0Y-168.0
X143.0Y-169.0
X143.0Y-170.0
X143.0Y-171.0
X143.0Y-172.0
X143.0Y-173.0
X143.5Y-118.5
X143.5Y-119.2
X144.0Y-107.0
X144.0Y-108.0
X144.0Y-109.0
X144.0Y-110.0
X144.0Y-111.0
X144.0Y-112.0
X144.0Y-113.0
X144.0Y-114.0
X144.0Y-115.0
X144.0Y-138.0
X144.0Y-139.0
X144.0Y-140.0
X144.0Y-141.0
X144.0Y-142.0
X144.0Y-143.0
X144.0Y-144.0
X144.0Y-145.0
X144.0Y-146.0
X144.0Y-147.0
X144.0Y-148.0
X144.0Y-149.0
X144.0Y-150.0
X144.0Y-151.0
X144.0Y-152.0
X144.0Y-153.0
X144.0Y-154.0
X144.0Y-155.0
X144.0Y-156.0
X144.0Y-157.0
X144.0Y-158.0
X144.0Y-159.0
X144.0Y-160.0
X144.0Y-161.0
X144.0Y-162.0
X144.0Y-163.0
X144.0Y-164.0
X144.0Y-165.0
X144.0Y-166.0
X144.0Y-167.0
X144.0Y-168.0
X144.0Y-169.0
X144.0Y-170.0
X144.0Y-171.0
X144.0Y-172.0
X144.0Y-173.0
X144.3Y-118.5
X144.3Y-119.2
X145.0Y-105.5
X145.0Y-107.0
X145.0Y-108.0
X145.0Y-109.0
X145.0Y-110.5
X145.0Y-113.0
X145.0Y-115.5
X145.0Y-118.0
X145.0Y-140.5
X145.0Y-143.0
X145.0Y-145.5
X145.0Y-148.0
X145.0Y-150.5
X145.0Y-153.0
X145.0Y-155.5
X145.0Y-158.0
X145.0Y-160.5
X145.0Y-163.0
X145.0Y-165.5
X145.0Y-168.0
X145.0Y-170.5
X145.0Y-173.0
X145.0Y-175.5
X146.0Y-107.0
X146.0Y-108.0
X146.0Y-109.0
X147.0Y-107.0
X147.0Y-108.0
X147.0Y-109.0
X147.5Y-105.5
X147.5Y-110.5
X147.5Y-113.0
X147.5Y-115.5
X147.5Y-140.5
X147.5Y-143.0
X147.5Y-145.5
X147.5Y-148.0
X147.5Y-150.5
X147.5Y-153.0
X147.5Y-155.5
X147.5Y-158.0
X147.5Y-160.5
X147.5Y-163.0
X147.5Y-165.5
X147.5Y-168.0
X147.5Y-170.5
X147.5Y-173.0
X147.5Y-175.5
X150.0Y-105.5
X150.0Y-108.0
X150.0Y-110.5
X150.0Y-113.0
X150.0Y-115.5
X150.0Y-140.5
X150.0Y-143.0
X150.0Y-144.0
X150.0Y-145.0
X150.0Y-146.0
X150.0Y-147.0
X150.0Y-148.0
X150.0Y-149.0
X150.0Y-150.0
X150.0Y-151.0
X150.0Y-152.0
X150.0Y-153.0
X150.0Y-154.0
X150.0Y-155.0
X150.0Y-156.0
X150.0Y-157.0
X150.0Y-158.0
X150.0Y-159.0
X150.0Y-160.0
X150.0Y-161.0
X150.0Y-162.0
X150.0Y-163.0
X150.0Y-164.0
X150.0Y-165.0
X150.0Y-166.0
X150.0Y-167.0
X150.0Y-168.0
X150.0Y-169.0
X150.0Y-170.0
X150.0Y-171.0
X150.0Y-172.0
X150.0Y-173.0
X150.0Y-175.5
X151.0Y-144.0
X151.0Y-145.0
X151.0Y-146.0
X151.0Y-147.0
X151.0Y-148.0
X151.0Y-149.0
X151.0Y-150.0
X151.0Y-151.0
X151.0Y-152.0
X151.0Y-153.0
X151.0Y-154.0
X151.0Y-155.0
X151.0Y-156.0
X151.0Y-157.0
X151.0Y-158.0
X151.0Y-159.0
X151.0Y-160.0
X151.0Y-161.0
X151.0Y-162.0
X151.0Y-163.0
X151.0Y-164.0
X151.0Y-165.0
X151.0Y-166.0
X151.0Y-167.0
X151.0Y-168.0
X151.0Y-169.0
X151.0Y-170.0
X151.0Y-171.0
X151.0Y-172.0
X151.0Y-173.0
X152.0Y-144.0
X152.0Y-145.0
X152.0Y-146.0
X152.0Y-147.0
X152.0Y-148.0
X152.0Y-149.0
X152.0Y-150.0
X152.0Y-151.0
X152.0Y-152.0
X152.0Y-153.0
X152.0Y-154.0
X152.0Y-155.0
X152.0Y-156.0
X152.0Y-157.0
X152.0Y-158.0
X152.0Y-159.0
X152.0Y-160.0
X152.0Y-161.0
X152.0Y-162.0
X152.0Y-163.0
X152.0Y-164.0
X152.0Y-165.0
X152.0Y-166.0
X152.0Y-167.0
X152.0Y-168.0
X152.0Y-169.0
X152.0Y-170.0
X152.0Y-171.0
X152.0Y-172.0
X152.0Y-173.0
X152.5Y-105.5
X152.5Y-140.5
X152.5Y-143.0
X152.5Y-175.5
X155.0Y-140.5
X155.0Y-143.0
X155.0Y-168.0
X155.0Y-170.5
X155.0Y-173.0
X155.0Y-175.5
X157.5Y-140.5
X157.5Y-170.5
X157.5Y-173.0
X157.5Y-175.5
X158.0Y-112.0
X158.0Y-113.0
X159.0Y-111.0
X159.0Y-112.0
X159.0Y-113.0
X160.0Y-110.0
X160.0Y-111.0
X160.0Y-112.0
X160.0Y-113.0
X160.0Y-173.0
X160.0Y-175.5
X160.7Y-179.7
X160.7Y-180.5
X160.7Y-181.3
X160.7Y-200.2
X160.7Y-201.0
X160.7Y-201.8
X160.7Y-207.5
X160.7Y-208.3
X160.7Y-209.1
X160.7Y-214.8
X160.7Y-215.6
X160.7Y-216.4
X160.9Y-188.6
X160.9Y-189.4
X160.9Y-190.2
X160.9Y-191.4
X160.9Y-192.2
X160.9Y-193.0
X161.0Y-109.0
X161.0Y-110.0
X161.0Y-111.0
X161.0Y-112.0
X161.0Y-113.0
X161.6Y-200.2
X161.6Y-201.0
X161.6Y-201.8
X161.6Y-207.5
X161.6Y-208.3
X161.6Y-209.1
X161.6Y-214.8
X161.6Y-215.6
X161.6Y-216.4
X161.7Y-86.2
X161.7Y-87.0
X161.7Y-87.8
X161.7Y-88.6
X161.7Y-89.4
X161.7Y-90.2
X161.8Y-188.6
X161.8Y-189.4
X161.8Y-190.2
X161.8Y-191.4
X161.8Y-192.2
X161.8Y-193.0
X161.9Y-178.5
X161.9Y-182.4
X162.0Y-108.0
X162.0Y-109.0
X162.0Y-110.0
X162.0Y-111.0
X162.0Y-112.0
X162.0Y-113.0
X162.2Y-62.7
X162.2Y-63.5
X162.2Y-64.3
X162.2Y-65.1
X162.2Y-65.9
X162.2Y-66.7
X162.2Y-74.4
X162.2Y-75.2
X162.2Y-76.0
X162.2Y-96.9
X162.2Y-97.7
X162.2Y-98.5
X162.5Y-68.0
X162.5Y-70.5
X162.5Y-73.0
X162.5Y-86.2
X162.5Y-87.0
X162.5Y-87.8
X162.5Y-88.6
X162.5Y-89.4
X162.5Y-90.2
X162.5Y-93.0
X162.5Y-95.5
X162.5Y-200.2
X162.5Y-201.0
X162.5Y-201.8
X162.5Y-205.5
X162.5Y-207.5
X162.5Y-208.3
X162.5Y-209.1
X162.5Y-210.5
X162.5Y-213.0
X162.5Y-214.8
X162.5Y-215.6
X162.5Y-216.4
X162.7Y-178.5
X162.7Y-182.4
X162.7Y-188.6
X162.7Y-189.4
X162.7Y-190.2
X163.0Y-62.7
X163.0Y-63.5
X163.0Y-64.3
X163.0Y-65.1
X163.0Y-65.9
X163.0Y-66.7
X163.0Y-74.4
X163.0Y-75.2
X163.0Y-76.0
X163.0Y-96.9
X163.0Y-97.7
X163.0Y-98.5
X163.0Y-108.0
X163.0Y-109.0
X163.0Y-110.0
X163.0Y-111.0
X163.0Y-112.0
X163.0Y-113.0
X163.1Y-166.8
X163.3Y-86.2
X163.3Y-87.0
X163.3Y-87.8
X163.3Y-88.6
X163.3Y-89.4
X163.3Y-90.2
X163.5Y-178.5
X163.5Y-182.4
X163.8Y-62.7
X163.8Y-63.5
X163.8Y-64.3
X163.8Y-65.1
X163.8Y-65.9
X163.8Y-66.7
X163.8Y-74.4
X163.8Y-75.2
X163.8Y-76.0
X163.8Y-96.9
X163.8Y-97.7
X163.8Y-98.5
X164.0Y-108.0
X164.0Y-109.0
X164.0Y-110.0
X164.0Y-111.0
X164.0Y-112.0
X164.0Y-113.0
X164.1Y-86.2
X164.1Y-87.0
X164.1Y-87.8
X164.1Y-166.8
X164.1Y-167.8
X164.6Y-62.7
X164.6Y-63.5
X164.6Y-64.3
X164.9Y-86.2
X164.9Y-87.0
X164.9Y-87.8
X165.0Y-65.5
X165.0Y-68.0
X165.0Y-70.5
X165.0Y-73.0
X165.0Y-90.5
X165.0Y-93.0
X165.0Y-95.5
X165.0Y-108.0
X165.0Y-109.0
X165.0Y-110.0
X165.0Y-111.0
X165.0Y-112.0
X165.0Y-113.0
X165.0Y-200.5
X165.0Y-205.5
X165.0Y-208.0
X165.0Y-210.5
X165.0Y-213.0
X165.0Y-215.5
X165.1Y-166.8
X165.1Y-167.8
X165.1Y-168.8
X165.4Y-62.7
X165.4Y-63.5
X165.4Y-64.3
X165.7Y-86.2
X165.7Y-87.0
X165.7Y-87.8
X166.0Y-108.0
X166.0Y-109.0
X166.0Y-110.0
X166.0Y-111.0
X166.0Y-112.0
X166.0Y-113.0
X166.0Y-211.0
X166.0Y-212.0
X166.0Y-213.0
X166.0Y-214.0
X166.1Y-166.8
X166.1Y-167.8
X166.1Y-168.8
X166.1Y-169.8
X166.2Y-62.7
X166.2Y-63.5
X166.2Y-64.3
X167.0Y-72.1
X167.0Y-108.0
X167.0Y-109.0
X167.0Y-110.0
X167.0Y-111.0
X167.0Y-112.0
X167.0Y-113.0
X167.1Y-166.8
X167.1Y-167.8
X167.1Y-168.8
X167.1Y-169.8
X167.1Y-170.8
X167.4Y-101.5
X167.5Y-63.0
X167.5Y-65.5
X167.5Y-68.0
X167.5Y-100.5
X167.5Y-215.5
X167.6Y-191.3
X167.6Y-192.2
X167.6Y-193.1
X167.7Y-77.8
X167.7Y-78.6
X167.8Y-72.1
X168.0Y-108.0
X168.0Y-109.0
X168.0Y-110.0
X168.0Y-111.0
X168.0Y-112.0
X168.0Y-113.0
X168.1Y-166.8
X168.1Y-167.8
X168.1Y-168.8
X168.1Y-169.8
X168.1Y-170.8
X168.1Y-171.8
X168.2Y-101.5
X168.6Y-72.1
X169.0Y-101.5
X169.0Y-210.5
X169.1Y-166.8
X169.1Y-167.8
X169.1Y-168.8
X169.1Y-169.8
X169.1Y-170.8
X169.1Y-171.8
X169.2Y-203.7
X170.0Y-63.0
X170.0Y-65.5
X170.0Y-68.0
X170.0Y-100.5
X170.0Y-215.5
X170.1Y-166.8
X170.1Y-167.8
X170.1Y-168.8
X170.1Y-169.8
X170.1Y-170.8
X170.1Y-171.8
X170.3Y-178.4
X170.7Y-203.3
X170.7Y-204.0
X171.1Y-166.8
X171.1Y-167.8
X171.1Y-168.8
X171.1Y-169.8
X171.1Y-170.8
X171.1Y-171.8
X171.2Y-178.4
X171.2Y-179.2
X171.5Y-203.3
X171.5Y-204.0
X171.8Y-89.2
X172.0Y-211.0
X172.0Y-212.0
X172.0Y-213.0
X172.0Y-214.0
X172.1Y-178.4
X172.1Y-179.2
X172.1Y-180.0
X172.5Y-63.0
X172.5Y-65.5
X172.5Y-100.5
X172.5Y-190.7
X172.5Y-215.5
X172.7Y-89.2
X172.9Y-178.4
X172.9Y-179.2
X172.9Y-180.0
X172.9Y-180.7
X172.9Y-181.5
X173.2Y-76.2
X173.4Y-190.7
X173.6Y-89.2
X173.8Y-178.4
X173.8Y-179.2
X173.8Y-180.0
X173.8Y-180.7
X173.8Y-181.5
X173.8Y-182.3
X174.0Y-70.1
X174.0Y-101.5
X174.3Y-190.7
X174.5Y-76.0
X174.5Y-76.7
X174.7Y-178.4
X174.7Y-179.2
X174.7Y-180.0
X174.7Y-180.7
X174.7Y-181.5
X174.7Y-182.3
X174.7Y-183.1
X174.7Y-183.9
X174.7Y-184.7
X174.8Y-101.5
X175.0Y-63.0
X175.0Y-68.0
X175.0Y-100.5
X175.0Y-108.0
X175.0Y-109.0
X175.0Y-110.0
X175.0Y-111.0
X175.0Y-112.0
X175.0Y-113.0
X175.0Y-215.5
X175.3Y-76.0
X175.3Y-76.7
X175.6Y-101.5
X176.0Y-108.0
X176.0Y-109.0
X176.0Y-110.0
X176.0Y-111.0
X176.0Y-112.0
X176.0Y-113.0
X177.0Y-108.0
X177.0Y-109.0
X177.0Y-110.0
X177.0Y-111.0
X177.0Y-112.0
X177.0Y-113.0
X177.5Y-65.5
X177.5Y-68.0
X177.5Y-215.5
X177.7Y-166.8
X177.7Y-167.8
X177.7Y-168.8
X177.7Y-169.8
X177.7Y-170.8
X177.7Y-171.8
X178.0Y-108.0
X178.0Y-109.0
X178.0Y-110.0
X178.0Y-111.0
X178.0Y-112.0
X178.0Y-113.0
X178.1Y-63.2
X178.1Y-64.1
X178.3Y-86.9
X178.3Y-87.8
X178.3Y-88.7
X178.3Y-201.4
X178.3Y-202.2
X178.7Y-166.8
X178.7Y-167.8
X178.7Y-168.8
X178.7Y-169.8
X178.7Y-170.8
X178.7Y-171.8
X178.8Y-191.3
X178.8Y-192.1
X178.8Y-192.9
X178.9Y-63.2
X178.9Y-64.1
X179.0Y-109.0
X179.0Y-110.0
X179.0Y-111.0
X179.0Y-112.0
X179.0Y-113.0
X179.7Y-63.2
X179.7Y-64.1
X179.7Y-166.8
X179.7Y-167.8
X179.7Y-168.8
X179.7Y-169.8
X179.7Y-170.8
X179.7Y-171.8
X179.7Y-191.3
X179.7Y-192.1
X179.7Y-192.9
X180.0Y-65.5
X180.0Y-68.0
X180.0Y-90.5
X180.0Y-93.0
X180.0Y-110.0
X180.0Y-111.0
X180.0Y-112.0
X180.0Y-113.0
X180.0Y-210.5
X180.0Y-213.0
X180.0Y-215.5
X180.6Y-63.2
X180.6Y-64.2
X180.6Y-191.3
X180.6Y-192.1
X180.6Y-192.9
X180.7Y-166.8
X180.7Y-167.8
X180.7Y-168.8
X180.7Y-169.8
X180.7Y-170.8
X180.7Y-171.8
X181.0Y-111.0
X181.0Y-112.0
X181.0Y-113.0
X181.2Y-101.2
X181.7Y-166.8
X181.7Y-167.8
X181.7Y-168.8
X181.7Y-169.8
X181.7Y-170.8
X181.7Y-171.8
X181.9Y-91.2
X181.9Y-92.0
X181.9Y-92.8
X182.0Y-74.1
X182.0Y-74.9
X182.0Y-75.7
X182.0Y-101.2
X182.0Y-112.0
X182.0Y-113.0
X182.3Y-66.1
X182.3Y-66.9
X182.3Y-67.7
X182.4Y-62.1
X182.4Y-79.6
X182.4Y-203.9
X182.4Y-206.6
X182.4Y-207.4
X182.4Y-208.2
X182.4Y-214.8
X182.4Y-215.6
X182.4Y-216.4
X182.5Y-73.0
X182.5Y-95.5
X182.5Y-98.0
X182.5Y-100.5
X182.5Y-189.9
X182.5Y-190.7
X182.5Y-191.5
X182.5Y-192.3
X182.5Y-193.1
X182.5Y-193.9
X182.5Y-205.5
X182.5Y-210.5
X182.5Y-213.0
X182.7Y-91.2
X182.7Y-92.0
X182.7Y-92.8
X182.7Y-166.8
X182.7Y-167.8
X182.7Y-168.8
X182.7Y-169.8
X182.7Y-170.8
X182.7Y-171.8
X182.8Y-70.7
X182.8Y-74.1
X182.8Y-74.9
X182.8Y-75.7
X182.8Y-101.2
X182.8Y-180.1
X182.8Y-180.9
X183.0Y-113.0
X183.1Y-66.1
X183.1Y-66.9
X183.1Y-67.7
X183.2Y-62.1
X183.2Y-79.6
X183.3Y-203.9
X183.3Y-206.6
X183.3Y-207.4
X183.3Y-208.2
X183.3Y-214.8
X183.3Y-215.6
X183.3Y-216.4
X183.4Y-189.9
X183.4Y-190.7
X183.4Y-191.5
X183.4Y-192.3
X183.4Y-193.1
X183.4Y-193.9
X183.5Y-91.2
X183.5Y-92.0
X183.5Y-92.8
X183.6Y-74.1
X183.6Y-74.9
X183.6Y-75.7
X183.7Y-166.8
X183.7Y-167.8
X183.7Y-168.8
X183.7Y-169.8
X183.7Y-170.8
X183.7Y-171.8
X183.7Y-179.3
X183.7Y-180.1
X183.7Y-180.9
X183.9Y-66.1
X183.9Y-66.9
X183.9Y-67.7
X183.9Y-98.4
X183.9Y-99.2
X183.9Y-100.0
X184.0Y-62.1
X184.0Y-79.6
X184.2Y-70.1
X184.2Y-203.9
X184.2Y-206.6
X184.2Y-207.4
X184.2Y-208.2
X184.2Y-214.8
X184.2Y-215.6
X184.2Y-216.4
X184.3Y-87.0
X184.3Y-87.8
X184.3Y-88.6
X184.3Y-189.9
X184.3Y-190.7
X184.3Y-191.5
X184.3Y-192.3
X184.3Y-193.1
X184.3Y-193.9
X184.5Y-71.4
X184.6Y-179.3
X184.6Y-180.1
X184.6Y-180.9
X184.7Y-166.8
X184.7Y-167.8
X184.7Y-168.8
X184.7Y-169.8
X184.7Y-170.8
X185.7Y-166.8
X185.7Y-167.8
X185.7Y-168.8
X185.7Y-169.8
X186.0Y-72.9
X186.2Y-76.2
X186.2Y-77.0
X186.3Y-61.2
X186.3Y-62.0
X186.3Y-66.1
X186.3Y-66.9
X186.3Y-67.7
X186.3Y-68.5
X186.7Y-166.8
X186.7Y-167.8
X186.7Y-168.8
X187.0Y-76.2
X187.0Y-77.0
X187.1Y-61.2
X187.1Y-62.0
X187.1Y-66.1
X187.1Y-66.9
X187.1Y-67.7
X187.1Y-68.5
X187.5Y-70.5
X187.7Y-166.8
X187.7Y-167.8
X187.9Y-66.1
X187.9Y-66.9
X187.9Y-67.7
X187.9Y-68.5
X188.0Y-74.9
X188.7Y-66.1
X188.7Y-66.9
X188.7Y-67.7
X188.7Y-68.5
X189.5Y-66.1
X189.5Y-66.9
X189.5Y-67.7
X189.5Y-68.5
X189.5Y-69.3
X189.5Y-70.1
X189.5Y-70.9
X189.5Y-71.7
X189.8Y-78.5
X190.0Y-73.0
X190.0Y-76.9
X190.3Y-66.1
X190.3Y-66.9
X190.3Y-67.7
X190.3Y-68.5
X190.3Y-69.3
X190.3Y-70.1
X190.3Y-70.9
X190.3Y-71.7
X190.6Y-78.5
X191.1Y-66.1
X191.1Y-66.9
X191.1Y-67.7
X191.1Y-68.5
X191.1Y-69.3
X191.1Y-70.1
X191.1Y-70.9
X191.1Y-71.7
X191.1Y-193.7
X191.1Y-200.4
X191.1Y-201.2
X191.1Y-202.1
X191.1Y-203.0
X191.1Y-204.0
X191.1Y-204.9
X191.4Y-178.9
X191.4Y-179.9
X191.4Y-180.9
X191.4Y-181.8
X191.4Y-182.7
X191.4Y-187.2
X191.4Y-188.1
X191.4Y-189.0
X191.6Y-210.5
X191.8Y-78.5
X191.9Y-66.1
X191.9Y-66.9
X191.9Y-67.7
X191.9Y-68.5
X191.9Y-69.3
X191.9Y-70.1
X191.9Y-70.9
X191.9Y-71.7
X192.3Y-178.9
X192.3Y-179.9
X192.3Y-180.9
X192.3Y-181.8
X192.3Y-182.7
X192.4Y-187.2
X192.4Y-188.1
X192.4Y-189.0
X192.5Y-68.0
X192.5Y-70.5
X192.5Y-73.0
X192.5Y-75.5
X192.6Y-78.5
X193.2Y-178.9
X193.2Y-179.9
X193.2Y-180.9
X193.2Y-181.8
X193.2Y-182.7
X193.8Y-78.4
X194.0Y-61.2
X194.0Y-62.0
X194.1Y-193.8
X194.8Y-61.2
X194.8Y-62.0
X194.8Y-179.0
X194.9Y-79.8
X194.9Y-80.5
X195.0Y-65.5
X195.0Y-68.0
X195.0Y-70.5
X195.0Y-73.0
X195.0Y-75.5
X195.0Y-83.0
X195.0Y-85.5
X195.0Y-88.0
X195.0Y-90.5
X195.0Y-99.3
X195.0Y-100.0
X195.0Y-193.8
X195.2Y-92.4
X195.2Y-93.1
X195.2Y-93.8
X195.2Y-94.5
X195.2Y-95.2
X195.2Y-95.9
X195.4Y-180.3
X195.5Y-106.3
X195.5Y-109.7
X195.6Y-79.8
X195.6Y-80.5
X195.7Y-99.3
X195.7Y-100.0
X195.9Y-92.4
X195.9Y-93.1
X195.9Y-93.8
X195.9Y-94.5
X195.9Y-95.2
X195.9Y-95.9
X195.9Y-193.8
X196.6Y-92.4
X196.6Y-93.1
X196.6Y-93.8
X196.6Y-94.5
X196.6Y-95.2
X196.6Y-95.9
X196.7Y-182.7
X197.0Y-167.0
X197.0Y-168.0
X197.0Y-169.0
X197.3Y-92.4
X197.3Y-93.1
X197.3Y-93.8
X197.3Y-94.5
X197.3Y-95.2
X197.3Y-95.9
X197.5Y-65.5
X197.5Y-68.0
X197.5Y-70.5
X197.5Y-73.0
X197.5Y-75.5
X197.5Y-88.0
X197.5Y-90.5
X198.0Y-92.4
X198.0Y-93.1
X198.0Y-93.8
X198.0Y-94.5
X198.0Y-95.2
X198.0Y-95.9
X198.0Y-167.0
X198.0Y-168.0
X198.0Y-169.0
X198.7Y-92.4
X198.7Y-93.1
X198.7Y-93.8
X198.7Y-94.5
X198.7Y-95.2
X198.7Y-95.9
X198.8Y-189.5
X198.8Y-190.3
X198.8Y-191.1
X198.8Y-191.9
X198.8Y-208.8
X198.8Y-209.7
X198.8Y-210.6
X199.0Y-167.0
X199.0Y-168.0
X199.0Y-169.0
X199.2Y-97.3
X199.2Y-108.6
X199.7Y-208.8
X199.7Y-209.7
X199.7Y-210.6
X200.0Y-65.5
X200.0Y-68.0
X200.0Y-70.5
X200.0Y-73.0
X200.0Y-75.5
X200.0Y-83.0
X200.0Y-85.5
X200.0Y-88.0
X200.0Y-90.5
X200.0Y-93.0
X200.0Y-95.5
X200.0Y-167.0
X200.0Y-168.0
X200.0Y-169.0
X200.6Y-188.6
X200.6Y-189.6
X200.6Y-190.6
X200.6Y-191.5
X200.6Y-192.4
X200.6Y-200.4
X200.6Y-208.8
X200.6Y-209.7
X200.6Y-210.6
X201.0Y-72.0
X201.0Y-72.8
X201.0Y-73.6
X201.0Y-74.4
X201.0Y-75.2
X201.0Y-76.0
X201.0Y-167.0
X201.0Y-168.0
X201.0Y-169.0
X201.0Y-186.3
X201.0Y-193.7
X201.4Y-94.6
X201.8Y-72.0
X201.8Y-72.8
X201.8Y-73.6
X201.8Y-74.4
X201.8Y-75.2
X201.8Y-76.0
X201.9Y-161.0
X201.9Y-161.7
X202.0Y-95.7
X202.0Y-167.0
X202.0Y-168.0
X202.0Y-169.0
X202.5Y-65.5
X202.5Y-68.0
X202.5Y-70.5
X202.5Y-72.0
X202.5Y-72.8
X202.67Y-94.6
X202.7Y-161.0
X202.7Y-161.7
X203.0Y-167.0
X203.0Y-168.0
X203.0Y-169.0
X203.3Y-72.0
X203.3Y-72.8
X203.5Y-161.0
X203.5Y-161.7
X203.8Y-85.4
X203.8Y-86.1
X203.8Y-86.8
X203.8Y-87.5
X203.8Y-88.2
X203.8Y-88.9
X203.9Y-95.3
X203.9Y-96.0
X204.0Y-72.0
X204.0Y-72.8
X204.0Y-167.0
X204.0Y-168.0
X204.0Y-169.0
X204.5Y-85.4
X204.5Y-86.1
X204.5Y-86.8
X204.5Y-87.5
X204.5Y-88.2
X204.5Y-88.9
X204.6Y-81.0
X204.6Y-81.7
X204.6Y-82.4
X204.6Y-83.1
X204.6Y-95.3
X204.6Y-96.0
X204.8Y-72.0
X204.8Y-72.8
X205.0Y-65.5
X205.0Y-68.0
X205.0Y-70.5
X205.0Y-90.5
X205.0Y-93.0
X205.0Y-167.0
X205.0Y-168.0
X205.0Y-169.0
X205.2Y-85.4
X205.2Y-86.1
X205.2Y-86.8
X205.2Y-87.5
X205.2Y-88.2
X205.2Y-88.9
X205.3Y-81.0
X205.3Y-81.7
X205.3Y-82.4
X205.3Y-83.1
X205.5Y-72.0
X205.5Y-72.8
X205.9Y-85.4
X205.9Y-86.1
X205.9Y-86.8
X205.9Y-87.5
X205.9Y-88.2
X205.9Y-88.9
X206.2Y-107.0
X206.2Y-107.9
X206.2Y-108.8
X206.3Y-72.0
X206.3Y-72.8
X206.5Y-65.3
X206.5Y-66.1
X206.5Y-66.9
X206.5Y-67.7
X206.6Y-85.4
X206.6Y-86.1
X206.6Y-86.8
X206.6Y-87.5
X206.6Y-88.2
X206.6Y-88.9
X207.0Y-72.0
X207.0Y-72.8
X207.1Y-75.8
X207.1Y-76.6
X207.1Y-77.4
X207.1Y-107.0
X207.1Y-107.9
X207.1Y-108.8
X207.3Y-65.3
X207.3Y-66.1
X207.3Y-66.9
X207.3Y-67.7
X207.3Y-85.4
X207.3Y-86.1
X207.3Y-86.8
X207.3Y-87.5
X207.3Y-88.2
X207.3Y-88.9
X207.5Y-70.5
X207.5Y-90.5
X207.5Y-93.0
X207.5Y-98.0
X207.8Y-72.0
X207.8Y-72.8
X207.9Y-75.8
X207.9Y-76.6
X207.9Y-77.4
X208.0Y-115.0
X208.0Y-116.0
X208.0Y-117.0
X208.1Y-65.3
X208.1Y-66.1
X208.1Y-66.9
X208.1Y-67.7
X208.1Y-73.5
X208.1Y-74.3
X208.1Y-81.0
X208.1Y-81.7
X208.1Y-82.4
X208.1Y-83.1
X208.1Y-83.8
X208.1Y-84.5
X208.1Y-85.3
X208.1Y-86.0
X208.1Y-86.7
X208.1Y-87.4
X208.1Y-88.1
X208.1Y-88.8
X208.1Y-107.0
X208.1Y-107.9
X208.1Y-108.8
X208.7Y-75.8
X208.7Y-76.6
X208.7Y-77.4
X208.8Y-81.0
X208.8Y-81.7
X208.8Y-82.4
X208.8Y-83.1
X208.8Y-83.8
X208.8Y-84.5
X208.8Y-85.3
X208.8Y-86.0
X208.8Y-86.7
X208.8Y-87.4
X208.8Y-88.1
X208.8Y-88.8
X208.9Y-65.3
X208.9Y-66.1
X208.9Y-66.9
X208.9Y-67.7
X208.9Y-73.5
X208.9Y-74.3
X209.0Y-115.0
X209.0Y-116.0
X209.0Y-117.0
X209.5Y-81.0
X209.5Y-81.7
X209.5Y-82.4
X209.5Y-83.1
X209.5Y-83.8
X209.5Y-84.5
X209.5Y-85.3
X209.5Y-86.0
X209.5Y-86.7
X209.5Y-87.4
X209.5Y-88.1
X209.5Y-88.8
X209.9Y-61.2
X209.9Y-62.0
X210.0Y-90.5
X210.0Y-93.0
X210.0Y-95.5
X210.0Y-98.0
X210.0Y-115.0
X210.0Y-116.0
X210.0Y-117.0
X210.0Y-194.5
X210.0Y-195.5
X210.0Y-196.5
X210.0Y-197.5
X210.0Y-198.5
X210.0Y-199.5
X210.0Y-200.5
X210.0Y-217.5
X210.0Y-218.5
X210.0Y-219.5
X210.2Y-81.0
X210.2Y-81.7
X210.2Y-82.4
X210.2Y-83.1
X210.2Y-83.8
X210.2Y-84.5
X210.2Y-85.3
X210.2Y-86.0
X210.2Y-86.7
X210.2Y-87.4
X210.2Y-88.1
X210.2Y-88.8
X210.7Y-61.2
X210.7Y-62.0
X210.7Y-77.3
X210.7Y-78.1
X210.9Y-81.0
X210.9Y-81.7
X210.9Y-82.4
X210.9Y-83.1
X210.9Y-83.8
X210.9Y-84.5
X210.9Y-85.3
X210.9Y-86.0
X210.9Y-86.7
X210.9Y-87.4
X210.9Y-88.1
X210.9Y-88.8
X211.0Y-194.5
X211.0Y-195.5
X211.0Y-196.5
X211.0Y-197.5
X211.0Y-198.5
X211.0Y-199.5
X211.0Y-200.5
X211.0Y-217.5
X211.0Y-218.5
X211.0Y-219.5
X211.5Y-77.3
X211.5Y-78.1
X211.6Y-81.0
X211.6Y-81.7
X211.6Y-82.4
X211.6Y-83.1
X211.6Y-83.8
X211.6Y-84.5
X211.6Y-85.3
X211.6Y-86.0
X211.6Y-86.7
X211.6Y-87.4
X211.6Y-88.1
X211.6Y-88.8
X212.0Y-194.5
X212.0Y-195.5
X212.0Y-196.5
X212.0Y-197.5
X212.0Y-198.5
X212.0Y-199.5
X212.0Y-200.5
X212.0Y-217.5
X212.0Y-218.5
X212.0Y-219.5
X212.5Y-73.0
X212.5Y-75.5
X212.5Y-90.5
X212.5Y-93.0
X212.5Y-95.5
X212.5Y-98.0
X212.5Y-115.5
X213.4Y-66.4
X213.4Y-67.2
X213.4Y-68.0
X213.4Y-68.8
X213.4Y-69.6
X213.4Y-70.4
X213.4Y-71.2
X213.4Y-72.0
X214.2Y-66.4
X214.2Y-67.2
X214.2Y-68.0
X214.2Y-68.8
X214.2Y-69.6
X214.2Y-70.4
X214.2Y-71.2
X214.2Y-72.0
X214.5Y-194.5
X214.5Y-195.5
X214.5Y-196.5
X214.5Y-197.5
X214.5Y-198.5
X214.5Y-199.5
X214.5Y-200.5
X214.5Y-201.5
X214.5Y-202.5
X214.5Y-203.5
X214.5Y-204.5
X214.5Y-205.5
X214.5Y-206.5
X214.5Y-207.5
X214.5Y-208.5
X214.5Y-209.5
X214.5Y-210.5
X214.5Y-211.5
X214.5Y-212.5
X214.5Y-213.5
X214.5Y-214.5
X214.5Y-215.5
X214.5Y-216.5
X214.5Y-217.5
X214.5Y-218.5
X214.5Y-219.5
X215.0Y-66.4
X215.0Y-67.2
X215.0Y-68.0
X215.0Y-68.8
X215.0Y-69.6
X215.0Y-70.4
X215.0Y-71.2
X215.0Y-72.0
X215.0Y-73.0
X215.0Y-75.5
X215.0Y-78.0
X215.0Y-80.5
X215.0Y-83.0
X215.0Y-85.5
X215.0Y-88.0
X215.0Y-90.5
X215.0Y-93.0
X215.0Y-95.5
X215.0Y-98.0
X215.0Y-115.5
X215.5Y-194.5
X215.5Y-195.5
X215.5Y-196.5
X215.5Y-197.5
X215.5Y-198.5
X215.5Y-199.5
X215.5Y-200.5
X215.5Y-201.5
X215.5Y-202.5
X215.5Y-203.5
X215.5Y-204.5
X215.5Y-205.5
X215.5Y-206.5
X215.5Y-207.5
X215.5Y-208.5
X215.5Y-209.5
X215.5Y-210.5
X215.5Y-211.5
X215.5Y-212.5
X215.5Y-213.5
X215.5Y-214.5
X215.5Y-215.5
X215.5Y-216.5
X215.5Y-217.5
X215.5Y-218.5
X215.5Y-219.5
X215.8Y-66.4
X215.8Y-67.2
X215.8Y-68.0
X215.8Y-68.8
X215.8Y-69.6
X215.8Y-70.4
X215.8Y-71.2
X215.8Y-72.0
X216.5Y-194.5
X216.5Y-195.5
X216.5Y-196.5
X216.5Y-197.5
X216.5Y-198.5
X216.5Y-199.5
X216.5Y-200.5
X216.5Y-201.5
X216.5Y-202.5
X216.5Y-203.5
X216.5Y-204.5
X216.5Y-205.5
X216.5Y-206.5
X216.5Y-207.5
X216.5Y-208.5
X216.5Y-209.5
X216.5Y-210.5
X216.5Y-211.5
X216.5Y-212.5
X216.5Y-213.5
X216.5Y-214.5
X216.5Y-215.5
X216.5Y-216.5
X216.5Y-217.5
X216.5Y-218.5
X216.5Y-219.5
X216.6Y-66.4
X216.6Y-67.2
X216.6Y-68.0
X216.6Y-68.8
X216.6Y-69.6
X216.6Y-70.4
X216.6Y-71.2
X216.6Y-72.0
X217.4Y-66.4
X217.4Y-67.2
X217.4Y-68.0
X217.4Y-68.8
X217.4Y-69.6
X217.4Y-70.4
X217.4Y-71.2
X217.4Y-72.0
X217.5Y-73.0
X217.5Y-75.5
X217.5Y-78.0
X217.5Y-80.5
X217.5Y-83.0
X217.5Y-85.5
X217.5Y-88.0
X217.5Y-90.5
X217.5Y-93.0
X217.5Y-95.5
X217.5Y-98.0
X217.5Y-115.5
X217.5Y-194.5
X217.5Y-195.5
X217.5Y-196.5
X217.5Y-197.5
X217.5Y-198.5
X217.5Y-199.5
X217.5Y-200.5
X217.5Y-201.5
X217.5Y-202.5
X217.5Y-217.5
X217.5Y-218.5
X217.5Y-219.5
X218.2Y-66.4
X218.2Y-67.2
X218.2Y-68.0
X218.2Y-68.8
X218.2Y-69.6
X218.2Y-70.4
X218.2Y-71.2
X218.2Y-72.0
X218.5Y-194.5
X218.5Y-195.5
X218.5Y-196.5
X218.5Y-197.5
X218.5Y-198.5
X218.5Y-199.5
X218.5Y-200.5
X218.5Y-201.5
X218.5Y-202.5
X218.5Y-217.5
X218.5Y-218.5
X218.5Y-219.5
X219.0Y-66.4
X219.0Y-67.2
X219.0Y-68.0
X219.0Y-68.8
X219.0Y-69.6
X219.0Y-70.4
X219.0Y-71.2
X219.0Y-72.0
X219.5Y-194.5
X219.5Y-195.5
X219.5Y-196.5
X219.5Y-197.5
X219.5Y-198.5
X219.5Y-199.5
X219.5Y-200.5
X219.5Y-201.5
X219.5Y-202.5
X219.5Y-217.5
X219.5Y-218.5
X219.5Y-219.5
X220.0Y-65.5
X220.0Y-68.0
X220.0Y-70.5
X220.0Y-73.0
X220.0Y-75.5
X220.0Y-78.0
X220.0Y-80.5
X220.0Y-83.0
X220.0Y-85.5
X220.0Y-88.0
X220.0Y-90.5
X220.0Y-93.0
X220.0Y-95.5
X220.0Y-98.0
X220.0Y-115.5
X220.5Y-194.5
X220.5Y-195.5
X220.5Y-196.5
X220.5Y-197.5
X220.5Y-198.5
X220.5Y-199.5
X220.5Y-200.5
X220.5Y-201.5
X220.5Y-202.5
X220.5Y-217.5
X220.5Y-218.5
X220.5Y-219.5
X221.5Y-194.5
X221.5Y-195.5
X221.5Y-196.5
X221.5Y-197.5
X221.5Y-198.5
X221.5Y-199.5
X221.5Y-200.5
X221.5Y-201.5
X221.5Y-202.5
X221.5Y-217.5
X221.5Y-218.5
X221.5Y-219.5
X222.5Y-65.5
X222.5Y-68.0
X222.5Y-70.5
X222.5Y-73.0
X222.5Y-75.5
X222.5Y-78.0
X222.5Y-80.5
X222.5Y-83.0
X222.5Y-85.5
X222.5Y-88.0
X222.5Y-90.5
X222.5Y-93.0
X222.5Y-95.5
X222.5Y-98.0
X222.5Y-115.5
X222.5Y-194.5
X222.5Y-195.5
X222.5Y-196.5
X222.5Y-197.5
X222.5Y-198.5
X222.5Y-199.5
X222.5Y-200.5
X222.5Y-201.5
X222.5Y-202.5
X222.5Y-217.5
X222.5Y-218.5
X222.5Y-219.5
X223.5Y-194.5
X223.5Y-195.5
X223.5Y-196.5
X223.5Y-197.5
X223.5Y-198.5
X223.5Y-199.5
X223.5Y-200.5
X223.5Y-201.5
X223.5Y-202.5
X223.5Y-217.5
X223.5Y-218.5
X223.5Y-219.5
X224.5Y-194.5
X224.5Y-195.5
X224.5Y-196.5
X224.5Y-197.5
X224.5Y-198.5
X224.5Y-199.5
X224.5Y-200.5
X224.5Y-201.5
X224.5Y-202.5
X224.5Y-217.5
X224.5Y-218.5
X224.5Y-219.5
X225.0Y-65.5
X225.0Y-68.0
X225.0Y-70.5
X225.0Y-73.0
X225.0Y-75.5
X225.0Y-78.0
X225.0Y-80.5
X225.0Y-83.0
X225.0Y-85.5
X225.0Y-88.0
X225.0Y-90.5
X225.0Y-93.0
X225.0Y-95.5
X225.0Y-98.0
X225.0Y-115.5
X225.0Y-140.5
X225.0Y-143.0
X225.0Y-145.5
X225.5Y-194.5
X225.5Y-195.5
X225.5Y-196.5
X225.5Y-197.5
X225.5Y-198.5
X225.5Y-199.5
X225.5Y-200.5
X225.5Y-201.5
X225.5Y-202.5
X225.5Y-217.5
X225.5Y-218.5
X225.5Y-219.5
X226.5Y-194.5
X226.5Y-195.5
X226.5Y-196.5
X226.5Y-197.5
X226.5Y-198.5
X226.5Y-199.5
X226.5Y-200.5
X226.5Y-201.5
X226.5Y-202.5
X226.5Y-217.5
X226.5Y-218.5
X226.5Y-219.5
X227.5Y-65.5
X227.5Y-68.0
X227.5Y-70.5
X227.5Y-73.0
X227.5Y-75.5
X227.5Y-78.0
X227.5Y-80.5
X227.5Y-83.0
X227.5Y-85.5
X227.5Y-88.0
X227.5Y-90.5
X227.5Y-93.0
X227.5Y-95.5
X227.5Y-98.0
X227.5Y-115.5
X227.5Y-140.5
X227.5Y-143.0
X227.5Y-145.5
X227.5Y-194.5
X227.5Y-195.5
X227.5Y-196.5
X227.5Y-197.5
X227.5Y-198.5
X227.5Y-199.5
X227.5Y-200.5
X227.5Y-201.5
X227.5Y-202.5
X227.5Y-217.5
X227.5Y-218.5
X227.5Y-219.5
X228.5Y-194.5
X228.5Y-195.5
X228.5Y-196.5
X228.5Y-197.5
X228.5Y-198.5
X228.5Y-199.5
X228.5Y-200.5
X228.5Y-201.5
X228.5Y-202.5
X228.5Y-217.5
X228.5Y-218.5
X228.5Y-219.5
X229.5Y-194.5
X229.5Y-195.5
X229.5Y-196.5
X229.5Y-197.5
X229.5Y-198.5
X229.5Y-199.5
X229.5Y-200.5
X229.5Y-201.5
X229.5Y-202.5
X229.5Y-217.5
X229.5Y-218.5
X229.5Y-219.5
X229.8Y-94.9
X229.8Y-95.6
X229.8Y-96.3
X229.8Y-97.0
X229.8Y-97.7
X229.8Y-98.4
X230.0Y-65.5
X230.0Y-68.0
X230.0Y-70.5
X230.0Y-73.0
X230.0Y-75.5
X230.0Y-78.0
X230.0Y-80.5
X230.0Y-83.0
X230.0Y-85.5
X230.0Y-88.0
X230.0Y-90.5
X230.0Y-93.0
X230.0Y-115.5
X230.0Y-140.5
X230.0Y-143.0
X230.0Y-145.5
X230.5Y-94.9
X230.5Y-95.6
X230.5Y-96.3
X230.5Y-97.0
X230.5Y-97.7
X230.5Y-98.4
X230.5Y-194.5
X230.5Y-195.5
X230.5Y-196.5
X230.5Y-197.5
X230.5Y-198.5
X230.5Y-199.5
X230.5Y-200.5
X230.5Y-201.5
X230.5Y-202.5
X230.5Y-217.5
X230.5Y-218.5
X230.5Y-219.5
X231.2Y-94.9
X231.2Y-95.6
X231.2Y-96.3
X231.2Y-97.0
X231.2Y-97.7
X231.2Y-98.4
X231.5Y-194.5
X231.5Y-195.5
X231.5Y-196.5
X231.5Y-197.5
X231.5Y-198.5
X231.5Y-199.5
X231.5Y-200.5
X231.5Y-201.5
X231.5Y-202.5
X231.5Y-217.5
X231.5Y-218.5
X231.5Y-219.5
X231.9Y-94.9
X231.9Y-95.6
X231.9Y-96.3
X231.9Y-97.0
X231.9Y-97.7
X231.9Y-98.4
X232.5Y-65.5
X232.5Y-68.0
X232.5Y-70.5
X232.5Y-73.0
X232.5Y-75.5
X232.5Y-78.0
X232.5Y-80.5
X232.5Y-83.0
X232.5Y-85.5
X232.5Y-88.0
X232.5Y-90.5
X232.5Y-93.0
X232.5Y-115.5
X232.5Y-118.0
X232.5Y-120.5
X232.5Y-194.5
X232.5Y-195.5
X232.5Y-196.5
X232.5Y-197.5
X232.5Y-198.5
X232.5Y-199.5
X232.5Y-200.5
X232.5Y-201.5
X232.5Y-202.5
X232.5Y-217.5
X232.5Y-218.5
X232.5Y-219.5
X232.6Y-61.2
X232.6Y-62.0
X232.6Y-94.9
X232.6Y-95.6
X232.6Y-96.3
X232.6Y-97.0
X232.6Y-97.7
X232.6Y-98.4
X233.3Y-94.9
X233.3Y-95.6
X233.3Y-96.3
X233.3Y-97.0
X233.3Y-97.7
X233.3Y-98.4
X233.4Y-61.2
X233.4Y-62.0
X234.8Y-80.4
X234.8Y-81.1
X234.8Y-81.8
X234.8Y-82.5
X234.8Y-83.2
X234.8Y-83.9
X235.0Y-65.5
X235.0Y-68.0
X235.0Y-70.5
X235.0Y-73.0
X235.0Y-75.5
X235.0Y-78.0
X235.0Y-85.5
X235.0Y-88.0
X235.0Y-90.5
X235.0Y-93.0
X235.0Y-95.5
X235.0Y-98.0
X235.0Y-115.5
X235.0Y-118.0
X235.0Y-120.5
X235.0Y-218.0
X235.0Y-219.0
X235.0Y-220.0
X235.5Y-80.4
X235.5Y-81.1
X235.5Y-81.8
X235.5Y-82.5
X235.5Y-83.2
X235.5Y-83.9
X236.0Y-218.0
X236.0Y-219.0
X236.0Y-220.0
X236.2Y-80.4
X236.2Y-81.1
X236.2Y-81.8
X236.2Y-82.5
X236.2Y-83.2
X236.2Y-83.9
X236.9Y-80.4
X236.9Y-81.1
X236.9Y-81.8
X236.9Y-82.5
X236.9Y-83.2
X236.9Y-83.9
X237.0Y-218.0
X237.0Y-219.0
X237.0Y-220.0
X237.5Y-65.5
X237.5Y-68.0
X237.5Y-70.5
X237.5Y-78.0
X237.5Y-85.5
X237.5Y-88.0
X237.5Y-90.5
X237.5Y-93.0
X237.5Y-95.5
X237.5Y-98.0
X237.5Y-118.0
X237.5Y-120.5
X237.6Y-72.7
X237.6Y-73.5
X237.6Y-74.3
X237.6Y-75.1
X237.6Y-80.4
X237.6Y-81.1
X237.6Y-81.8
X237.6Y-82.5
X237.6Y-83.2
X237.6Y-83.9
X238.3Y-80.4
X238.3Y-81.1
X238.3Y-81.8
X238.3Y-82.5
X238.3Y-83.2
X238.3Y-83.9
X238.4Y-72.7
X238.4Y-73.5
X238.4Y-74.3
X238.4Y-75.1
X238.5Y-186.5
X238.5Y-187.5
X238.5Y-188.5
X238.5Y-189.5
X238.5Y-190.5
X238.5Y-191.5
X238.5Y-192.5
X239.2Y-72.7
X239.2Y-73.5
X239.2Y-74.3
X239.2Y-75.1
X239.5Y-186.5
X239.5Y-187.5
X239.5Y-188.5
X239.5Y-189.5
X239.5Y-190.5
X239.5Y-191.5
X239.5Y-192.5
X239.5Y-193.5
X239.5Y-194.5
X240.0Y-65.5
X240.0Y-68.0
X240.0Y-70.5
X240.0Y-72.7
X240.0Y-73.5
X240.0Y-74.3
X240.0Y-75.1
X240.0Y-90.5
X240.0Y-93.0
X240.0Y-95.5
X240.0Y-98.0
X240.0Y-116.0
X240.0Y-117.0
X240.0Y-118.0
X240.0Y-120.5
X240.0Y-218.0
X240.0Y-220.5
X240.4Y-78.9
X240.4Y-79.6
X240.5Y-186.5
X240.5Y-187.5
X240.5Y-188.5
X240.5Y-189.5
X240.5Y-190.5
X240.5Y-191.5
X240.5Y-192.5
X240.5Y-193.5
X240.5Y-194.5
X240.5Y-195.5
X241.0Y-116.0
X241.0Y-117.0
X241.0Y-118.0
X241.2Y-78.9
X241.2Y-79.6
X241.9Y-77.9
X241.9Y-78.9
X241.9Y-79.6
X241.9Y-80.3
X242.0Y-116.0
X242.0Y-117.0
X242.0Y-118.0
X242.0Y-187.5
X242.0Y-188.5
X242.0Y-189.5
X242.0Y-190.5
X242.0Y-191.5
X242.0Y-192.5
X242.0Y-193.5
X242.0Y-194.5
X242.0Y-195.5
X242.0Y-196.5
X242.0Y-197.5
X242.0Y-198.5
X242.0Y-199.5
X242.0Y-200.5
X242.0Y-201.5
X242.5Y-65.5
X242.5Y-68.0
X242.5Y-85.5
X242.5Y-93.0
X242.5Y-95.5
X242.5Y-98.0
X242.5Y-120.5
X242.5Y-220.5
X242.7Y-78.9
X242.7Y-79.6
X242.7Y-80.3
X242.7Y-81.1
X242.7Y-82.1
X243.0Y-188.5
X243.0Y-189.5
X243.0Y-190.5
X243.0Y-191.5
X243.0Y-192.5
X243.0Y-193.5
X243.0Y-194.5
X243.0Y-195.5
X243.0Y-196.5
X243.0Y-197.5
X243.0Y-198.5
X243.0Y-199.5
X243.0Y-200.5
X243.0Y-201.5
X244.0Y-189.5
X244.0Y-190.5
X244.0Y-191.5
X244.0Y-192.5
X244.0Y-193.5
X244.0Y-194.5
X244.0Y-195.5
X244.0Y-196.5
X244.0Y-197.5
X244.0Y-198.5
X244.0Y-199.5
X244.0Y-200.5
X244.0Y-201.5
X244.6Y-76.7
X244.6Y-77.4
X244.6Y-78.1
X244.7Y-81.0
X244.7Y-81.7
X244.7Y-82.5
X244.7Y-83.2
X245.0Y-65.5
X245.0Y-73.0
X245.0Y-85.5
X245.0Y-88.0
X245.0Y-95.5
X245.0Y-98.0
X245.0Y-118.0
X245.0Y-120.5
X245.0Y-220.5
X245.4Y-81.0
X245.4Y-81.7
X245.4Y-82.5
X245.4Y-83.2
X245.5Y-190.5
X245.5Y-191.5
X245.5Y-192.5
X245.5Y-193.5
X245.5Y-194.5
X245.5Y-195.5
X245.5Y-196.5
X245.5Y-197.5
X245.5Y-198.5
X245.5Y-199.5
X245.5Y-200.5
X245.5Y-201.5
X246.5Y-191.5
X246.5Y-192.5
X246.5Y-193.5
X246.5Y-194.5
X246.5Y-195.5
X246.5Y-196.5
X246.5Y-197.5
X246.5Y-198.5
X246.5Y-199.5
X246.5Y-200.5
X246.5Y-201.5
X246.7Y-69.3
X247.5Y-65.5
X247.5Y-73.0
X247.5Y-85.5
X247.5Y-93.0
X247.5Y-97.6
X247.5Y-98.3
X247.5Y-191.5
X247.5Y-192.5
X247.5Y-193.5
X247.5Y-194.5
X247.5Y-195.5
X247.5Y-196.5
X247.5Y-197.5
X247.5Y-198.5
X247.5Y-199.5
X247.5Y-200.5
X247.5Y-201.5
X247.5Y-220.5
X248.2Y-82.4
X248.2Y-83.1
X248.2Y-83.8
X248.2Y-84.5
X248.2Y-85.2
X248.2Y-85.9
X248.2Y-86.7
X248.2Y-87.4
X248.2Y-88.1
X248.2Y-88.8
X248.2Y-89.5
X248.2Y-90.2
X248.2Y-97.6
X248.2Y-98.3
X248.5Y-71.5
X248.5Y-72.3
X248.5Y-73.1
X248.5Y-73.9
X248.9Y-82.4
X248.9Y-83.1
X248.9Y-83.8
X248.9Y-84.5
X248.9Y-85.2
X248.9Y-85.9
X248.9Y-86.7
X248.9Y-87.4
X248.9Y-88.1
X248.9Y-88.8
X248.9Y-89.5
X248.9Y-90.2
X249.0Y-197.5
X249.0Y-198.5
X249.0Y-199.5
X249.0Y-200.5
X249.0Y-201.5
X249.3Y-61.3
X249.3Y-62.1
X249.3Y-71.5
X249.3Y-72.3
X249.3Y-73.1
X249.3Y-73.9
X249.6Y-82.4
X249.6Y-83.1
X249.6Y-83.8
X249.6Y-84.5
X249.6Y-85.2
X249.6Y-85.9
X249.6Y-86.7
X249.6Y-87.4
X249.6Y-88.1
X249.6Y-88.8
X249.6Y-89.5
X249.6Y-90.2
X250.0Y-65.5
X250.0Y-93.0
X250.0Y-95.5
X250.0Y-198.5
X250.0Y-199.5
X250.0Y-200.5
X250.0Y-201.5
X250.0Y-220.5
X250.1Y-61.3
X250.1Y-62.1
X250.1Y-71.5
X250.1Y-72.3
X250.1Y-73.1
X250.1Y-73.9
X250.3Y-82.4
X250.3Y-83.1
X250.3Y-83.8
X250.3Y-84.5
X250.3Y-85.2
X250.3Y-85.9
X250.3Y-86.7
X250.3Y-87.4
X250.3Y-88.1
X250.3Y-88.8
X250.3Y-89.5
X250.3Y-90.2
X250.9Y-71.5
X250.9Y-72.3
X250.9Y-73.1
X250.9Y-73.9
X251.0Y-82.4
X251.0Y-83.1
X251.0Y-83.8
X251.0Y-84.5
X251.0Y-85.2
X251.0Y-85.9
X251.0Y-86.7
X251.0Y-87.4
X251.0Y-88.1
X251.0Y-88.8
X251.0Y-89.5
X251.0Y-90.2
X251.0Y-199.5
X251.0Y-200.5
X251.0Y-201.5
X251.1Y-95.8
X251.1Y-96.5
X251.7Y-82.4
X251.7Y-83.1
X251.7Y-83.8
X251.7Y-84.5
X251.7Y-85.2
X251.7Y-85.9
X251.7Y-86.7
X251.7Y-87.4
X251.7Y-88.1
X251.7Y-88.8
X251.7Y-89.5
X251.7Y-90.2
X251.8Y-95.8
X251.8Y-96.5
X252.5Y-65.5
X252.5Y-73.0
X252.5Y-83.0
X252.5Y-85.5
X252.5Y-88.0
X252.5Y-90.5
X252.5Y-93.0
X252.5Y-95.5
X252.5Y-185.5
X252.5Y-188.0
X252.5Y-190.5
X252.5Y-220.5
X254.0Y-186.6
X254.0Y-187.6
X254.0Y-188.6
X255.0Y-65.5
X255.0Y-73.0
X255.0Y-83.0
X255.0Y-85.5
X255.0Y-88.0
X255.0Y-90.5
X255.0Y-93.0
X255.0Y-95.5
X255.0Y-186.6
X255.0Y-187.6
X255.0Y-188.6
X255.0Y-190.5
X255.0Y-193.0
X255.0Y-195.5
X255.0Y-218.0
X255.0Y-220.5
X255.7Y-69.2
X256.0Y-186.6
X256.0Y-187.6
X256.0Y-188.6
X256.7Y-78.8
X257.0Y-218.0
X257.0Y-219.0
X257.0Y-220.0
X257.5Y-65.5
X257.5Y-73.0
X257.5Y-83.0
X257.5Y-85.5
X257.5Y-88.0
X257.5Y-90.5
X257.5Y-93.0
X257.5Y-95.5
X257.5Y-183.0
X257.5Y-185.5
X257.5Y-188.0
X257.5Y-190.5
X257.5Y-193.0
X257.5Y-195.5
X257.5Y-198.0
X257.5Y-200.5
X257.5Y-203.0
X257.5Y-205.5
X257.5Y-208.0
X257.5Y-210.5
X257.5Y-213.0
X257.5Y-215.5
X257.9Y-78.0
X258.0Y-218.0
X258.0Y-219.0
X258.0Y-220.0
X259.0Y-218.0
X259.0Y-219.0
X259.0Y-220.0
X260.0Y-65.5
X260.0Y-73.0
X260.0Y-85.5
X260.0Y-88.0
X260.0Y-90.5
X260.0Y-93.0
X260.0Y-95.5
X260.0Y-150.5
X260.0Y-153.0
X260.0Y-183.0
X260.0Y-185.5
X260.0Y-188.0
X260.0Y-190.5
X260.0Y-218.0
X260.9Y-78.3
X260.9Y-79.0
X261.6Y-78.3
X261.6Y-79.0
X262.5Y-65.5
X262.5Y-73.0
X262.5Y-88.0
X262.5Y-90.5
X262.5Y-93.0
X262.5Y-95.5
X262.5Y-148.0
X262.5Y-150.5
X262.5Y-220.5
X264.0Y-69.2
X264.0Y-145.0
X264.0Y-146.0
X264.0Y-147.0
X264.6Y-82.5
X264.6Y-83.2
X265.0Y-65.5
X265.0Y-73.0
X265.0Y-90.5
X265.0Y-93.0
X265.0Y-95.5
X265.0Y-143.0
X265.0Y-145.0
X265.0Y-146.0
X265.0Y-147.0
X265.0Y-148.0
X265.0Y-220.5
X265.3Y-82.5
X265.3Y-83.2
X266.0Y-145.0
X266.0Y-146.0
X266.0Y-147.0
X267.5Y-65.5
X267.5Y-83.0
X267.5Y-85.5
X267.5Y-93.0
X267.5Y-95.5
X267.5Y-143.0
X267.5Y-220.5
X268.1Y-71.4
X268.1Y-72.2
X268.1Y-73.0
X268.1Y-73.8
X268.5Y-110.5
X268.9Y-71.4
X268.9Y-72.2
X268.9Y-73.0
X268.9Y-73.8
X269.2Y-61.3
X269.2Y-62.1
X269.4Y-94.4
X269.4Y-95.1
X269.4Y-95.8
X269.4Y-96.5
X269.7Y-71.4
X269.7Y-72.2
X269.7Y-73.0
X269.7Y-73.8
X270.0Y-61.3
X270.0Y-62.1
X270.0Y-65.5
X270.0Y-83.0
X270.0Y-85.5
X270.0Y-88.0
X270.0Y-220.5
X270.1Y-94.4
X270.1Y-95.1
X270.1Y-95.8
X270.1Y-96.5
X270.5Y-71.4
X270.5Y-72.2
X270.5Y-73.0
X270.5Y-73.8
X270.8Y-110.5
X271.4Y-107.0
X271.5Y-82.5
X271.5Y-83.2
X271.5Y-97.0
X271.5Y-97.7
X271.5Y-98.4
X272.0Y-129.0
X272.2Y-82.5
X272.2Y-83.2
X272.3Y-78.3
X272.3Y-79.0
X272.5Y-65.5
X272.5Y-85.5
X272.5Y-88.0
X272.5Y-90.5
X272.5Y-160.5
X272.5Y-220.5
X272.8Y-112.4
X273.0Y-69.2
X273.0Y-78.3
X273.0Y-79.0
X273.5Y-81.2
X274.5Y-106.3
X275.0Y-65.5
X275.0Y-80.5
X275.0Y-85.5
X275.0Y-88.0
X275.0Y-90.5
X275.0Y-93.0
X275.0Y-145.5
X275.0Y-158.0
X275.0Y-160.5
X275.0Y-218.0
X275.0Y-220.5
X275.6Y-106.3
X276.6Y-106.3
X277.5Y-65.5
X277.5Y-80.5
X277.5Y-83.0
X277.5Y-88.0
X277.5Y-90.5
X277.5Y-93.0
X277.5Y-95.5
X277.5Y-148.0
X277.5Y-150.5
X277.5Y-153.0
X277.5Y-155.5
X278.0Y-158.0
X278.0Y-159.0
X278.0Y-160.0
X278.0Y-218.0
X278.0Y-219.0
X278.0Y-220.0
X279.0Y-158.0
X279.0Y-159.0
X279.0Y-160.0
X279.0Y-178.0
X279.0Y-179.0
X279.0Y-180.0
X279.0Y-186.0
X279.0Y-187.0
X279.0Y-188.0
X279.0Y-192.0
X279.0Y-193.0
X279.0Y-194.0
X279.0Y-196.0
X279.0Y-197.0
X279.0Y-198.0
X279.0Y-199.0
X279.0Y-200.0
X279.0Y-201.0
X279.0Y-202.0
X279.0Y-203.0
X279.0Y-204.0
X279.0Y-205.0
X279.0Y-218.0
X279.0Y-219.0
X279.0Y-220.0
X279.3Y-116.0
X279.6Y-106.4
X279.6Y-107.5
X279.6Y-108.6
X280.0Y-65.5
X280.0Y-80.5
X280.0Y-83.0
X280.0Y-85.5
X280.0Y-90.5
X280.0Y-93.0
X280.0Y-95.5
X280.0Y-150.5
X280.0Y-153.0
X280.0Y-155.5
X280.0Y-158.0
X280.0Y-159.0
X280.0Y-160.0
X280.0Y-218.0
X280.0Y-219.0
X280.0Y-220.0
X280.4Y-106.4
X280.4Y-107.5
X280.4Y-108.6
X280.9Y-96.5
X280.9Y-97.2
X280.9Y-97.9
X280.9Y-98.6
X281.6Y-96.5
X281.6Y-97.2
X281.6Y-97.9
X281.6Y-98.6
X282.0Y-67.5
X282.0Y-68.3
X282.0Y-69.1
X282.0Y-69.9
X282.3Y-96.5
X282.3Y-97.2
X282.3Y-97.9
X282.3Y-98.6
X282.5Y-65.5
X282.5Y-70.5
X282.5Y-73.0
X282.5Y-75.5
X282.5Y-78.0
X282.5Y-80.5
X282.5Y-83.0
X282.5Y-85.5
X282.5Y-88.0
X282.5Y-93.0
X282.5Y-95.5
X282.5Y-158.0
X282.5Y-160.5
X282.5Y-218.0
X282.5Y-220.5
X282.8Y-67.5
X282.8Y-68.3
X282.8Y-69.1
X282.8Y-69.9
X283.0Y-96.5
X283.0Y-97.2
X283.0Y-97.9
X283.0Y-98.6
X283.6Y-67.5
X283.6Y-68.3
X283.6Y-69.1
X283.6Y-69.9
X284.4Y-67.5
X284.4Y-68.3
X284.4Y-69.1
X284.4Y-69.9
X284.5Y-76.5
X284.5Y-77.3
X285.0Y-65.5
X285.0Y-68.0
X285.0Y-70.5
X285.0Y-73.0
X285.0Y-80.5
X285.0Y-83.0
X285.0Y-85.5
X285.0Y-88.0
X285.0Y-90.5
X285.0Y-95.5
X285.0Y-158.0
X285.0Y-160.5
X285.0Y-220.5
X285.3Y-76.5
X285.3Y-77.3
X286.8Y-76.5
X286.8Y-77.3
X287.5Y-65.5
X287.5Y-80.5
X287.5Y-83.0
X287.5Y-85.5
X287.5Y-88.0
X287.5Y-90.5
X287.5Y-93.0
X287.5Y-158.0
X287.5Y-160.5
X287.5Y-220.5
X287.6Y-76.5
X287.6Y-77.3
X289.7Y-82.0
X289.7Y-82.7
X289.7Y-83.4
X289.7Y-84.1
X289.7Y-84.8
X289.7Y-85.5
X289.7Y-92.0
X289.7Y-92.7
X289.7Y-93.4
X289.7Y-94.1
X289.7Y-94.8
X289.7Y-95.5
X290.0Y-65.5
X290.0Y-88.0
X290.0Y-90.5
X290.0Y-158.0
X290.0Y-160.5
X290.0Y-163.0
X290.0Y-220.5
X290.4Y-82.0
X290.4Y-82.7
X290.4Y-83.4
X290.4Y-84.1
X290.4Y-84.8
X290.4Y-85.5
X290.4Y-92.0
X290.4Y-92.7
X290.4Y-93.4
X290.4Y-94.1
X290.4Y-94.8
X290.4Y-95.5
X291.1Y-82.0
X291.1Y-82.7
X291.1Y-83.4
X291.1Y-84.1
X291.1Y-84.8
X291.1Y-85.5
X291.1Y-92.0
X291.1Y-92.7
X291.1Y-93.4
X291.1Y-94.1
X291.1Y-94.8
X291.1Y-95.5
X291.4Y-70.4
X291.8Y-82.0
X291.8Y-82.7
X291.8Y-83.4
X291.8Y-84.1
X291.8Y-84.8
X291.8Y-85.5
X291.8Y-92.0
X291.8Y-92.7
X291.8Y-93.4
X291.8Y-94.1
X291.8Y-94.8
X291.8Y-95.5
X291.8Y-110.4
X291.8Y-111.2
X291.8Y-112.0
X291.8Y-112.9
X292.2Y-70.4
X292.2Y-117.5
X292.5Y-65.5
X292.5Y-82.0
X292.5Y-82.7
X292.5Y-83.4
X292.5Y-84.1
X292.5Y-84.8
X292.5Y-85.5
X292.5Y-88.0
X292.5Y-90.5
X292.5Y-92.0
X292.5Y-92.7
X292.5Y-93.4
X292.5Y-94.1
X292.5Y-94.8
X292.5Y-95.5
X292.5Y-125.5
X292.5Y-128.0
X292.5Y-155.5
X292.5Y-158.0
X292.5Y-160.5
X292.5Y-163.0
X292.5Y-165.5
X292.5Y-220.5
X292.9Y-97.0
X292.9Y-97.7
X292.9Y-98.4
X293.0Y-70.4
X293.2Y-82.0
X293.2Y-82.7
X293.2Y-83.4
X293.2Y-84.1
X293.2Y-84.8
X293.2Y-85.5
X293.2Y-92.0
X293.2Y-92.7
X293.2Y-93.4
X293.2Y-94.1
X293.2Y-94.8
X293.2Y-95.5
X293.8Y-70.4
X295.0Y-65.5
X295.0Y-83.0
X295.0Y-125.5
X295.0Y-128.0
X295.0Y-130.5
X295.0Y-133.0
X295.0Y-135.5
X295.0Y-138.0
X295.0Y-140.5
X295.0Y-143.0
X295.0Y-145.5
X295.0Y-148.0
X295.0Y-150.5
X295.0Y-153.0
X295.0Y-155.5
X295.0Y-158.0
X295.0Y-160.5
X295.0Y-163.0
X295.0Y-165.5
X295.0Y-168.0
X295.0Y-220.5
X296.1Y-118.4
X297.0Y-118.4
X297.5Y-65.5
X297.5Y-75.0
X297.5Y-75.8
X297.5Y-76.5
X297.5Y-77.3
X297.5Y-125.5
X297.5Y-128.0
X297.5Y-130.5
X297.5Y-133.0
X297.5Y-135.5
X297.5Y-138.0
X297.5Y-140.5
X297.5Y-143.0
X297.5Y-145.5
X297.5Y-148.0
X297.5Y-150.5
X297.5Y-153.0
X297.5Y-155.5
X297.5Y-158.0
X297.5Y-160.5
X297.5Y-163.0
X297.5Y-165.5
X297.5Y-168.0
X297.5Y-170.5
X297.5Y-173.0
X297.5Y-175.5
X297.5Y-178.0
X297.5Y-180.5
X297.5Y-183.0
X297.5Y-218.0
X297.5Y-220.5
X297.9Y-85.8
X297.9Y-86.5
X297.9Y-90.9
X297.9Y-91.6
X297.9Y-96.2
X297.9Y-96.9
X297.9Y-118.4
X298.3Y-75.0
X298.3Y-75.8
X298.3Y-76.5
X298.3Y-77.3
X298.5Y-61.2
X298.5Y-62.0
X298.5Y-65.1
X298.5Y-65.9
X298.6Y-85.8
X298.6Y-86.5
X298.6Y-90.9
X298.6Y-91.6
X298.6Y-96.2
X298.6Y-96.9
X298.7Y-106.3
X298.7Y-107.1
X298.7Y-108.0
X299.3Y-61.2
X299.3Y-62.0
X299.3Y-65.1
X299.3Y-65.9
X299.5Y-106.3
X299.5Y-107.1
X299.5Y-108.0
X300.0Y-125.5
X300.0Y-128.0
X300.0Y-130.5
X300.0Y-133.0
X300.0Y-135.5
X300.0Y-138.0
X300.0Y-140.5
X300.0Y-143.0
X300.0Y-145.5
X300.0Y-148.0
X300.0Y-150.5
X300.0Y-153.0
X300.0Y-155.5
X300.0Y-158.0
X300.0Y-160.5
X300.0Y-163.0
X300.0Y-165.5
X300.0Y-168.0
X300.0Y-170.5
X300.0Y-173.0
X300.0Y-175.5
X300.0Y-178.0
X300.0Y-180.5
X300.0Y-183.0
X300.0Y-185.5
X300.0Y-220.5
X300.3Y-106.3
X300.3Y-107.1
X300.3Y-108.0
X301.0Y-66.5
X301.0Y-67.5
X301.0Y-69.5
X301.0Y-75.5
X301.0Y-76.5
X301.0Y-77.5
X301.0Y-82.0
X301.0Y-84.0
X301.0Y-86.0
X301.0Y-87.0
X301.0Y-89.0
X301.0Y-95.0
X301.0Y-96.0
X301.0Y-97.0
X301.1Y-106.3
X301.1Y-107.1
X301.1Y-108.0
X301.4Y-154.5
X301.4Y-155.5
X301.4Y-156.5
X301.5Y-127.0
X301.5Y-128.0
X301.5Y-129.0
X301.5Y-134.5
X301.5Y-135.5
X301.5Y-136.5
X301.5Y-142.0
X301.5Y-143.0
X301.5Y-144.0
X301.9Y-106.3
X301.9Y-107.1
X301.9Y-108.0
X302.0Y-69.5
X302.0Y-75.5
X302.0Y-76.5
X302.0Y-77.5
X302.0Y-82.0
X302.0Y-84.0
X302.0Y-89.0
X302.0Y-95.0
X302.0Y-96.0
X302.0Y-97.0
X302.0Y-166.0
X302.0Y-167.0
X302.0Y-168.0
X302.0Y-179.0
X302.0Y-180.0
X302.0Y-181.0
X302.4Y-154.5
X302.4Y-155.5
X302.4Y-156.5
X302.5Y-127.0
X302.5Y-128.0
X302.5Y-129.0
X302.5Y-130.5
X302.5Y-133.0
X302.5Y-134.5
X302.5Y-135.5
X302.5Y-136.5
X302.5Y-138.0
X302.5Y-140.5
X302.5Y-142.0
X302.5Y-143.0
X302.5Y-144.0
X302.5Y-145.5
X302.5Y-148.0
X302.5Y-150.5
X302.5Y-153.0
X302.5Y-158.0
X302.5Y-160.5
X302.5Y-163.0
X302.5Y-170.5
X302.5Y-173.0
X302.5Y-175.5
X302.5Y-183.0
X302.5Y-185.5
X302.5Y-220.5
X302.7Y-106.3
X302.7Y-107.1
X302.7Y-108.0
X303.0Y-75.5
X303.0Y-76.5
X303.0Y-77.5
X303.0Y-82.0
X303.0Y-84.0
X303.0Y-95.0
X303.0Y-96.0
X303.0Y-97.0
X303.0Y-166.0
X303.0Y-167.0
X303.0Y-168.0
X303.0Y-179.0
X303.0Y-180.0
X303.0Y-181.0
X303.1Y-118.7
X303.4Y-154.5
X303.4Y-155.5
X303.4Y-156.5
X303.5Y-127.0
X303.5Y-128.0
X303.5Y-129.0
X303.5Y-134.5
X303.5Y-135.5
X303.5Y-136.5
X303.5Y-142.0
X303.5Y-143.0
X303.5Y-144.0
X304.0Y-118.7
X304.0Y-166.0
X304.0Y-167.0
X304.0Y-168.0
X304.0Y-179.0
X304.0Y-180.0
X304.0Y-181.0
X304.3Y-106.3
X304.3Y-107.2
X304.9Y-118.7
X305.0Y-77.5
X305.0Y-84.0
X305.0Y-97.0
X305.0Y-125.5
X305.0Y-128.0
X305.0Y-130.5
X305.0Y-133.0
X305.0Y-135.5
X305.0Y-138.0
X305.0Y-140.5
X305.0Y-143.0
X305.0Y-145.5
X305.0Y-148.0
X305.0Y-150.5
X305.0Y-153.0
X305.0Y-155.5
X305.0Y-158.0
X305.0Y-160.5
X305.0Y-163.0
X305.0Y-170.5
X305.0Y-173.0
X305.0Y-175.5
X305.0Y-178.0
X305.0Y-183.0
X305.0Y-185.5
X305.0Y-220.5
X305.3Y-106.3
X305.3Y-107.2
X305.3Y-108.1
X306.0Y-82.0
X306.0Y-84.0
X307.0Y-77.5
X307.0Y-84.0
X307.0Y-97.0
X307.5Y-125.5
X307.5Y-128.0
X307.5Y-130.5
X307.5Y-133.0
X307.5Y-135.5
X307.5Y-138.0
X307.5Y-140.5
X307.5Y-143.0
X307.5Y-145.5
X307.5Y-148.0
X307.5Y-150.5
X307.5Y-153.0
X307.5Y-155.5
X307.5Y-158.0
X307.5Y-160.5
X307.5Y-168.0
X307.5Y-170.5
X307.5Y-173.0
X307.5Y-175.5
X307.5Y-178.0
X307.5Y-180.5
X307.5Y-183.0
X307.5Y-185.5
X307.5Y-188.0
X307.5Y-220.5
X308.3Y-66.4
X308.3Y-85.9
X309.0Y-77.5
X309.0Y-97.0
X309.1Y-66.4
X309.1Y-85.9
X309.7Y-118.7
X310.0Y-62.5
X310.0Y-82.0
X310.0Y-125.5
X310.0Y-128.0
X310.0Y-130.5
X310.0Y-133.0
X310.0Y-135.5
X310.0Y-138.0
X310.0Y-140.5
X310.0Y-143.0
X310.0Y-145.5
X310.0Y-148.0
X310.0Y-150.5
X310.0Y-153.0
X310.0Y-155.5
X310.0Y-158.0
X310.0Y-160.5
X310.0Y-168.0
X310.0Y-170.5
X310.0Y-173.0
X310.0Y-175.5
X310.0Y-178.0
X310.0Y-180.5
X310.0Y-183.0
X310.0Y-185.5
X310.0Y-188.0
X310.0Y-190.5
X310.0Y-193.0
X310.0Y-195.5
X310.0Y-198.0
X310.0Y-200.5
X310.0Y-203.0
X310.0Y-205.5
X310.0Y-208.0
X310.0Y-210.5
X310.0Y-213.0
X310.0Y-215.5
X310.0Y-218.0
X310.0Y-220.5
X310.6Y-118.7
X311.0Y-77.5
X311.0Y-97.0
X311.5Y-118.7
X312.0Y-108.0
X312.0Y-109.0
X312.5Y-193.0
X312.5Y-195.5
X312.5Y-198.0
X312.5Y-200.5
X312.5Y-203.0
X312.5Y-205.5
X312.5Y-208.0
X312.5Y-210.5
X312.5Y-213.0
X312.5Y-215.5
X313.0Y-67.5
X313.0Y-68.5
X313.0Y-69.5
X313.0Y-70.5
X313.0Y-87.0
X313.0Y-88.0
X313.0Y-89.0
X313.0Y-90.0
X313.0Y-108.0
X313.0Y-109.0
X313.0Y-126.0
X313.0Y-127.0
X313.0Y-128.0
X313.0Y-129.0
X313.0Y-130.0
X313.0Y-131.0
X313.0Y-132.0
X313.0Y-133.0
X313.0Y-134.0
X313.0Y-135.0
X313.0Y-136.0
X313.0Y-137.0
X313.0Y-138.0
X313.0Y-139.0
X313.0Y-140.0
X313.0Y-141.0
X313.0Y-142.0
X313.0Y-143.0
X313.0Y-144.0
X313.0Y-145.0
X313.0Y-146.0
X313.0Y-147.0
X313.0Y-148.0
X313.0Y-149.0
X313.0Y-150.0
X313.0Y-151.0
X313.0Y-152.0
X313.0Y-153.0
X313.0Y-154.0
X313.0Y-155.0
X313.0Y-156.0
X313.0Y-157.0
X313.0Y-158.0
X313.0Y-159.0
X313.0Y-160.0
X313.0Y-161.0
X313.0Y-162.0
X313.0Y-163.0
X313.0Y-164.0
X313.0Y-165.0
X313.0Y-166.0
X313.0Y-167.0
X313.0Y-168.0
X313.0Y-169.0
X313.0Y-170.0
X313.0Y-171.0
X313.0Y-172.0
X313.0Y-173.0
X313.0Y-174.0
X313.0Y-175.0
X313.0Y-176.0
X313.0Y-177.0
X313.0Y-178.0
X313.0Y-179.0
X313.0Y-180.0
X313.0Y-181.0
X313.0Y-182.0
X313.0Y-183.0
X313.0Y-184.0
X313.0Y-185.0
X313.0Y-186.0
X313.0Y-187.0
X313.0Y-188.0
X313.0Y-189.0
X313.0Y-190.0
X313.0Y-218.0
X313.0Y-219.0
X313.0Y-220.0
X314.0Y-108.0
X314.0Y-109.0
X314.0Y-126.0
X314.0Y-127.0
X314.0Y-128.0
X314.0Y-129.0
X314.0Y-130.0
X314.0Y-131.0
X314.0Y-132.0
X314.0Y-133.0
X314.0Y-134.0
X314.0Y-135.0
X314.0Y-136.0
X314.0Y-137.0
X314.0Y-138.0
X314.0Y-139.0
X314.0Y-140.0
X314.0Y-141.0
X314.0Y-142.0
X314.0Y-143.0
X314.0Y-144.0
X314.0Y-145.0
X314.0Y-146.0
X314.0Y-147.0
X314.0Y-148.0
X314.0Y-149.0
X314.0Y-150.0
X314.0Y-151.0
X314.0Y-152.0
X314.0Y-153.0
X314.0Y-154.0
X314.0Y-155.0
X314.0Y-156.0
X314.0Y-157.0
X314.0Y-158.0
X314.0Y-159.0
X314.0Y-160.0
X314.0Y-161.0
X314.0Y-162.0
X314.0Y-163.0
X314.0Y-164.0
X314.0Y-165.0
X314.0Y-166.0
X314.0Y-167.0
X314.0Y-168.0
X314.0Y-169.0
X314.0Y-170.0
X314.0Y-171.0
X314.0Y-172.0
X314.0Y-173.0
X314.0Y-174.0
X314.0Y-175.0
X314.0Y-176.0
X314.0Y-177.0
X314.0Y-178.0
X314.0Y-179.0
X314.0Y-180.0
X314.0Y-181.0
X314.0Y-182.0
X314.0Y-183.0
X314.0Y-184.0
X314.0Y-185.0
X314.0Y-186.0
X314.0Y-187.0
X314.0Y-188.0
X314.0Y-189.0
X314.0Y-190.0
X314.0Y-218.0
X314.0Y-219.0
X314.0Y-220.0
X314.5Y-117.9
X314.5Y-118.7
X315.0Y-108.0
X315.0Y-109.0
X315.0Y-126.0
X315.0Y-127.0
X315.0Y-128.0
X315.0Y-129.0
X315.0Y-130.0
X315.0Y-131.0
X315.0Y-132.0
X315.0Y-133.0
X315.0Y-134.0
X315.0Y-135.0
X315.0Y-136.0
X315.0Y-137.0
X315.0Y-138.0
X315.0Y-139.0
X315.0Y-140.0
X315.0Y-141.0
X315.0Y-142.0
X315.0Y-143.0
X315.0Y-144.0
X315.0Y-145.0
X315.0Y-146.0
X315.0Y-147.0
X315.0Y-148.0
X315.0Y-149.0
X315.0Y-150.0
X315.0Y-151.0
X315.0Y-152.0
X315.0Y-153.0
X315.0Y-154.0
X315.0Y-155.0
X315.0Y-156.0
X315.0Y-157.0
X315.0Y-158.0
X315.0Y-159.0
X315.0Y-160.0
X315.0Y-161.0
X315.0Y-162.0
X315.0Y-163.0
X315.0Y-164.0
X315.0Y-165.0
X315.0Y-166.0
X315.0Y-167.0
X315.0Y-168.0
X315.0Y-169.0
X315.0Y-170.0
X315.0Y-171.0
X315.0Y-172.0
X315.0Y-173.0
X315.0Y-174.0
X315.0Y-175.0
X315.0Y-176.0
X315.0Y-177.0
X315.0Y-178.0
X315.0Y-179.0
X315.0Y-180.0
X315.0Y-181.0
X315.0Y-182.0
X315.0Y-183.0
X315.0Y-184.0
X315.0Y-185.0
X315.0Y-186.0
X315.0Y-187.0
X315.0Y-188.0
X315.0Y-189.0
X315.0Y-190.0
X315.0Y-193.0
X315.0Y-195.5
X315.0Y-198.0
X315.0Y-200.5
X315.0Y-203.0
X315.0Y-205.5
X315.0Y-208.0
X315.0Y-210.5
X315.0Y-213.0
X315.0Y-215.5
X315.0Y-218.0
X315.0Y-219.0
X315.0Y-220.0
X315.1Y-71.0
X315.1Y-90.5
X315.3Y-62.5
X315.3Y-63.5
X315.3Y-64.5
X315.3Y-65.5
X315.3Y-66.5
X315.3Y-82.0
X315.3Y-83.0
X315.3Y-84.0
X315.3Y-85.0
X315.3Y-86.0
X315.4Y-117.9
X315.4Y-118.7
X316.0Y-108.0
X316.0Y-109.0
X316.1Y-111.6
X316.1Y-112.5
X316.1Y-113.4
X316.2Y-67.4
X316.2Y-86.9
X316.3Y-117.9
X316.3Y-118.7
X316.9Y-111.6
X316.9Y-112.5
X316.9Y-113.4
X317.1Y-117.9
X317.1Y-118.7
X317.2Y-67.4
X317.2Y-86.9
X317.6Y-112.2
X317.6Y-113.0
X317.6Y-113.8
X317.6Y-114.6
X317.6Y-115.4
X317.6Y-116.2
X317.6Y-117.0
X318.0Y-117.9
X318.0Y-118.7
X318.2Y-67.4
X318.2Y-86.9
X318.5Y-112.2
X318.5Y-113.0
X318.5Y-113.8
X318.5Y-114.6
X318.5Y-115.4
X318.5Y-116.2
X318.5Y-117.0
X318.8Y-106.3
X318.8Y-107.1
X318.9Y-117.9
X318.9Y-118.7
X319.0Y-74.5
X319.0Y-77.5
X319.0Y-94.0
X319.0Y-97.0
X319.2Y-67.4
X319.2Y-86.9
X319.4Y-112.2
X319.4Y-113.0
X319.4Y-113.8
X319.4Y-114.6
X319.4Y-115.4
X319.4Y-116.2
X319.4Y-117.0
X319.7Y-106.3
X319.7Y-107.1
T4
X107.601Y-81.081
X107.601Y-84.681
X122.357Y-122.7
X122.357Y-126.3
T5
X127.4Y-193.67
X127.4Y-194.94
X127.4Y-196.21
X127.4Y-197.48
X127.4Y-198.75
X127.4Y-200.02
X127.4Y-201.29
X127.4Y-202.56
X127.4Y-203.83
X127.4Y-205.1
X274.0Y-69.9
X275.27Y-69.9
X276.54Y-69.9
X277.81Y-69.9
X279.08Y-69.9
T6
X124.0Y-200.02
X124.0Y-201.29
X124.0Y-202.56
X124.0Y-203.83
X124.0Y-205.1
X265.625Y-186.16
X265.625Y-193.66
X274.0Y-73.2
X275.27Y-73.2
X276.54Y-73.2
X277.81Y-73.2
X279.08Y-73.2
X280.35Y-73.2
X291.625Y-186.96
X291.625Y-194.46
T7
X273.0Y-190.31
X285.5Y-190.31
T8
X228.0Y-152.0
X228.0Y-179.5
X251.0Y-152.0
X251.0Y-179.5
T9
X271.74Y-151.38
X271.74Y-174.24
X286.98Y-151.38
X286.98Y-174.24
M30
