%TF.GenerationSoftware,KiCad,Pcbnew,10.0.1*%
%TF.CreationDate,2026-04-20T15:04:41+05:30*%
%TF.ProjectId,dhjkstkkyme,64686a6b-7374-46b6-9b79-6d652e6b6963,rev?*%
%TF.SameCoordinates,Original*%
%TF.FileFunction,Paste,Bot*%
%TF.FilePolarity,Positive*%
%FSLAX46Y46*%
G04 Gerber Fmt 4.6, Leading zero omitted, Abs format (unit mm)*
G04 Created by KiCad (PCBNEW 10.0.1) date 2026-04-20 15:04:41*
%MOMM*%
%LPD*%
G01*
G04 APERTURE LIST*
G04 Aperture macros list*
%AMRoundRect*
0 Rectangle with rounded corners*
0 $1 Rounding radius*
0 $2 $3 $4 $5 $6 $7 $8 $9 X,Y pos of 4 corners*
0 Add a 4 corners polygon primitive as box body*
4,1,4,$2,$3,$4,$5,$6,$7,$8,$9,$2,$3,0*
0 Add four circle primitives for the rounded corners*
1,1,$1+$1,$2,$3*
1,1,$1+$1,$4,$5*
1,1,$1+$1,$6,$7*
1,1,$1+$1,$8,$9*
0 Add four rect primitives between the rounded corners*
20,1,$1+$1,$2,$3,$4,$5,0*
20,1,$1+$1,$4,$5,$6,$7,0*
20,1,$1+$1,$6,$7,$8,$9,0*
20,1,$1+$1,$8,$9,$2,$3,0*%
G04 Aperture macros list end*
%ADD10RoundRect,0.237500X0.237500X-0.300000X0.237500X0.300000X-0.237500X0.300000X-0.237500X-0.300000X0*%
%ADD11RoundRect,0.237500X0.300000X0.237500X-0.300000X0.237500X-0.300000X-0.237500X0.300000X-0.237500X0*%
%ADD12R,0.660000X0.230000*%
%ADD13R,0.660000X0.350000*%
%ADD14R,5.100000X3.500000*%
%ADD15RoundRect,0.237500X0.287500X0.237500X-0.287500X0.237500X-0.287500X-0.237500X0.287500X-0.237500X0*%
%ADD16RoundRect,0.237500X-0.237500X0.300000X-0.237500X-0.300000X0.237500X-0.300000X0.237500X0.300000X0*%
%ADD17RoundRect,0.250000X-0.400000X-0.625000X0.400000X-0.625000X0.400000X0.625000X-0.400000X0.625000X0*%
%ADD18RoundRect,0.150000X0.587500X0.150000X-0.587500X0.150000X-0.587500X-0.150000X0.587500X-0.150000X0*%
%ADD19RoundRect,0.250000X0.412500X0.650000X-0.412500X0.650000X-0.412500X-0.650000X0.412500X-0.650000X0*%
%ADD20RoundRect,0.250000X-0.625000X0.400000X-0.625000X-0.400000X0.625000X-0.400000X0.625000X0.400000X0*%
%ADD21R,0.200000X0.700000*%
%ADD22RoundRect,0.250000X-0.650000X0.412500X-0.650000X-0.412500X0.650000X-0.412500X0.650000X0.412500X0*%
%ADD23RoundRect,0.250000X-1.100000X0.412500X-1.100000X-0.412500X1.100000X-0.412500X1.100000X0.412500X0*%
%ADD24RoundRect,0.237500X-0.237500X0.287500X-0.237500X-0.287500X0.237500X-0.287500X0.237500X0.287500X0*%
%ADD25RoundRect,0.237500X-0.300000X-0.237500X0.300000X-0.237500X0.300000X0.237500X-0.300000X0.237500X0*%
%ADD26R,0.800000X2.000000*%
%ADD27RoundRect,0.250000X0.650000X-0.412500X0.650000X0.412500X-0.650000X0.412500X-0.650000X-0.412500X0*%
%ADD28R,0.650000X0.350000*%
%ADD29R,1.100000X1.700000*%
%ADD30RoundRect,0.250000X-0.350000X-0.450000X0.350000X-0.450000X0.350000X0.450000X-0.350000X0.450000X0*%
%ADD31RoundRect,0.250000X-0.450000X0.350000X-0.450000X-0.350000X0.450000X-0.350000X0.450000X0.350000X0*%
%ADD32R,0.650000X1.850000*%
%ADD33R,2.000000X0.800000*%
%ADD34RoundRect,0.250000X-0.475000X0.337500X-0.475000X-0.337500X0.475000X-0.337500X0.475000X0.337500X0*%
G04 APERTURE END LIST*
D10*
%TO.C,C94*%
X282200000Y-113762500D03*
X282200000Y-112037500D03*
%TD*%
%TO.C,C93*%
X293100000Y-110062500D03*
X293100000Y-108337500D03*
%TD*%
D11*
%TO.C,C21*%
X195950000Y-190300000D03*
X194225000Y-190300000D03*
%TD*%
D10*
%TO.C,R54*%
X104000000Y-186662500D03*
X104000000Y-184937500D03*
%TD*%
D12*
%TO.C,J5*%
X206355000Y-75200000D03*
X203645000Y-75200000D03*
X206355000Y-75600000D03*
X203645000Y-75600000D03*
X206355000Y-76000000D03*
X203645000Y-76000000D03*
X206355000Y-76400000D03*
X203645000Y-76400000D03*
X206355000Y-76800000D03*
X203645000Y-76800000D03*
X206355000Y-77200000D03*
X203645000Y-77200000D03*
X206355000Y-77600000D03*
X203645000Y-77600000D03*
X206355000Y-78000000D03*
X203645000Y-78000000D03*
X206355000Y-78400000D03*
X203645000Y-78400000D03*
X206355000Y-78800000D03*
X203645000Y-78800000D03*
X206355000Y-79200000D03*
X203645000Y-79200000D03*
X206355000Y-79600000D03*
X203645000Y-79600000D03*
X206355000Y-80000000D03*
X203645000Y-80000000D03*
X206355000Y-80400000D03*
X203645000Y-80400000D03*
X206355000Y-80800000D03*
X203645000Y-80800000D03*
X206355000Y-81200000D03*
X203645000Y-81200000D03*
X206355000Y-81600000D03*
X203645000Y-81600000D03*
X206355000Y-82000000D03*
X203645000Y-82000000D03*
X206355000Y-82400000D03*
X203645000Y-82400000D03*
X206355000Y-82800000D03*
X203645000Y-82800000D03*
D13*
X206355000Y-74725000D03*
X203645000Y-74725000D03*
X206355000Y-83275000D03*
X203645000Y-83275000D03*
%TD*%
D10*
%TO.C,R51*%
X102137500Y-211300000D03*
X102137500Y-209575000D03*
%TD*%
D14*
%TO.C,R61*%
X202000000Y-174890000D03*
X202000000Y-179000000D03*
%TD*%
D15*
%TO.C,FB3*%
X174875000Y-98000000D03*
X173125000Y-98000000D03*
%TD*%
D16*
%TO.C,C58*%
X314956750Y-110137500D03*
X314956750Y-111862500D03*
%TD*%
D17*
%TO.C,R37*%
X267350000Y-118400000D03*
X270450000Y-118400000D03*
%TD*%
D18*
%TO.C,D6*%
X218175000Y-150080000D03*
X218175000Y-151980000D03*
X216300000Y-151030000D03*
%TD*%
D16*
%TO.C,C53*%
X198000000Y-106937500D03*
X198000000Y-108662500D03*
%TD*%
D19*
%TO.C,C60*%
X176362500Y-96000000D03*
X173237500Y-96000000D03*
%TD*%
D20*
%TO.C,R67*%
X221100000Y-150130000D03*
X221100000Y-153230000D03*
%TD*%
D17*
%TO.C,R36*%
X262150000Y-118400000D03*
X265250000Y-118400000D03*
%TD*%
%TO.C,R38*%
X272600000Y-118400000D03*
X275700000Y-118400000D03*
%TD*%
D21*
%TO.C,J4*%
X109800000Y-180000000D03*
X109800000Y-176920000D03*
X109400000Y-180000000D03*
X109400000Y-176920000D03*
X109000000Y-180000000D03*
X109000000Y-176920000D03*
X108600000Y-180000000D03*
X108600000Y-176920000D03*
X108200000Y-180000000D03*
X108200000Y-176920000D03*
X107800000Y-180000000D03*
X107800000Y-176920000D03*
X107400000Y-180000000D03*
X107400000Y-176920000D03*
X107000000Y-180000000D03*
X107000000Y-176920000D03*
X106600000Y-180000000D03*
X106600000Y-176920000D03*
X106200000Y-180000000D03*
X106200000Y-176920000D03*
X105800000Y-180000000D03*
X105800000Y-176920000D03*
X105400000Y-180000000D03*
X105400000Y-176920000D03*
X105000000Y-180000000D03*
X105000000Y-176920000D03*
X104600000Y-180000000D03*
X104600000Y-176920000D03*
X104200000Y-180000000D03*
X104200000Y-176920000D03*
X103800000Y-180000000D03*
X103800000Y-176920000D03*
X103400000Y-180000000D03*
X103400000Y-176920000D03*
X103000000Y-180000000D03*
X103000000Y-176920000D03*
X102600000Y-180000000D03*
X102600000Y-176920000D03*
X102200000Y-180000000D03*
X102200000Y-176920000D03*
%TD*%
D11*
%TO.C,C47*%
X195962500Y-191900000D03*
X194237500Y-191900000D03*
%TD*%
D20*
%TO.C,R65*%
X221100000Y-140030000D03*
X221100000Y-143130000D03*
%TD*%
D22*
%TO.C,C61*%
X170600000Y-182437500D03*
X170600000Y-185562500D03*
%TD*%
D16*
%TO.C,R52*%
X104137500Y-209575000D03*
X104137500Y-211300000D03*
%TD*%
D20*
%TO.C,R64*%
X221100000Y-135000000D03*
X221100000Y-138100000D03*
%TD*%
D23*
%TO.C,C74*%
X308800000Y-109375000D03*
X308800000Y-112500000D03*
%TD*%
D24*
%TO.C,FB4*%
X168600000Y-183925000D03*
X168600000Y-185675000D03*
%TD*%
D11*
%TO.C,C73*%
X109462500Y-188600000D03*
X107737500Y-188600000D03*
%TD*%
D25*
%TO.C,C48*%
X274737500Y-98400000D03*
X276462500Y-98400000D03*
%TD*%
D16*
%TO.C,R50*%
X288300000Y-113737500D03*
X288300000Y-115462500D03*
%TD*%
D10*
%TO.C,R49*%
X290000000Y-115462500D03*
X290000000Y-113737500D03*
%TD*%
D26*
%TO.C,L6*%
X168600000Y-188700000D03*
X170600000Y-188700000D03*
%TD*%
D11*
%TO.C,C67*%
X289962500Y-112000000D03*
X288237500Y-112000000D03*
%TD*%
%TO.C,C72*%
X105762500Y-188300000D03*
X104037500Y-188300000D03*
%TD*%
D16*
%TO.C,R55*%
X109600000Y-185237500D03*
X109600000Y-186962500D03*
%TD*%
D27*
%TO.C,C10*%
X174900000Y-74900000D03*
X174900000Y-71775000D03*
%TD*%
D16*
%TO.C,R53*%
X105800000Y-184900000D03*
X105800000Y-186625000D03*
%TD*%
D28*
%TO.C,IC2*%
X306500000Y-109137500D03*
X306500000Y-109787500D03*
X306500000Y-110437500D03*
X304300000Y-110437500D03*
X304300000Y-109787500D03*
X304300000Y-109137500D03*
D29*
X305400000Y-109787500D03*
%TD*%
D17*
%TO.C,R34*%
X251750000Y-118400000D03*
X254850000Y-118400000D03*
%TD*%
%TO.C,R39*%
X277850000Y-118400000D03*
X280950000Y-118400000D03*
%TD*%
D23*
%TO.C,C75*%
X302000000Y-109437500D03*
X302000000Y-112562500D03*
%TD*%
D21*
%TO.C,J3*%
X109800000Y-220000000D03*
X109800000Y-216920000D03*
X109400000Y-220000000D03*
X109400000Y-216920000D03*
X109000000Y-220000000D03*
X109000000Y-216920000D03*
X108600000Y-220000000D03*
X108600000Y-216920000D03*
X108200000Y-220000000D03*
X108200000Y-216920000D03*
X107800000Y-220000000D03*
X107800000Y-216920000D03*
X107400000Y-220000000D03*
X107400000Y-216920000D03*
X107000000Y-220000000D03*
X107000000Y-216920000D03*
X106600000Y-220000000D03*
X106600000Y-216920000D03*
X106200000Y-220000000D03*
X106200000Y-216920000D03*
X105800000Y-220000000D03*
X105800000Y-216920000D03*
X105400000Y-220000000D03*
X105400000Y-216920000D03*
X105000000Y-220000000D03*
X105000000Y-216920000D03*
X104600000Y-220000000D03*
X104600000Y-216920000D03*
X104200000Y-220000000D03*
X104200000Y-216920000D03*
X103800000Y-220000000D03*
X103800000Y-216920000D03*
X103400000Y-220000000D03*
X103400000Y-216920000D03*
X103000000Y-220000000D03*
X103000000Y-216920000D03*
X102600000Y-220000000D03*
X102600000Y-216920000D03*
X102200000Y-220000000D03*
X102200000Y-216920000D03*
%TD*%
D10*
%TO.C,C92*%
X294700000Y-110062500D03*
X294700000Y-108337500D03*
%TD*%
D16*
%TO.C,C23*%
X198000000Y-97300000D03*
X198000000Y-99025000D03*
%TD*%
D20*
%TO.C,R66*%
X221100000Y-145080000D03*
X221100000Y-148180000D03*
%TD*%
D10*
%TO.C,C95*%
X214400000Y-151830000D03*
X214400000Y-150105000D03*
%TD*%
D17*
%TO.C,R35*%
X256950000Y-118400000D03*
X260050000Y-118400000D03*
%TD*%
D30*
%TO.C,R41*%
X288200000Y-118400000D03*
X290200000Y-118400000D03*
%TD*%
D16*
%TO.C,C46*%
X299600000Y-109337500D03*
X299600000Y-111062500D03*
%TD*%
D31*
%TO.C,R68*%
X221100000Y-155230000D03*
X221100000Y-157230000D03*
%TD*%
D32*
%TO.C,AT3*%
X290905000Y-108325000D03*
X289635000Y-108325000D03*
X288365000Y-108325000D03*
X287095000Y-108325000D03*
X287095000Y-97675000D03*
X288365000Y-97675000D03*
X289635000Y-97675000D03*
X290905000Y-97675000D03*
%TD*%
D25*
%TO.C,C71*%
X102275000Y-207937500D03*
X104000000Y-207937500D03*
%TD*%
%TO.C,C49*%
X274737500Y-96800000D03*
X276462500Y-96800000D03*
%TD*%
D12*
%TO.C,J6*%
X246355000Y-75200000D03*
X243645000Y-75200000D03*
X246355000Y-75600000D03*
X243645000Y-75600000D03*
X246355000Y-76000000D03*
X243645000Y-76000000D03*
X246355000Y-76400000D03*
X243645000Y-76400000D03*
X246355000Y-76800000D03*
X243645000Y-76800000D03*
X246355000Y-77200000D03*
X243645000Y-77200000D03*
X246355000Y-77600000D03*
X243645000Y-77600000D03*
X246355000Y-78000000D03*
X243645000Y-78000000D03*
X246355000Y-78400000D03*
X243645000Y-78400000D03*
X246355000Y-78800000D03*
X243645000Y-78800000D03*
X246355000Y-79200000D03*
X243645000Y-79200000D03*
X246355000Y-79600000D03*
X243645000Y-79600000D03*
X246355000Y-80000000D03*
X243645000Y-80000000D03*
X246355000Y-80400000D03*
X243645000Y-80400000D03*
X246355000Y-80800000D03*
X243645000Y-80800000D03*
X246355000Y-81200000D03*
X243645000Y-81200000D03*
X246355000Y-81600000D03*
X243645000Y-81600000D03*
X246355000Y-82000000D03*
X243645000Y-82000000D03*
X246355000Y-82400000D03*
X243645000Y-82400000D03*
X246355000Y-82800000D03*
X243645000Y-82800000D03*
D13*
X246355000Y-74725000D03*
X243645000Y-74725000D03*
X246355000Y-83275000D03*
X243645000Y-83275000D03*
%TD*%
D33*
%TO.C,L5*%
X170200000Y-98012500D03*
X170200000Y-96012500D03*
%TD*%
D18*
%TO.C,D5*%
X285937500Y-112050000D03*
X285937500Y-113950000D03*
X284062500Y-113000000D03*
%TD*%
D17*
%TO.C,R40*%
X283050000Y-118400000D03*
X286150000Y-118400000D03*
%TD*%
D34*
%TO.C,C56*%
X313056750Y-110162500D03*
X313056750Y-112237500D03*
%TD*%
D22*
%TO.C,C12*%
X171100000Y-205300000D03*
X171100000Y-208425000D03*
%TD*%
D10*
%TO.C,R56*%
X107600000Y-186962500D03*
X107600000Y-185237500D03*
%TD*%
M02*
