%TF.GenerationSoftware,KiCad,Pcbnew,10.0.1*%
%TF.CreationDate,2026-04-20T15:04:41+05:30*%
%TF.ProjectId,dhjkstkkyme,64686a6b-7374-46b6-9b79-6d652e6b6963,rev?*%
%TF.SameCoordinates,Original*%
%TF.FileFunction,Profile,NP*%
%FSLAX46Y46*%
G04 Gerber Fmt 4.6, Leading zero omitted, Abs format (unit mm)*
G04 Created by KiCad (PCBNEW 10.0.1) date 2026-04-20 15:04:41*
%MOMM*%
%LPD*%
G01*
G04 APERTURE LIST*
%TA.AperFunction,Profile*%
%ADD10C,0.050000*%
%TD*%
G04 APERTURE END LIST*
D10*
X75000000Y-60000000D02*
X75000000Y-165000000D01*
X75000000Y-165000000D02*
X95000000Y-165000000D01*
X75000000Y-225000000D02*
X75000000Y-170000000D01*
X75000000Y-225000000D02*
X130000000Y-225000000D01*
X95000000Y-165000000D02*
X95000000Y-170000000D01*
X95000000Y-170000000D02*
X75000000Y-170000000D01*
X110000000Y-165000000D02*
X110000000Y-170000000D01*
X110000000Y-165000000D02*
X130000000Y-165000000D01*
X110000000Y-170000000D02*
X130000000Y-170000000D01*
X130000000Y-60000000D02*
X75000000Y-60000000D01*
X130000000Y-60000000D02*
X130000000Y-100000000D01*
X130000000Y-110000000D02*
X130000000Y-140000000D01*
X130000000Y-110000000D02*
X135000000Y-110000000D01*
X130000000Y-150000000D02*
X135000000Y-150000000D01*
X130000000Y-165000000D02*
X130000000Y-150000000D01*
X130000000Y-170000000D02*
X130000000Y-195000000D01*
X130000000Y-195000000D02*
X135000000Y-195000000D01*
X130000000Y-205000000D02*
X130000000Y-225000000D01*
X135000000Y-60000000D02*
X135000000Y-100000000D01*
X135000000Y-100000000D02*
X130000000Y-100000000D01*
X135000000Y-110000000D02*
X135000000Y-140000000D01*
X135000000Y-140000000D02*
X130000000Y-140000000D01*
X135000000Y-150000000D02*
X135000000Y-195000000D01*
X135000000Y-205000000D02*
X130000000Y-205000000D01*
X135000000Y-225000000D02*
X135000000Y-205000000D01*
X135000000Y-225000000D02*
X201200000Y-225000000D01*
X160000000Y-196000000D02*
G75*
G02*
X161000000Y-195000000I1000000J0D01*
G01*
X160000000Y-198000000D02*
X160000000Y-196000000D01*
X161000000Y-82000000D02*
G75*
G02*
X162000000Y-81000000I1000000J0D01*
G01*
X161000000Y-84000000D02*
X161000000Y-82000000D01*
X161000000Y-195000000D02*
X184000000Y-195000000D01*
X161000000Y-199000000D02*
G75*
G02*
X160000000Y-198000000I0J1000000D01*
G01*
X162000000Y-81000000D02*
X184000000Y-81000000D01*
X162000000Y-85000000D02*
G75*
G02*
X161000000Y-84000000I0J1000000D01*
G01*
X184000000Y-81000000D02*
X193000000Y-81000000D01*
X184000000Y-199000000D02*
X161000000Y-199000000D01*
X184000000Y-199000000D02*
X201100000Y-199000000D01*
X185000000Y-195000000D02*
X184000000Y-195000000D01*
X185000000Y-195000000D02*
X205000000Y-195000000D01*
X189000000Y-85000000D02*
X162000000Y-85000000D01*
X189000000Y-85000000D02*
G75*
G02*
X190000000Y-86000000I0J-1000000D01*
G01*
X190000000Y-104100000D02*
X190000000Y-86000000D01*
X191000000Y-105100000D02*
G75*
G02*
X190000000Y-104100000I0J1000000D01*
G01*
X193000000Y-81000000D02*
G75*
G02*
X194000000Y-82000000I0J-1000000D01*
G01*
X193000000Y-105100000D02*
X191000000Y-105100000D01*
X194000000Y-82000000D02*
X194000000Y-100100000D01*
X195000000Y-101100000D02*
G75*
G02*
X194000000Y-100100000I0J1000000D01*
G01*
X195000000Y-101100000D02*
X231600000Y-101100000D01*
X201100000Y-199000000D02*
G75*
G02*
X202100000Y-200000000I0J-1000000D01*
G01*
X202100000Y-224100000D02*
G75*
G02*
X201200000Y-225000000I-900000J0D01*
G01*
X202100000Y-224100000D02*
X202100000Y-200000000D01*
X205000000Y-195000000D02*
G75*
G02*
X206000000Y-196000000I0J-1000000D01*
G01*
X206000000Y-196000000D02*
X206000000Y-198000000D01*
X206000000Y-198000000D02*
X206000000Y-199000000D01*
X206000000Y-199000000D02*
X206000000Y-200000000D01*
X206000000Y-200000000D02*
X206000000Y-224100000D01*
X206900000Y-225000000D02*
G75*
G02*
X206000000Y-224100000I0J900000D01*
G01*
X206900000Y-225000000D02*
X321000000Y-225000000D01*
X231600000Y-101100000D02*
G75*
G02*
X232600000Y-102100000I0J-1000000D01*
G01*
X231600000Y-105100000D02*
X193000000Y-105100000D01*
X232600000Y-102100000D02*
X232600000Y-104100000D01*
X232600000Y-104100000D02*
G75*
G02*
X231600000Y-105100000I-1000000J0D01*
G01*
X247600000Y-102100000D02*
G75*
G02*
X248600000Y-101100000I1000000J0D01*
G01*
X247600000Y-104100000D02*
X247600000Y-102100000D01*
X248600000Y-101100000D02*
X320000000Y-101100000D01*
X248600000Y-105100000D02*
G75*
G02*
X247600000Y-104100000I0J1000000D01*
G01*
X320000000Y-105100000D02*
X248600000Y-105100000D01*
X320000000Y-105100000D02*
G75*
G02*
X321000000Y-106100000I0J-1000000D01*
G01*
X321000000Y-60000000D02*
X135000000Y-60000000D01*
X321000000Y-60000000D02*
X321000000Y-100100000D01*
X321000000Y-100100000D02*
G75*
G02*
X320000000Y-101100000I-1000000J0D01*
G01*
X321000000Y-106100000D02*
X321000000Y-225000000D01*
M02*
